{"glyphs":{"0":{"ha":981,"x_min":76,"x_max":908,"o":"m 529 40 q 710 74 640 40 q 787 231 765 133 q 808 482 808 329 q 468 925 808 925 q 261 879 346 925 q 178 486 178 788 q 266 158 178 276 q 529 40 354 40 m 478 -14 q 76 474 76 -14 q 254 885 76 747 q 375 947 300 918 q 508 976 450 976 q 813 854 717 976 q 908 490 908 732 q 849 232 908 349 q 715 67 790 115 q 606 10 671 35 q 478 -14 542 -14 z "},"1":{"ha":357,"x_min":11,"x_max":353,"o":"m 21 13 l 42 13 q 114 52 100 13 q 128 224 128 92 l 128 772 q 110 851 128 836 q 24 844 93 865 q 15 845 18 843 q 12 852 11 847 q 18 858 13 857 q 56 873 38 865 q 90 890 74 881 q 119 906 107 899 q 146 924 131 913 q 167 940 161 935 q 188 956 174 944 q 206 969 203 968 q 219 969 208 972 q 231 960 231 965 l 231 224 q 245 53 231 93 q 321 13 260 13 l 344 13 q 351 10 349 13 q 351 3 353 7 q 344 0 349 0 q 258 3 321 0 q 188 6 196 6 q 111 3 179 6 q 21 0 43 0 q 15 3 17 0 q 15 9 13 6 q 21 13 17 13 z "},"2":{"ha":836,"x_min":61,"x_max":789,"o":"m 304 -1 q 207 -2 264 -1 q 108 -4 150 -3 q 63 -6 67 -6 q 61 18 61 3 q 65 47 61 43 q 367 311 233 189 q 574 541 513 446 q 635 747 635 636 q 580 910 635 850 q 417 971 525 971 q 189 876 254 971 q 124 531 124 782 q 120 522 124 525 q 114 522 117 519 q 111 531 111 525 q 97 754 111 625 q 83 885 83 883 q 99 915 83 914 q 130 925 103 917 q 163 935 157 933 q 194 944 169 938 q 227 953 218 951 q 258 961 236 956 q 293 969 281 967 q 326 974 306 971 q 363 979 347 978 q 399 982 379 981 q 439 983 419 983 q 667 922 585 983 q 750 750 750 861 q 728 660 750 706 q 653 557 707 615 q 558 462 599 499 q 428 347 517 425 q 410 332 417 338 q 393 317 403 326 q 375 301 383 308 q 146 86 253 193 q 567 89 494 86 q 700 129 653 90 q 760 260 747 168 l 774 354 q 778 360 774 358 q 785 360 782 363 q 789 353 789 357 l 775 257 q 732 1 735 6 q 671 -4 726 -4 q 499 -3 657 -4 q 304 -1 340 -1 z "},"3":{"ha":785,"x_min":79,"x_max":726,"o":"m 104 3 q 90 10 92 6 q 94 15 90 14 q 101 15 97 15 q 267 1 189 1 q 613 300 613 1 q 555 446 613 385 q 421 507 497 507 q 341 480 382 507 q 269 426 300 453 q 226 399 239 399 q 212 404 217 399 q 206 417 207 410 q 206 433 206 425 q 208 447 207 440 l 211 454 q 462 590 368 506 q 556 775 556 675 q 508 917 556 864 q 360 969 460 969 q 173 880 243 969 q 103 608 103 790 q 100 600 103 603 q 94 600 97 597 q 90 608 90 603 q 88 745 90 681 q 82 847 85 810 q 79 888 79 883 q 94 918 79 917 q 404 985 288 985 q 597 933 522 985 q 671 797 671 881 q 592 658 671 725 q 363 506 513 590 q 481 531 433 531 q 658 465 590 531 q 726 288 726 399 q 633 68 726 157 q 356 -21 540 -21 q 104 3 207 -21 z "},"4":{"ha":838,"x_min":13,"x_max":821,"o":"m 81 381 l 408 381 l 408 778 q 262 601 365 725 q 81 381 158 478 m 503 381 l 611 381 q 799 540 775 383 l 807 593 q 811 599 807 597 q 818 599 815 601 q 821 592 821 596 l 813 538 q 796 436 806 494 q 781 347 786 378 q 774 313 775 317 q 694 306 767 306 l 503 306 l 503 182 q 503 112 503 131 q 508 68 503 93 q 519 38 514 43 q 543 24 524 32 q 580 15 563 15 q 639 14 597 15 q 645 11 643 14 q 645 5 647 8 q 639 1 643 1 q 541 3 617 1 q 457 4 465 4 q 360 3 449 4 q 249 1 271 1 q 242 4 244 1 q 242 10 240 7 q 249 14 244 14 q 314 16 294 15 q 356 24 333 17 q 385 38 379 31 q 399 67 392 46 q 408 113 407 89 q 408 182 408 136 l 408 306 l 111 306 q 32 301 78 306 q 14 308 13 299 q 58 376 15 324 q 109 439 85 408 q 152 493 133 469 q 194 548 171 517 q 229 596 217 579 q 265 649 242 613 q 299 698 289 685 q 336 755 308 711 q 373 813 364 799 q 417 881 382 826 q 463 954 451 936 q 500 986 479 982 q 554 988 539 997 q 557 953 569 979 q 536 918 551 942 q 512 873 521 894 q 503 826 503 851 l 503 381 z "},"5":{"ha":776,"x_min":79,"x_max":707,"o":"m 707 286 q 612 65 707 151 q 343 -21 517 -21 q 122 3 225 -21 q 108 10 110 6 q 113 15 108 14 q 119 15 115 15 q 296 1 207 1 q 522 84 447 1 q 596 290 596 167 q 526 463 596 392 q 343 533 456 533 q 224 506 276 533 q 100 419 171 478 q 87 421 94 417 q 79 432 79 425 l 83 888 q 129 928 83 896 q 183 960 175 960 q 283 958 192 960 q 410 957 374 957 l 626 957 q 686 951 686 957 q 674 863 686 943 q 660 736 663 782 l 653 638 q 646 629 653 629 q 640 636 640 629 l 647 736 q 621 849 653 821 q 486 878 589 878 l 178 878 l 153 472 q 394 574 278 574 q 625 494 543 574 q 707 286 707 414 z "},"6":{"ha":793,"x_min":56,"x_max":735,"o":"m 56 372 q 106 584 56 471 q 267 806 157 697 q 522 969 376 915 q 532 968 529 972 q 528 961 535 964 q 356 852 429 921 q 243 702 282 783 q 186 543 204 621 q 168 389 168 465 q 249 127 168 239 q 429 15 331 15 q 565 46 514 15 q 617 151 603 100 q 632 278 632 201 q 558 472 632 403 q 386 540 483 540 q 302 522 351 540 q 222 475 253 503 q 213 475 214 471 q 215 481 213 478 q 325 557 258 524 q 440 590 392 590 q 652 518 569 590 q 735 301 735 446 q 622 64 735 176 q 388 -18 476 -18 q 154 83 253 -18 q 56 372 56 185 z "},"7":{"ha":753,"x_min":61,"x_max":697,"o":"m 311 1 q 226 0 303 1 q 132 -1 150 -1 q 124 4 125 -1 q 133 11 124 11 l 172 11 q 274 72 222 11 q 397 288 325 132 l 494 500 q 647 846 622 785 l 268 846 q 122 823 153 846 q 85 710 90 800 l 76 571 q 69 560 76 560 q 63 572 61 561 l 72 710 q 81 947 81 865 q 138 953 81 953 l 324 953 q 517 954 358 953 q 683 956 675 956 q 693 910 689 956 q 693 857 697 864 q 508 494 593 672 l 411 281 q 364 89 364 176 q 454 10 364 10 q 482 11 467 10 l 497 14 q 506 6 506 14 q 489 -1 506 -1 q 399 0 476 -1 q 311 1 321 1 z "},"8":{"ha":797,"x_min":61,"x_max":701,"o":"m 569 767 q 360 943 569 943 q 232 921 279 943 q 189 786 189 856 q 230 691 189 738 q 307 622 271 644 q 431 551 343 599 q 463 533 451 539 q 569 767 569 636 m 422 38 q 567 61 508 38 q 613 128 603 103 q 624 196 624 153 q 606 281 624 242 q 547 352 588 319 q 474 404 506 385 q 380 456 443 424 q 292 504 317 489 q 157 271 157 418 q 229 102 157 167 q 422 38 301 38 m 114 732 q 228 926 114 857 q 414 985 340 985 q 601 926 536 985 q 665 781 665 868 q 648 705 665 742 q 594 633 631 668 q 535 579 557 597 q 469 531 513 561 q 558 478 525 500 q 628 424 590 457 q 683 356 665 392 q 701 279 701 321 q 571 56 701 136 q 360 -14 439 -14 q 138 58 215 -14 q 61 228 61 129 q 283 510 61 381 q 156 610 199 561 q 114 732 114 658 z "},"9":{"ha":803,"x_min":49,"x_max":735,"o":"m 735 575 q 706 427 735 510 q 622 258 676 344 q 473 94 567 172 q 263 -26 379 17 q 253 -25 256 -29 q 257 -18 250 -21 q 438 97 363 24 q 549 258 513 171 q 600 421 585 346 q 617 572 615 496 q 544 833 619 726 q 356 939 469 939 q 224 908 275 939 q 167 801 185 851 q 150 676 150 750 q 219 482 150 551 q 383 413 289 413 q 469 431 422 413 q 547 478 515 449 q 557 478 556 482 q 554 472 557 475 q 444 394 510 428 q 326 360 378 360 q 124 431 200 360 q 49 649 49 503 q 160 890 49 779 q 397 972 306 972 q 637 868 539 972 q 735 575 735 764 z "},"ª":{"ha":1181,"x_min":111,"x_max":1069,"o":"m 936 811 l 604 479 l 936 147 l 922 133 l 590 465 l 258 133 l 244 147 l 576 479 l 244 811 l 258 825 l 590 493 l 922 825 l 936 811 m 131 19 l 1050 19 l 1050 939 l 131 939 l 131 19 m 111 0 l 111 958 l 1069 958 l 1069 0 l 111 0 z "}," ":{"ha":429,"x_min":0,"x_max":0,"o":""},"!":{"ha":350,"x_min":94,"x_max":256,"o":"m 131 844 l 131 851 q 162 915 131 872 q 206 958 193 958 q 239 910 239 958 l 239 904 q 210 600 239 846 q 182 226 182 354 q 176 222 182 218 l 174 226 q 152 582 174 358 q 131 844 131 806 m 94 75 q 118 132 94 108 q 175 156 142 156 q 231 131 207 156 q 256 75 256 107 q 232 18 256 42 q 175 -6 208 -6 q 117 17 140 -6 q 94 75 94 40 z "},"\"":{"ha":390,"x_min":75,"x_max":315,"o":"m 248 973 q 254 979 248 973 q 275 985 260 985 q 303 973 290 985 q 315 944 315 961 q 306 876 315 936 q 289 734 297 817 q 281 588 281 651 q 277 579 281 582 q 270 579 274 576 q 267 588 267 582 q 259 734 267 651 q 244 876 251 817 q 236 944 236 936 q 248 973 236 961 m 87 973 q 93 979 87 973 q 114 985 99 985 q 142 973 129 985 q 154 944 154 961 q 145 876 154 936 q 128 734 136 817 q 119 588 119 651 q 116 579 119 582 q 109 579 113 576 q 106 588 106 582 q 98 734 106 651 q 83 876 90 817 q 75 944 75 936 q 87 973 75 961 z "},"#":{"ha":1124,"x_min":79,"x_max":1039,"o":"m 563 665 q 463 665 522 665 q 382 664 404 664 q 381 488 381 615 l 381 315 l 731 315 q 733 486 733 407 q 732 664 733 615 q 563 665 683 665 m 746 488 l 746 315 q 1028 322 926 318 q 1038 305 1038 310 q 1036 285 1039 300 q 746 301 857 297 q 751 19 746 207 q 734 5 735 6 q 717 6 733 4 q 731 303 717 29 q 563 304 682 304 q 463 303 522 304 q 381 303 403 303 q 386 19 381 208 q 369 5 369 6 q 351 6 368 4 q 365 301 353 38 q 94 293 308 301 q 80 310 81 310 q 81 328 79 311 q 365 315 281 315 q 368 486 368 407 q 367 664 368 615 q 94 656 311 664 q 80 673 81 672 q 81 690 79 674 q 367 678 258 679 l 363 946 q 380 956 375 956 q 400 954 385 957 q 390 805 396 889 q 383 678 385 721 q 561 676 433 676 l 732 676 l 728 946 q 745 956 740 956 q 765 954 750 957 q 757 806 763 892 q 749 676 751 719 q 1028 683 926 679 q 1038 666 1038 671 q 1036 646 1039 661 q 747 663 856 658 q 746 488 746 617 z "},"$":{"ha":779,"x_min":74,"x_max":710,"o":"m 161 778 q 217 653 161 703 q 379 558 274 604 q 376 964 379 708 l 374 964 q 217 912 272 964 q 161 778 161 860 m 397 -15 l 410 -15 q 569 41 511 -15 q 626 188 626 97 q 565 334 626 276 q 394 442 504 392 q 397 -15 394 89 m 74 713 q 159 903 74 832 q 376 976 244 974 q 375 1085 375 1014 q 390 1095 388 1094 q 408 1093 392 1096 q 403 976 407 1075 q 502 972 460 976 q 603 954 544 967 q 669 940 661 942 q 685 925 683 935 q 684 860 686 914 q 679 740 682 807 q 676 640 676 672 q 669 628 676 628 q 663 640 663 628 q 600 871 663 790 q 403 963 538 951 q 396 550 396 738 q 601 443 550 481 q 710 253 708 364 q 625 51 710 131 q 399 -29 540 -29 l 397 -29 q 400 -147 397 -67 q 367 -161 389 -167 l 371 -29 q 257 -21 308 -28 q 184 -8 206 -14 q 103 13 163 -3 q 85 31 86 18 q 85 101 83 44 q 90 230 88 157 q 93 342 93 303 q 97 351 93 349 q 103 351 100 354 q 107 342 107 349 q 172 91 107 185 q 372 -14 238 -3 q 379 449 379 257 q 331 470 369 453 q 281 493 293 488 q 235 515 268 499 q 190 540 203 531 q 153 567 178 550 q 119 597 129 583 q 97 630 110 611 q 78 669 83 649 q 74 713 74 690 z "},"%":{"ha":1079,"x_min":56,"x_max":1019,"o":"m 164 900 q 136 735 136 861 q 301 540 136 540 q 407 563 369 540 q 436 729 436 594 q 399 876 436 831 q 275 922 361 922 q 164 900 203 922 m 157 910 q 233 950 185 929 q 317 971 282 971 q 470 917 421 971 q 519 751 519 864 q 488 635 519 686 q 415 556 456 583 q 254 488 321 488 q 56 701 56 488 q 86 825 56 769 q 157 910 117 881 m 664 403 q 636 238 636 364 q 801 43 636 43 q 907 65 869 43 q 936 232 936 97 q 899 379 936 333 q 775 425 861 425 q 664 403 703 425 m 657 413 q 733 453 685 432 q 817 474 782 474 q 970 420 921 474 q 1019 254 1019 367 q 988 138 1019 189 q 915 58 956 86 q 754 -10 821 -10 q 556 204 556 -10 q 586 328 556 272 q 657 413 617 383 m 533 472 q 414 326 479 407 q 270 146 349 244 q 153 -1 192 47 q 96 -1 114 -10 q 517 475 342 272 q 910 961 740 747 q 958 958 936 967 q 533 472 713 690 z "},"&":{"ha":1165,"x_min":88,"x_max":1104,"o":"m 435 321 q 335 436 388 372 q 211 379 247 414 q 171 275 175 344 q 240 130 174 194 q 365 65 307 65 q 467 101 419 65 q 550 197 515 136 q 487 264 528 219 q 435 321 446 308 m 831 -3 q 561 188 751 -3 q 447 62 532 131 q 289 -7 361 -7 q 152 63 217 -7 q 88 207 88 132 q 163 358 88 283 q 325 444 238 433 l 329 442 q 185 696 185 622 q 258 890 185 818 q 444 965 331 963 q 579 947 497 965 q 683 913 661 928 q 676 836 678 868 q 669 674 669 760 q 662 657 669 657 q 654 674 654 657 q 593 876 646 799 q 443 954 540 954 q 308 910 356 954 q 261 786 261 865 q 304 661 261 735 q 394 531 347 588 q 529 376 442 474 q 939 51 821 51 q 992 113 975 51 q 1008 261 1008 175 q 964 468 1008 406 l 808 469 q 658 465 690 469 q 650 465 651 464 q 653 472 649 467 q 677 504 661 482 q 704 540 693 526 q 721 553 715 553 l 913 553 q 1038 561 1004 553 q 1048 561 1046 563 q 1043 553 1050 560 q 1006 508 1025 538 q 978 469 986 478 q 1070 374 1036 424 q 1104 253 1104 325 q 1011 83 1104 169 q 831 -3 918 -3 z "},"'":{"ha":228,"x_min":75,"x_max":154,"o":"m 87 973 q 93 979 87 973 q 114 985 99 985 q 142 973 129 985 q 154 944 154 961 q 145 876 154 936 q 128 734 136 817 q 119 588 119 651 q 116 579 119 582 q 109 579 113 576 q 106 588 106 582 q 98 734 106 651 q 83 876 90 817 q 75 944 75 936 q 87 973 75 961 z "},"(":{"ha":556,"x_min":142,"x_max":524,"o":"m 142 364 q 242 784 142 582 q 503 1096 342 986 q 521 1094 515 1106 q 517 1083 524 1089 q 276 778 367 978 q 185 364 185 578 q 272 -56 185 146 q 508 -364 360 -258 q 510 -378 518 -372 q 496 -376 503 -381 q 240 -62 338 -268 q 142 364 142 143 z "},")":{"ha":556,"x_min":28,"x_max":414,"o":"m 414 364 q 316 -62 414 143 q 60 -376 218 -268 q 43 -375 50 -383 q 47 -364 39 -369 q 283 -56 196 -258 q 371 364 371 146 q 280 778 371 578 q 39 1083 189 978 q 39 1099 28 1093 q 53 1096 46 1101 q 313 784 211 988 q 414 364 414 581 z "},"*":{"ha":488,"x_min":40,"x_max":440,"o":"m 201 597 q 210 627 201 599 q 227 694 218 656 q 238 753 236 732 q 119 644 210 735 q 74 633 93 631 q 46 646 56 636 q 49 677 40 657 q 82 711 58 697 q 112 719 83 713 q 178 738 140 726 q 233 758 215 749 q 178 779 215 768 q 112 797 140 790 q 82 806 83 804 q 49 840 58 819 q 46 869 40 860 q 74 883 54 881 q 119 872 93 886 l 125 867 q 137 853 129 861 q 154 836 144 846 q 174 816 164 826 q 196 796 185 806 q 218 777 207 786 q 238 763 229 768 q 227 822 236 783 q 210 889 218 860 q 201 919 201 918 q 215 964 201 946 q 240 982 228 982 q 266 964 253 982 q 279 919 279 946 q 270 888 279 917 q 252 822 261 858 q 243 763 243 785 q 262 776 251 768 q 283 794 272 785 q 306 815 294 804 q 326 836 317 826 q 344 853 336 846 q 356 867 351 861 l 361 872 q 407 883 388 886 q 435 869 426 881 q 431 840 440 860 q 399 806 422 819 q 369 797 397 804 q 303 779 340 790 q 246 758 265 768 q 303 738 265 749 q 369 719 340 726 q 399 711 397 713 q 431 677 422 697 q 435 646 440 657 q 406 633 425 636 q 361 644 388 631 q 339 666 360 644 q 289 715 318 688 q 243 753 260 742 q 252 693 243 731 q 270 627 261 656 q 279 597 279 599 q 266 553 279 571 q 240 535 253 535 q 215 553 228 535 q 201 597 201 571 z "},"+":{"ha":775,"x_min":143,"x_max":629,"o":"m 372 578 q 390 585 378 585 q 406 578 401 585 q 396 349 396 475 q 622 357 489 349 q 629 340 629 351 q 622 324 629 328 q 396 333 447 333 q 406 106 396 204 q 390 99 401 99 q 372 106 378 99 q 376 333 376 172 q 150 324 318 333 q 143 340 143 328 q 150 357 143 351 q 376 349 281 349 q 372 578 376 513 z "},",":{"ha":374,"x_min":101,"x_max":283,"o":"m 161 -171 q 153 -172 156 -174 q 157 -165 150 -169 q 242 -12 242 -117 q 233 33 242 13 q 174 0 214 0 q 122 21 143 0 q 101 72 101 42 q 124 129 101 106 q 185 153 146 153 q 257 115 231 153 q 283 11 283 78 q 242 -97 283 -46 q 161 -171 201 -147 z "},"-":{"ha":747,"x_min":90,"x_max":661,"o":"m 378 349 q 653 357 519 349 q 661 340 661 351 q 654 324 661 328 q 378 333 518 333 q 99 324 228 333 q 91 340 90 328 q 97 357 92 351 q 378 349 239 349 z "},".":{"ha":350,"x_min":94,"x_max":256,"o":"m 94 75 q 118 132 94 108 q 175 156 142 156 q 231 131 207 156 q 256 75 256 107 q 232 18 256 42 q 175 -6 208 -6 q 117 17 140 -6 q 94 75 94 40 z "},"/":{"ha":494,"x_min":-67,"x_max":576,"o":"m 261 343 q -28 -376 179 146 q -37 -379 -32 -378 q -43 -381 -42 -381 q -47 -383 -44 -382 q -51 -383 -50 -383 q -56 -381 -53 -382 q -60 -379 -58 -381 q -67 -375 -62 -378 q 243 349 -12 -256 q 394 727 288 463 q 538 1086 500 992 q 576 1081 557 1092 q 261 343 451 821 z "},":":{"ha":350,"x_min":94,"x_max":256,"o":"m 94 500 q 118 557 94 533 q 175 581 142 581 q 231 556 207 581 q 256 500 256 532 q 232 443 256 467 q 175 419 208 419 q 117 442 140 419 q 94 500 94 465 m 94 75 q 118 132 94 108 q 175 156 142 156 q 231 131 207 156 q 256 75 256 107 q 232 18 256 42 q 175 -6 208 -6 q 117 17 140 -6 q 94 75 94 40 z "},";":{"ha":374,"x_min":94,"x_max":283,"o":"m 94 500 q 118 557 94 533 q 175 581 142 581 q 231 556 207 581 q 256 500 256 532 q 232 443 256 467 q 175 419 208 419 q 117 442 140 419 q 94 500 94 465 m 161 -171 q 153 -172 156 -174 q 157 -165 150 -169 q 242 -12 242 -117 q 233 33 242 13 q 174 0 214 0 q 122 21 143 0 q 101 72 101 42 q 124 129 101 106 q 185 153 146 153 q 257 115 231 153 q 283 11 283 78 q 242 -97 283 -46 q 161 -171 201 -147 z "},"<":{"ha":775,"x_min":168,"x_max":601,"o":"m 386 251 q 594 169 504 199 q 585 142 601 149 q 376 236 576 146 l 171 329 q 168 338 168 329 q 171 346 168 346 q 272 392 213 364 q 379 440 331 419 q 578 535 526 507 q 589 507 593 524 q 386 424 528 486 q 197 338 326 397 q 251 314 219 328 q 313 285 282 300 q 386 251 344 271 z "},"=":{"ha":775,"x_min":132,"x_max":640,"o":"m 389 225 q 150 224 179 225 q 143 254 132 232 q 388 244 221 244 q 625 250 536 244 q 629 217 640 239 q 389 225 574 225 m 389 440 q 150 439 179 440 q 143 469 135 450 q 388 460 221 460 q 625 465 536 460 q 629 432 636 450 q 389 440 572 440 z "},">":{"ha":775,"x_min":183,"x_max":613,"o":"m 394 426 q 192 508 265 483 q 201 536 185 529 q 404 442 282 497 l 610 349 q 613 340 613 349 q 610 332 613 332 q 509 286 568 314 q 401 238 450 258 q 199 140 247 168 q 188 168 183 151 q 394 254 240 186 q 582 339 476 290 q 529 363 561 349 q 466 392 497 378 q 394 426 435 407 z "},"?":{"ha":549,"x_min":111,"x_max":467,"o":"m 182 474 q 193 489 182 485 q 355 597 306 544 q 403 722 404 649 q 330 845 401 801 q 119 889 258 889 q 111 897 111 889 q 120 936 111 904 q 141 1010 129 968 q 157 1068 153 1053 q 165 1067 165 1082 q 153 988 153 989 q 178 982 154 982 q 390 922 314 982 q 467 779 467 861 q 408 626 467 699 q 272 515 349 553 q 279 413 272 504 q 285 314 286 322 q 259 294 285 310 q 208 267 233 279 q 183 257 183 254 q 183 304 183 260 q 183 401 183 349 q 182 474 182 453 m 167 75 q 190 132 167 108 q 249 156 214 156 q 304 131 281 156 q 328 75 328 107 q 304 18 328 42 q 247 -6 281 -6 q 190 17 213 -6 q 167 75 167 40 z "},"@":{"ha":1357,"x_min":72,"x_max":1289,"o":"m 500 83 q 672 229 542 96 q 889 482 801 363 q 797 578 824 557 q 736 600 769 600 q 601 524 672 600 q 497 340 531 447 q 472 182 471 250 q 500 83 474 114 m 1097 -115 l 1101 -118 q 907 -251 1022 -197 q 667 -306 792 -306 q 367 -244 500 -306 q 153 -58 233 -183 q 72 236 72 67 q 137 518 72 386 q 304 737 201 650 q 531 873 407 824 q 775 922 654 922 q 972 892 882 922 q 1118 814 1061 861 q 1215 706 1175 767 q 1272 590 1256 646 q 1289 482 1289 533 q 1160 142 1289 282 q 847 1 1031 1 q 801 11 836 1 q 761 26 767 21 q 724 125 728 64 q 821 365 718 194 q 482 25 665 181 q 451 19 475 19 q 425 25 428 19 q 378 147 382 58 q 410 325 374 236 q 587 545 464 457 q 800 633 710 633 q 869 617 844 633 q 953 540 894 601 q 1036 625 1029 617 q 1049 629 1044 631 l 1051 624 q 899 369 985 543 q 817 126 813 196 q 844 73 817 113 q 886 28 871 33 q 1146 151 1033 28 q 1258 465 1258 275 q 1230 602 1258 531 q 1145 742 1201 674 q 988 856 1089 811 q 758 901 886 901 q 525 855 642 901 q 315 728 408 808 q 162 527 221 647 q 103 272 103 407 q 148 30 103 136 q 274 -142 193 -76 q 460 -242 354 -208 q 690 -276 565 -276 q 908 -228 796 -276 q 1097 -115 1021 -179 z "},"A":{"ha":988,"x_min":-11,"x_max":999,"o":"m 639 360 l 432 844 l 239 357 l 475 358 l 639 358 l 639 360 m 646 344 l 483 340 q 349 342 447 340 q 235 344 251 344 l 211 286 q 161 79 161 151 q 239 11 161 11 q 260 13 244 11 q 278 15 275 15 q 288 8 288 15 q 271 0 288 0 q 191 1 258 0 q 113 3 124 3 q 61 1 106 3 q -3 0 17 0 q -11 7 -11 0 q -3 13 -11 13 l 3 13 q 103 96 58 13 q 194 293 154 183 l 463 963 q 472 967 464 967 l 486 967 q 500 963 497 967 l 753 360 q 859 122 822 193 q 919 32 896 51 q 978 13 942 13 l 989 13 q 999 7 999 13 q 990 0 999 0 q 913 2 968 0 q 850 4 858 4 q 773 2 842 4 q 682 0 704 0 q 671 7 672 0 q 678 13 674 11 l 707 13 q 749 39 746 13 q 646 344 756 92 z "},"B":{"ha":840,"x_min":18,"x_max":808,"o":"m 236 603 l 236 510 l 394 510 q 593 563 528 510 q 658 738 658 615 q 595 901 658 857 q 390 946 532 946 l 290 946 q 241 920 249 946 q 235 749 233 894 q 236 603 236 661 m 308 13 l 426 13 q 627 74 564 13 q 690 263 690 135 q 625 438 690 381 q 413 494 560 494 l 236 494 l 236 360 q 247 60 236 107 q 308 13 257 13 m 26 0 q 18 6 18 0 q 26 13 18 13 l 51 13 q 92 17 81 13 q 114 60 104 22 q 125 160 124 99 q 126 360 126 222 l 126 603 q 125 802 126 740 q 114 902 124 864 q 92 945 104 940 q 51 950 81 950 l 26 950 q 18 956 18 950 q 26 963 18 963 q 110 960 49 963 q 181 958 172 958 q 294 960 189 958 q 411 963 399 963 q 685 911 594 963 q 776 736 776 860 q 493 506 776 543 q 722 431 635 493 q 808 263 808 369 q 447 0 808 0 q 311 2 433 0 q 181 4 189 4 q 110 2 172 4 q 26 0 49 0 z "},"C":{"ha":1050,"x_min":60,"x_max":957,"o":"m 185 481 q 291 132 185 264 q 583 0 397 0 q 946 371 908 0 l 957 371 l 940 47 q 586 -14 800 -14 q 210 127 361 -14 q 60 481 60 268 q 217 835 60 694 q 592 976 374 976 q 779 958 678 976 q 938 915 881 940 l 954 613 l 942 613 q 594 963 907 963 q 297 829 408 963 q 185 481 185 696 z "},"D":{"ha":1018,"x_min":10,"x_max":958,"o":"m 803 827 q 881 759 803 827 q 958 481 958 692 q 809 135 958 269 q 433 0 660 0 q 308 1 357 0 q 263 3 293 3 q 218 4 233 4 l 22 0 q 11 4 13 0 q 14 8 10 7 q 22 10 18 10 q 84 20 67 10 q 111 67 101 31 q 126 194 121 104 q 130 306 129 236 q 129 456 131 376 q 128 546 128 535 q 126 680 128 576 q 124 824 124 783 q 112 934 124 918 q 32 950 100 950 q 24 956 24 950 q 32 963 24 963 q 113 961 38 963 q 201 960 189 960 q 308 961 210 960 q 428 963 406 963 q 803 827 649 963 m 835 481 q 723 822 835 694 q 425 950 611 950 l 333 950 q 250 904 263 950 q 238 603 238 858 l 238 224 q 226 19 238 67 q 320 17 240 19 q 436 14 400 14 q 729 140 624 14 q 835 481 835 265 z "},"E":{"ha":864,"x_min":10,"x_max":806,"o":"m 238 603 l 238 507 l 353 507 q 519 547 475 507 q 564 667 564 588 l 564 696 q 571 704 564 704 q 578 696 578 704 q 574 590 578 672 q 571 499 571 507 q 574 404 571 489 q 578 308 578 319 q 571 300 578 300 q 564 308 564 300 l 564 329 q 519 449 564 408 q 353 490 475 490 l 238 490 l 238 224 q 226 19 238 67 q 356 17 246 19 q 489 15 467 15 q 687 99 606 15 q 782 296 768 183 l 790 369 q 794 376 790 374 q 802 375 799 378 q 806 368 806 372 l 797 293 q 757 10 765 25 q 754 6 756 7 q 569 0 749 0 q 473 1 549 0 q 357 1 397 1 q 288 3 335 3 q 218 4 242 4 l 22 0 q 11 4 13 0 q 14 8 10 7 q 22 10 18 10 q 84 20 67 10 q 111 67 101 31 q 126 194 121 104 q 132 603 132 271 q 130 801 132 735 q 117 903 128 868 q 93 944 106 939 q 51 950 81 950 l 26 950 q 18 956 18 950 q 26 963 18 963 q 110 960 49 963 q 181 958 172 958 q 414 960 186 958 q 669 963 642 963 q 735 957 722 963 q 775 701 740 954 l 781 651 q 776 644 783 644 q 767 651 769 644 l 760 701 q 664 881 740 818 q 467 946 588 944 l 290 946 q 243 918 250 946 q 238 722 236 890 q 238 603 238 649 z "},"F":{"ha":864,"x_min":18,"x_max":815,"o":"m 186 4 q 119 2 178 4 q 39 0 61 0 q 31 6 31 0 q 39 13 31 13 l 57 13 q 98 17 86 13 q 119 60 110 22 q 131 160 129 99 q 132 360 132 222 l 132 603 q 130 801 132 735 q 117 903 128 868 q 93 944 106 939 q 51 950 81 950 l 26 950 q 18 956 18 950 q 26 963 18 963 q 99 962 39 963 q 217 961 158 961 q 478 963 369 961 q 637 965 588 964 q 694 965 686 965 q 768 961 753 965 q 772 931 769 958 q 783 823 775 903 q 804 644 792 743 l 815 553 q 812 546 815 549 q 804 545 808 543 q 800 551 800 547 l 789 642 q 695 865 768 783 q 507 946 622 946 l 290 946 q 243 918 250 946 q 238 722 236 890 q 238 603 238 649 l 238 481 l 349 481 q 515 526 471 481 q 560 663 560 572 l 560 682 q 567 690 560 690 q 574 682 574 690 q 570 569 574 660 q 567 472 567 479 q 570 367 567 461 q 574 261 574 272 q 567 253 574 253 q 560 261 560 253 l 560 283 q 515 418 560 372 q 349 464 471 464 l 238 464 l 238 360 q 239 160 238 222 q 250 60 240 97 q 271 17 260 22 q 311 13 282 13 l 363 13 q 371 6 371 13 q 363 0 371 0 q 267 2 340 0 q 186 4 193 4 z "},"G":{"ha":1069,"x_min":60,"x_max":972,"o":"m 594 963 q 295 831 406 963 q 185 481 185 699 q 291 132 185 264 q 583 0 397 0 q 863 78 726 0 q 867 258 867 85 q 864 414 867 383 q 756 425 831 422 q 454 431 672 431 q 447 435 449 431 q 456 440 450 439 q 964 456 761 440 q 972 444 972 456 q 971 -3 971 311 q 960 -4 971 -12 q 874 38 908 38 q 756 12 854 38 q 586 -14 658 -14 q 210 127 361 -14 q 60 481 60 268 q 217 835 60 694 q 592 976 374 976 q 779 958 678 976 q 938 915 881 940 l 954 619 q 951 611 954 614 q 945 610 949 608 q 942 618 942 613 q 594 963 908 963 z "},"H":{"ha":967,"x_min":25,"x_max":944,"o":"m 126 360 l 126 603 q 125 802 126 740 q 114 902 124 864 q 92 945 104 940 q 51 950 81 950 l 33 950 q 25 956 25 950 q 33 963 25 963 q 114 960 56 963 q 181 958 172 958 q 250 960 188 958 q 335 963 313 963 q 343 956 343 963 q 335 950 343 950 l 307 950 q 266 945 278 950 q 244 902 254 940 q 233 802 235 864 q 232 603 232 740 l 232 492 l 488 494 l 735 490 l 735 603 q 733 802 735 740 q 722 902 732 864 q 701 945 713 940 q 660 950 689 950 l 631 950 q 622 956 622 950 q 631 963 622 963 q 715 960 653 963 q 786 958 778 958 q 854 960 794 958 q 936 963 914 963 q 944 956 944 963 q 936 950 944 950 l 914 950 q 874 945 885 950 q 853 903 863 940 q 842 803 843 865 q 840 603 840 740 l 840 360 q 842 160 840 222 q 853 60 843 97 q 874 17 863 22 q 914 13 885 13 l 936 13 q 944 6 944 13 q 936 0 944 0 q 854 2 914 0 q 786 4 794 4 q 715 2 778 4 q 631 0 653 0 q 622 6 622 0 q 631 13 622 13 l 660 13 q 701 17 689 13 q 722 60 713 22 q 733 160 732 99 q 735 360 735 222 l 735 476 l 489 475 q 232 478 340 475 l 232 360 q 233 160 232 222 q 244 60 235 99 q 266 17 254 22 q 307 13 278 13 l 335 13 q 343 6 343 13 q 335 0 343 0 q 250 2 313 0 q 181 4 188 4 q 114 2 172 4 q 33 0 56 0 q 25 6 25 0 q 33 13 25 13 l 51 13 q 92 17 81 13 q 114 60 104 22 q 125 160 124 99 q 126 360 126 222 z "},"I":{"ha":390,"x_min":29,"x_max":361,"o":"m 142 360 l 142 603 q 140 802 142 740 q 129 902 139 864 q 108 945 119 940 q 67 950 96 950 l 38 950 q 29 956 29 950 q 38 963 29 963 q 124 960 58 963 q 196 958 189 958 q 267 960 204 958 q 353 963 331 963 q 361 956 361 963 q 353 950 361 950 l 324 950 q 283 945 294 950 q 261 902 271 940 q 250 802 251 864 q 249 603 249 740 l 249 360 q 250 160 249 222 q 261 60 251 99 q 283 17 271 22 q 324 13 294 13 l 353 13 q 361 6 361 13 q 353 0 361 0 q 267 2 331 0 q 196 4 204 4 q 124 2 189 4 q 38 0 58 0 q 29 6 29 0 q 38 13 29 13 l 67 13 q 108 17 96 13 q 129 60 119 22 q 140 160 139 99 q 142 360 142 222 z "},"J":{"ha":396,"x_min":-151,"x_max":375,"o":"m 261 603 l 261 443 q 262 371 261 426 q 263 296 263 315 q 252 122 263 190 q 208 -8 242 53 q 142 -105 175 -68 q 36 -214 110 -142 q -28 -267 11 -239 q -82 -294 -67 -294 q -114 -292 -94 -294 q -151 -260 -151 -282 q -137 -212 -151 -235 q -97 -181 -124 -189 q -69 -178 -83 -178 q -19 -178 -50 -178 q 17 -179 13 -179 q 72 -158 54 -179 q 135 -7 118 -110 q 153 360 153 96 l 153 603 q 143 905 153 860 q 79 950 133 950 l 78 950 l 42 950 q 33 956 33 950 q 42 963 33 963 q 133 960 64 963 q 208 958 201 958 q 280 960 217 958 q 367 963 343 963 q 375 956 375 963 q 367 950 375 950 l 339 950 q 272 906 282 950 q 261 603 261 861 z "},"K":{"ha":928,"x_min":18,"x_max":929,"o":"m 338 0 q 267 1 333 0 q 189 3 200 3 q 106 1 178 3 q 31 0 35 0 q 22 6 22 0 q 31 13 22 13 q 94 15 75 13 q 115 54 110 31 q 122 140 119 78 q 126 418 126 217 l 126 603 q 125 802 126 740 q 114 902 124 864 q 92 945 104 940 q 51 950 81 950 l 26 950 q 18 956 18 950 q 26 963 18 963 q 112 960 47 963 q 183 958 176 958 q 251 960 190 958 q 333 963 311 963 q 342 956 342 963 q 333 950 342 950 l 308 950 q 267 945 279 950 q 245 903 256 940 q 233 802 235 865 q 232 603 232 739 l 232 408 l 482 678 q 643 917 643 849 q 589 951 642 951 q 571 949 583 951 q 557 946 558 946 q 544 954 544 946 q 560 963 544 963 q 636 961 572 963 q 711 960 700 960 q 779 961 718 960 q 858 963 840 963 q 865 959 863 963 q 865 953 867 956 q 858 950 863 950 l 856 950 q 726 900 788 950 q 494 669 664 850 l 361 526 q 458 556 407 556 q 544 538 510 556 q 588 508 569 525 q 622 463 606 492 q 648 415 639 433 q 676 349 657 396 q 703 282 694 303 q 807 64 769 115 q 899 13 844 13 l 915 13 q 928 7 928 13 q 924 1 929 4 l 913 0 l 865 0 q 805 -3 838 0 q 765 -6 772 -6 q 696 28 722 -6 q 600 238 660 74 q 515 446 540 400 q 414 528 467 526 q 326 490 369 528 l 232 389 l 232 360 q 233 160 232 222 q 244 60 235 99 q 266 17 254 22 q 307 13 278 13 l 338 13 q 346 6 346 13 q 338 0 346 0 z "},"L":{"ha":846,"x_min":10,"x_max":808,"o":"m 238 603 l 238 224 q 226 19 238 67 q 358 17 247 19 q 492 15 469 15 q 684 115 604 15 q 779 333 764 215 l 793 460 q 797 466 793 464 q 805 465 801 468 q 808 458 808 463 l 794 331 q 751 13 760 28 q 749 8 750 10 q 564 0 740 0 q 469 1 543 0 q 354 1 394 1 q 286 3 332 3 q 218 4 240 4 l 22 0 q 11 4 13 0 q 14 8 10 7 q 22 10 18 10 q 84 20 67 10 q 111 67 101 31 q 126 194 121 104 q 130 306 129 236 q 129 456 131 376 q 128 546 128 535 q 126 680 128 576 q 124 824 124 783 q 112 934 124 918 q 32 950 100 950 q 24 956 24 950 q 32 963 24 963 q 113 961 38 963 q 201 960 189 960 q 279 961 210 960 q 372 963 349 963 q 381 956 381 963 q 372 950 381 950 l 333 950 q 250 904 263 950 q 238 603 238 858 z "},"M":{"ha":1188,"x_min":13,"x_max":1164,"o":"m 560 293 l 547 293 q 536 303 542 293 l 154 860 l 153 360 q 162 192 153 261 q 183 90 171 124 q 218 37 196 56 q 256 15 240 18 q 299 13 272 13 l 318 13 q 324 10 322 13 q 324 3 326 7 q 318 0 322 0 q 219 2 294 0 q 135 4 143 4 q 85 2 126 4 q 22 0 44 0 q 15 6 15 0 q 24 13 17 11 l 32 13 q 87 29 68 13 q 120 125 106 46 q 135 360 135 204 q 135 629 135 449 q 136 839 136 810 q 118 899 136 879 q 28 951 71 951 l 21 951 q 15 954 17 951 q 15 960 13 957 q 21 963 17 963 q 126 965 85 963 q 183 969 168 967 l 199 972 q 213 964 208 972 q 268 878 236 921 l 603 385 l 885 824 q 909 863 896 842 q 930 897 922 885 q 946 924 938 910 q 960 946 954 939 q 972 960 965 953 q 983 969 978 967 q 994 972 989 972 q 1074 967 1004 972 q 1156 963 1143 963 q 1164 956 1164 963 q 1156 950 1164 950 l 1135 950 q 1094 945 1106 950 q 1072 902 1082 940 q 1061 802 1063 864 q 1060 603 1060 740 l 1060 360 q 1061 160 1060 222 q 1072 60 1063 99 q 1094 17 1082 22 q 1135 13 1106 13 l 1156 13 q 1164 6 1164 13 q 1156 0 1164 0 q 1074 2 1133 0 q 1007 4 1014 4 q 936 2 999 4 q 851 0 874 0 q 843 6 843 0 q 851 13 843 13 l 879 13 q 920 17 908 13 q 942 60 932 22 q 953 160 951 99 q 954 360 954 222 l 954 851 q 947 879 954 881 q 900 815 940 876 l 572 303 q 560 293 567 293 z "},"N":{"ha":994,"x_min":-10,"x_max":976,"o":"m 4 951 l -1 951 q -8 954 -6 951 q -8 960 -10 957 q -1 963 -6 963 q 111 964 63 963 q 183 967 160 965 l 206 968 q 219 960 215 968 q 274 886 233 933 l 851 168 l 851 603 q 840 769 851 700 q 815 872 829 838 q 777 926 801 907 q 736 947 753 944 q 693 950 719 950 l 674 950 q 665 956 665 950 q 674 963 665 963 q 774 960 696 963 q 860 958 851 958 q 907 960 868 958 q 968 963 946 963 q 976 956 976 963 q 968 950 976 950 l 958 950 q 904 935 919 950 q 879 845 889 919 q 869 603 869 771 l 869 10 q 858 -4 869 -4 q 824 26 846 -4 l 154 861 l 153 360 q 162 193 153 261 q 183 90 171 125 q 219 37 196 56 q 257 15 242 18 q 299 13 272 13 l 318 13 q 324 10 322 13 q 324 3 326 7 q 318 0 322 0 q 219 2 294 0 q 135 4 143 4 q 85 2 126 4 q 22 0 44 0 q 15 6 15 0 q 24 13 17 11 l 32 13 q 87 29 68 13 q 120 125 106 46 q 135 360 135 204 l 136 858 q 114 901 136 879 q 4 951 64 951 z "},"O":{"ha":1103,"x_min":60,"x_max":1042,"o":"m 185 481 q 278 131 185 263 q 539 0 372 0 q 814 133 710 0 q 918 481 918 267 q 822 830 918 697 q 558 963 725 963 q 287 829 389 963 q 185 481 185 696 m 60 481 q 206 835 60 693 q 553 976 351 976 q 897 833 751 976 q 1042 481 1042 690 q 893 129 1042 272 q 544 -14 744 -14 q 203 128 346 -14 q 60 481 60 271 z "},"P":{"ha":851,"x_min":18,"x_max":796,"o":"m 232 740 l 232 425 l 407 425 q 606 497 536 425 q 676 697 676 569 q 408 949 676 949 l 286 949 q 240 920 247 949 q 232 740 232 892 m 200 3 q 112 1 188 3 q 31 0 36 0 q 22 6 22 0 q 31 13 22 13 q 94 15 53 13 q 115 54 110 31 q 122 140 119 78 q 126 418 126 217 l 126 603 q 125 802 126 740 q 114 902 124 864 q 92 945 104 940 q 51 950 81 950 l 26 950 q 18 956 18 950 q 26 963 18 963 q 110 960 49 963 q 181 958 172 958 q 303 960 189 958 q 429 963 417 963 q 698 893 600 963 q 796 696 796 824 q 696 489 796 568 q 438 410 596 410 q 232 411 367 411 l 232 361 q 239 119 232 194 q 258 28 246 44 q 297 13 269 13 l 368 13 q 376 6 376 13 q 368 0 376 0 q 277 1 346 0 q 200 3 208 3 z "},"Q":{"ha":1103,"x_min":60,"x_max":1040,"o":"m 185 488 q 278 142 185 272 q 539 11 372 11 q 813 143 708 11 q 917 488 917 275 q 821 832 917 701 q 557 963 725 963 q 286 831 388 963 q 185 488 185 700 m 60 488 q 206 837 60 697 q 551 976 351 976 q 896 836 751 976 q 1040 488 1040 696 q 912 160 1040 296 q 600 3 783 24 q 627 -175 600 -118 q 735 -232 654 -232 q 849 -119 793 -232 q 857 -114 851 -114 q 865 -118 863 -114 q 865 -128 868 -122 q 657 -271 781 -271 q 524 -206 565 -271 q 483 4 483 -142 q 182 161 304 26 q 60 488 60 296 z "},"R":{"ha":892,"x_min":18,"x_max":915,"o":"m 232 740 l 232 514 q 349 515 258 515 q 512 571 440 515 q 583 735 583 626 q 526 897 583 844 q 340 950 468 950 l 286 950 q 240 921 247 950 q 232 740 232 892 m 183 3 q 103 1 172 3 q 31 0 35 0 q 22 6 22 0 q 31 13 22 13 q 94 15 75 13 q 115 54 110 31 q 122 140 119 78 q 126 418 126 217 l 126 603 q 125 802 126 740 q 114 902 124 864 q 92 945 104 940 q 51 950 81 950 l 26 950 q 18 956 18 950 q 26 963 18 963 q 110 960 49 963 q 181 958 172 958 q 265 960 189 958 q 351 963 340 963 q 707 735 707 963 q 620 591 707 651 q 411 510 533 531 q 551 463 500 507 q 668 282 601 418 q 762 102 728 157 q 823 30 796 47 q 894 13 850 13 l 904 13 q 915 6 914 13 q 904 0 915 0 l 854 0 q 796 -3 826 0 q 758 -6 765 -6 q 688 28 715 -6 q 572 238 640 82 q 504 381 532 331 q 442 458 476 431 q 378 492 408 485 q 289 500 347 499 l 232 500 l 232 360 q 233 160 232 222 q 244 60 235 99 q 266 17 254 22 q 307 13 278 13 l 335 13 q 343 6 343 13 q 335 0 343 0 q 251 1 313 0 q 183 3 190 3 z "},"S":{"ha":779,"x_min":60,"x_max":724,"o":"m 385 976 q 688 940 529 976 q 703 925 701 935 q 702 878 704 914 q 697 760 700 842 q 694 586 694 679 q 691 574 694 578 q 684 574 688 571 q 681 586 681 578 q 676 709 682 657 q 653 811 671 761 q 603 892 635 861 q 516 943 571 924 q 385 963 461 963 q 205 913 263 963 q 147 778 147 863 q 169 693 147 731 q 239 624 190 656 q 325 574 288 592 q 433 526 363 556 q 521 489 489 504 q 597 448 553 474 q 664 397 640 422 q 706 333 688 371 q 724 253 724 296 q 636 60 724 135 q 421 -14 549 -14 q 97 28 256 -14 q 83 42 83 32 q 83 219 83 74 q 82 397 82 364 q 85 411 82 407 q 93 411 89 415 q 97 397 97 407 q 174 99 97 197 q 421 0 251 0 q 585 51 531 0 q 640 188 640 101 q 631 249 640 221 q 597 301 621 276 q 555 341 574 325 q 494 378 536 357 q 431 408 451 399 q 360 439 411 418 q 247 488 290 467 q 156 542 204 508 q 83 617 107 575 q 60 713 60 660 q 153 905 60 833 q 385 976 247 976 z "},"T":{"ha":914,"x_min":36,"x_max":881,"o":"m 511 964 l 511 360 q 513 160 511 222 q 524 60 514 99 q 545 17 533 22 q 586 13 557 13 l 611 13 q 619 6 619 13 q 611 0 619 0 q 527 2 589 0 q 458 4 465 4 q 388 2 450 4 q 304 0 326 0 q 296 6 296 0 q 304 13 296 13 l 329 13 q 370 17 358 13 q 392 60 382 22 q 403 160 401 99 q 404 360 404 222 l 404 964 q 290 963 365 963 q 133 893 185 963 q 61 679 82 824 l 50 600 q 38 593 46 590 q 36 600 36 596 l 47 679 q 58 815 56 743 q 60 926 60 888 q 63 967 60 965 q 232 976 85 976 q 335 975 246 976 q 457 974 424 974 q 539 975 478 974 q 681 976 600 976 l 682 976 q 851 967 829 976 q 854 926 854 965 q 856 815 854 888 q 868 679 858 743 l 878 600 q 875 593 881 593 q 865 600 869 592 l 853 679 q 779 895 829 826 q 622 964 729 964 l 511 964 z "},"U":{"ha":924,"x_min":21,"x_max":915,"o":"m 788 339 l 788 603 q 777 769 788 700 q 753 872 767 838 q 715 926 739 907 q 675 947 692 944 q 632 950 658 950 l 619 950 q 611 956 611 950 q 619 963 611 963 q 715 960 642 963 q 796 958 788 958 q 844 960 804 958 q 907 963 885 963 q 915 956 915 963 q 907 950 915 950 l 897 950 q 854 944 868 950 q 828 904 840 938 q 811 801 815 871 q 807 603 807 731 l 807 339 q 711 90 807 193 q 454 -14 615 -14 q 212 83 301 -14 q 122 350 122 181 l 122 603 q 121 803 122 740 q 110 903 119 865 q 89 945 100 940 q 49 950 78 950 l 29 950 q 21 956 21 950 q 29 963 21 963 q 110 960 51 963 q 176 958 168 958 q 245 960 183 958 q 329 963 307 963 q 338 956 338 963 q 329 950 338 950 l 304 950 q 263 944 275 950 q 242 903 251 939 q 230 802 232 867 q 228 603 228 738 l 226 388 q 306 125 226 219 q 524 31 385 31 q 712 119 636 31 q 788 339 788 208 z "},"V":{"ha":961,"x_min":-10,"x_max":971,"o":"m 528 140 q 535 133 531 133 q 542 140 539 133 l 747 676 q 797 883 797 811 q 776 933 797 914 q 719 951 756 951 q 698 949 714 951 q 681 946 682 946 q 671 954 671 946 q 688 963 671 963 q 767 961 700 963 q 846 960 835 960 q 897 961 853 960 q 961 963 942 963 q 967 956 971 963 q 958 950 964 951 l 956 950 q 856 867 900 950 q 763 669 808 786 l 507 0 q 497 -4 506 -4 l 483 -4 q 472 0 475 -4 l 207 671 q 91 913 117 875 q 11 950 65 950 l 0 950 q -10 956 -10 950 q -1 963 -10 963 q 74 960 21 963 q 136 958 128 958 q 213 960 144 958 q 304 963 282 963 q 315 956 314 963 q 308 950 313 951 l 279 950 q 231 926 235 950 q 319 671 224 886 q 324 661 321 667 l 528 140 z "},"W":{"ha":1364,"x_min":-14,"x_max":1386,"o":"m 515 133 l 675 486 l 567 740 q 496 889 518 850 q 456 939 474 928 q 400 950 439 950 l 389 950 q 379 956 379 950 q 388 963 379 963 q 463 960 410 963 q 525 958 517 958 q 595 960 533 958 q 679 963 657 963 q 688 956 688 963 q 679 950 688 950 l 668 950 q 621 915 621 950 q 678 725 621 860 l 738 586 l 794 725 q 836 885 836 819 q 788 951 836 951 q 768 949 781 951 q 754 947 756 947 q 746 954 746 947 q 761 963 746 963 q 826 961 774 963 q 890 960 879 960 q 956 961 897 960 q 1032 963 1014 963 q 1040 957 1039 963 q 1032 950 1038 951 l 996 950 q 902 898 943 950 q 811 719 861 846 l 746 565 l 935 126 q 942 119 938 119 q 947 126 944 119 l 1158 676 q 1207 882 1207 807 q 1136 951 1207 951 q 1115 949 1131 951 q 1097 946 1100 946 q 1088 954 1088 946 q 1104 963 1088 963 q 1183 961 1118 963 q 1260 960 1249 960 q 1313 961 1268 960 q 1378 963 1358 963 q 1386 957 1385 963 q 1378 950 1383 951 l 1374 950 q 1278 884 1324 950 q 1176 669 1233 818 l 917 -1 q 907 -6 914 -6 l 893 -6 q 883 -1 885 -6 l 683 464 l 475 0 q 467 -4 472 -4 l 456 -4 q 444 0 447 -4 l 189 674 q 107 867 135 813 q 58 935 79 921 q -3 950 38 950 l -6 950 q -14 956 -14 950 q -7 963 -14 963 q 65 960 15 963 q 122 958 114 958 q 213 960 131 958 q 317 963 294 963 q 326 956 326 963 q 318 950 325 950 l 282 950 q 221 911 224 950 q 324 603 221 867 l 503 133 q 510 126 506 126 q 515 133 513 126 z "},"X":{"ha":949,"x_min":-10,"x_max":958,"o":"m 421 697 l 511 554 l 607 686 q 718 910 718 840 q 660 950 718 950 q 635 948 653 950 q 617 946 618 946 q 610 953 607 946 q 629 961 613 961 q 716 960 640 961 q 803 958 792 958 q 856 960 811 958 q 919 961 901 961 q 928 955 928 961 q 919 949 928 949 l 917 949 q 783 875 844 949 q 622 679 722 814 l 519 540 l 678 289 q 807 97 760 157 q 876 24 854 36 q 935 11 899 11 l 947 11 q 958 6 958 11 q 950 -1 958 -1 q 869 1 925 -1 q 806 3 814 3 q 724 1 797 3 q 629 -1 651 -1 q 617 6 618 -1 q 622 11 618 10 l 653 11 q 699 35 699 11 q 558 292 700 76 q 553 299 556 294 l 447 467 l 313 281 q 208 76 208 136 q 227 29 208 49 q 274 10 246 10 q 313 14 288 10 l 338 17 q 344 7 346 17 q 324 -1 342 -1 q 220 0 311 -1 q 118 1 129 1 q 65 0 111 1 q -1 -1 19 -1 q -10 4 -8 -1 q 0 11 -10 11 l 10 11 q 121 69 65 11 q 288 276 176 126 q 292 283 290 281 q 296 289 294 286 l 438 482 l 321 669 q 219 829 251 781 q 157 909 186 878 q 113 944 128 940 q 65 949 97 949 l 54 949 q 42 954 42 949 q 51 961 42 961 q 131 959 75 961 q 194 957 186 957 q 274 959 203 957 q 371 961 346 961 q 382 954 381 961 q 376 949 381 950 l 346 949 q 301 928 304 949 q 421 697 297 889 z "},"Y":{"ha":854,"x_min":-4,"x_max":881,"o":"m 638 707 l 485 440 l 485 360 q 486 160 485 222 q 497 60 488 99 q 519 17 507 22 q 560 13 531 13 l 585 13 q 593 6 593 13 q 585 0 593 0 q 502 2 563 0 q 433 4 442 4 q 365 2 426 4 q 281 0 303 0 q 272 6 272 0 q 281 13 272 13 l 306 13 q 347 17 335 13 q 368 60 358 22 q 379 160 378 99 q 381 360 381 222 l 381 436 l 231 707 q 108 903 147 857 q 17 950 68 950 l 6 950 q -4 956 -4 950 q 4 963 -4 963 q 80 960 26 963 q 142 958 133 958 q 219 960 150 958 q 310 963 288 963 q 321 956 319 963 q 314 950 318 951 l 285 950 q 249 938 258 950 q 249 894 240 926 q 280 819 258 863 q 343 700 301 776 l 475 457 l 622 711 q 652 772 638 738 q 676 850 667 807 q 669 922 686 893 q 606 951 653 951 q 585 949 600 951 q 567 946 569 946 q 557 954 557 946 q 574 963 557 963 q 647 961 586 963 q 719 960 708 960 q 790 961 726 960 q 871 963 853 963 q 876 956 881 963 q 868 950 874 951 l 865 950 q 777 897 829 950 q 693 795 725 843 q 638 707 661 747 z "},"Z":{"ha":868,"x_min":39,"x_max":799,"o":"m 115 701 l 101 554 q 97 548 101 550 q 89 549 93 546 q 85 556 85 551 l 100 701 q 131 957 121 951 q 197 963 143 963 q 436 960 226 963 q 653 958 646 958 q 710 960 661 958 q 779 963 758 963 q 794 961 792 963 q 794 949 797 960 l 179 19 q 336 17 203 19 q 492 15 469 15 q 685 99 607 15 q 775 296 763 183 l 785 433 q 789 440 785 438 q 796 439 793 442 q 799 432 799 436 l 790 293 q 757 6 768 17 q 572 0 751 0 q 472 1 553 0 q 344 1 390 1 q 267 3 319 3 q 189 4 215 4 l 53 -4 q 53 18 39 -4 l 665 946 l 408 946 q 208 881 286 944 q 115 701 129 817 z "},"[":{"ha":556,"x_min":154,"x_max":567,"o":"m 154 -375 l 158 342 l 154 1071 q 164 1082 154 1082 q 264 1081 196 1082 q 368 1081 332 1081 q 463 1081 400 1081 q 558 1082 525 1082 q 565 1078 563 1082 q 565 1072 567 1075 q 558 1068 563 1068 q 453 1068 522 1067 q 364 1069 385 1069 l 204 1069 q 194 1065 194 1069 l 196 342 l 194 -369 q 204 -374 194 -374 l 364 -374 q 453 -372 385 -374 q 558 -372 522 -371 q 565 -376 563 -372 q 565 -383 567 -379 q 558 -386 563 -386 q 463 -385 525 -386 q 368 -385 400 -385 q 264 -385 332 -385 q 164 -386 196 -386 q 154 -375 154 -386 z "},"\\":{"ha":494,"x_min":-67,"x_max":576,"o":"m 249 343 q -67 1081 58 821 q -28 1086 -47 1092 q 116 727 10 992 q 267 349 222 463 q 576 -375 474 -154 q 569 -379 572 -378 q 565 -382 567 -381 q 559 -383 563 -383 q 554 -382 556 -382 q 547 -380 553 -382 q 538 -376 542 -378 q 249 343 331 146 z "},"]":{"ha":556,"x_min":-11,"x_max":401,"o":"m 397 342 l 401 -375 q 392 -386 401 -386 q 292 -385 360 -386 q 188 -385 224 -385 q 93 -385 156 -385 q -3 -386 31 -386 q -9 -383 -7 -386 q -9 -376 -11 -379 q -3 -372 -7 -372 q 102 -372 33 -371 q 192 -374 171 -374 l 351 -374 q 361 -369 361 -374 l 360 342 l 361 1065 q 351 1069 361 1069 l 192 1069 q 102 1068 171 1069 q -3 1068 33 1067 q -9 1072 -7 1068 q -9 1078 -11 1075 q -3 1082 -7 1082 q 93 1081 31 1082 q 188 1081 156 1081 q 292 1081 224 1081 q 392 1082 360 1082 q 401 1071 401 1082 l 397 342 z "},"^":{"ha":1124,"x_min":385,"x_max":781,"o":"m 583 615 q 574 615 578 621 l 460 446 q 413 419 440 419 q 385 439 385 419 q 410 479 385 451 q 572 628 479 558 q 585 628 578 633 q 753 493 685 551 q 781 453 781 467 q 772 433 781 443 q 749 424 763 424 q 700 453 721 424 q 583 615 681 481 z "},"_":{"ha":942,"x_min":88,"x_max":851,"o":"m 468 -28 q 844 -19 708 -28 q 851 -37 851 -25 q 844 -53 851 -49 q 469 -43 669 -43 q 94 -53 269 -43 q 88 -37 88 -49 q 94 -19 88 -25 q 468 -28 231 -28 z "},"`":{"ha":1124,"x_min":443,"x_max":676,"o":"m 665 746 q 542 853 622 790 l 460 915 q 443 939 443 928 q 447 965 443 961 q 472 969 451 969 q 506 961 497 969 q 537 918 510 957 q 602 831 564 879 q 672 754 640 783 q 676 749 676 750 q 671 743 676 743 q 665 746 668 743 z "},"a":{"ha":714,"x_min":44,"x_max":738,"o":"m 142 181 q 188 86 142 126 q 286 46 233 46 q 415 118 339 46 q 500 231 490 190 q 508 431 508 339 l 508 460 l 394 411 q 191 302 240 347 q 142 181 142 257 m 217 -15 q 90 29 136 -15 q 44 140 44 74 q 392 425 44 290 l 507 469 q 469 647 501 597 q 358 696 436 696 q 283 676 317 696 q 235 638 250 657 q 202 583 221 618 q 179 542 183 547 q 117 517 163 517 q 61 549 61 517 q 110 614 61 583 q 238 678 161 649 q 381 708 314 708 q 553 647 490 708 q 615 456 615 586 q 610 290 615 404 q 604 151 604 175 q 643 33 604 33 q 683 59 660 33 q 718 110 706 85 q 727 115 721 115 q 735 109 733 114 q 735 99 738 104 q 661 27 715 68 q 571 -14 607 -14 q 492 85 492 -14 q 497 199 492 160 q 372 61 461 138 q 217 -15 282 -15 z "},"b":{"ha":822,"x_min":-6,"x_max":768,"o":"m 429 17 q 604 98 543 17 q 665 332 665 179 q 638 490 665 417 q 549 613 610 564 q 407 663 489 663 q 291 630 349 663 q 197 543 233 597 l 197 147 q 429 17 311 17 m 93 11 l 93 946 q 74 1042 93 1028 q 4 1040 56 1056 q -4 1044 -3 1039 q 1 1053 -6 1050 l 4 1053 q 55 1067 29 1057 q 96 1085 81 1076 q 136 1108 111 1093 q 172 1129 161 1124 q 186 1128 175 1132 q 197 1119 197 1125 l 197 558 q 320 669 246 629 q 475 708 394 708 q 682 616 596 708 q 768 382 768 524 q 647 101 768 215 q 371 -14 526 -14 q 160 69 251 -14 q 100 -1 108 -1 q 93 11 93 -1 z "},"c":{"ha":753,"x_min":51,"x_max":767,"o":"m 142 382 q 231 153 142 243 q 460 64 319 64 q 626 110 557 64 q 750 254 696 157 q 760 260 754 261 q 761 250 767 257 q 597 61 699 136 q 385 -14 496 -14 q 144 79 238 -14 q 51 319 51 172 q 173 589 51 469 q 447 708 294 708 q 612 676 544 708 q 679 604 679 643 q 660 565 679 583 q 611 547 642 547 q 571 567 593 547 q 529 613 549 588 q 472 658 510 638 q 389 678 435 678 q 212 599 282 678 q 142 382 142 519 z "},"d":{"ha":832,"x_min":50,"x_max":810,"o":"m 390 678 q 211 599 275 678 q 147 368 147 519 q 176 210 147 285 q 268 83 206 135 q 413 32 331 32 q 532 68 475 32 q 626 164 589 104 l 626 540 q 562 603 585 582 q 488 651 539 624 q 390 678 438 678 m 626 643 l 626 946 q 609 1047 626 1031 q 535 1053 592 1063 q 526 1057 528 1051 q 532 1065 525 1063 l 535 1065 q 703 1129 610 1078 q 718 1128 706 1132 q 731 1119 731 1125 l 731 165 q 741 36 731 60 q 801 13 751 13 q 810 6 810 13 q 801 0 810 0 q 633 -14 699 0 q 617 -1 617 -18 q 619 21 617 1 q 624 74 621 40 q 626 142 626 107 q 501 27 576 68 q 342 -14 425 -14 q 135 78 221 -14 q 50 313 50 171 q 172 593 50 478 q 449 708 293 708 q 626 643 542 708 z "},"e":{"ha":717,"x_min":47,"x_max":828,"o":"m 486 494 q 542 507 529 494 q 554 551 554 522 q 511 637 554 596 q 394 678 468 678 q 238 630 303 678 q 144 489 172 582 q 340 492 231 489 q 486 494 449 494 m 396 -14 q 143 79 239 -14 q 47 319 47 172 q 167 591 47 474 q 433 708 286 708 q 556 688 504 708 q 633 638 608 668 q 668 577 658 607 q 675 521 678 547 q 617 478 668 478 l 142 478 q 131 371 131 422 q 228 155 131 243 q 467 67 326 67 q 671 135 588 67 q 815 336 754 204 q 826 346 821 351 q 825 333 828 342 q 652 87 763 188 q 396 -14 542 -14 z "},"f":{"ha":411,"x_min":17,"x_max":635,"o":"m 346 694 l 360 694 q 408 692 408 694 q 400 677 408 688 q 372 647 392 667 q 343 617 351 626 q 279 617 325 617 q 208 618 233 618 l 208 338 q 210 153 208 218 q 223 32 210 51 q 299 13 236 13 q 307 6 307 13 q 299 0 307 0 q 222 1 275 0 q 160 3 168 3 q 100 1 151 3 q 25 0 49 0 q 17 6 17 0 q 25 13 17 13 q 94 35 82 13 q 106 153 106 57 q 104 376 104 236 l 104 604 l 104 618 l 47 618 q 28 626 28 618 l 76 693 l 113 693 q 261 968 146 851 q 493 1085 376 1085 q 591 1074 547 1085 q 635 1049 635 1063 q 613 1003 635 1028 q 560 978 590 978 q 474 991 542 978 q 360 1004 406 1004 q 208 693 210 1004 q 274 694 229 693 q 346 694 319 694 z "},"g":{"ha":697,"x_min":-3,"x_max":708,"o":"m 194 298 q 216 265 194 298 q 322 232 238 232 q 452 290 407 232 q 497 457 497 347 q 451 622 497 551 q 328 692 406 692 q 150 469 150 692 q 194 298 150 364 m 310 -346 l 315 -346 q 558 -282 450 -346 q 667 -126 667 -218 q 613 -33 667 -61 q 440 -6 560 -6 l 260 -6 q 113 -83 168 -33 q 58 -192 58 -133 q 124 -306 58 -267 q 310 -346 189 -346 m 646 672 q 532 685 632 672 q 375 697 432 697 l 375 694 q 541 616 482 679 q 600 457 600 553 q 517 283 600 349 q 307 218 435 218 l 282 218 q 118 143 118 204 q 160 94 118 106 q 303 83 201 83 l 489 83 q 653 40 600 83 q 707 -67 707 -3 q 633 -237 707 -153 q 447 -372 558 -321 q 226 -422 335 -422 q 58 -373 119 -422 q -3 -246 -3 -324 q 67 -105 -3 -171 q 229 -4 136 -39 q 44 89 44 3 q 101 172 44 135 q 242 224 157 210 q 98 299 150 240 q 46 454 46 357 q 130 633 46 560 q 336 706 214 706 q 540 732 417 706 q 668 758 664 758 q 708 738 708 758 q 690 694 708 717 q 646 672 672 672 z "},"h":{"ha":775,"x_min":-1,"x_max":757,"o":"m 168 3 q 108 1 160 3 q 35 0 57 0 q 26 6 26 0 q 35 13 26 13 q 88 37 79 13 q 97 165 97 61 l 97 946 q 90 1030 97 1006 q 63 1058 82 1054 q 8 1054 43 1061 q 0 1058 1 1053 q 6 1067 -1 1064 l 8 1067 q 176 1129 86 1081 q 190 1128 179 1132 q 201 1119 201 1125 l 201 560 q 456 708 313 708 q 682 426 682 708 l 682 69 q 696 21 682 31 q 749 13 710 11 q 757 6 757 13 q 749 0 757 0 q 691 1 744 0 q 625 3 638 3 q 571 1 617 3 q 503 0 525 0 q 494 6 494 0 q 503 13 494 13 q 551 19 538 13 q 570 57 564 26 q 576 163 576 88 l 576 440 q 529 613 576 560 q 410 667 482 667 q 298 638 344 667 q 201 543 251 610 l 201 13 l 286 13 q 294 6 294 13 q 286 0 294 0 q 231 1 282 0 q 168 3 181 3 z "},"i":{"ha":429,"x_min":28,"x_max":793,"o":"m 419 814 l 411 822 q 746 1207 644 1063 q 779 1211 761 1225 q 778 1183 793 1199 q 419 814 717 1114 m 406 597 q 381 529 406 572 q 313 426 356 486 q 256 343 269 367 q 224 292 247 329 q 190 239 200 256 q 167 196 181 222 q 147 151 153 169 q 143 118 142 133 q 203 67 144 88 q 369 188 272 90 l 378 178 q 163 4 261 64 q 122 -1 153 -1 q 86 6 92 0 q 46 54 61 24 q 29 108 31 85 q 35 147 28 125 q 58 201 42 169 q 86 253 75 233 q 123 313 97 272 q 156 365 149 354 q 217 462 182 410 q 267 540 251 514 q 288 588 282 567 q 278 626 293 606 q 246 649 263 646 q 168 604 221 640 q 74 532 115 568 l 64 539 q 293 713 139 614 q 339 717 317 728 q 383 665 361 707 q 406 597 406 624 z "},"j":{"ha":310,"x_min":-144,"x_max":221,"o":"m 96 849 q 85 859 96 849 q 75 900 75 869 q 96 952 75 931 q 147 974 117 974 q 199 952 178 974 q 221 900 221 931 q 199 849 221 869 q 147 828 178 828 q 96 849 117 828 m 206 699 l 207 68 q 168 -87 204 -15 q 60 -246 132 -158 q -89 -362 -35 -362 q -114 -360 -94 -362 q -144 -335 -144 -354 q -127 -292 -144 -315 q -87 -262 -110 -269 q -65 -260 -76 -260 q -25 -260 -49 -260 q 1 -261 -1 -261 q 46 -244 29 -261 l 53 -236 q 62 -226 60 -229 q 70 -210 64 -222 q 80 -185 76 -197 q 88 -152 83 -174 q 96 -106 93 -131 q 101 -47 99 -82 q 103 31 103 -11 l 103 524 q 85 614 103 599 q 11 618 67 629 q 1 621 3 615 q 7 629 -1 626 q 181 708 93 647 q 194 708 183 711 q 206 699 206 704 z "},"k":{"ha":767,"x_min":-1,"x_max":786,"o":"m 778 0 l 647 0 q 594 14 615 0 q 458 199 546 44 l 344 389 l 201 243 l 201 13 l 286 13 q 294 6 294 13 q 286 0 294 0 q 231 1 282 0 q 168 3 181 3 q 108 1 160 3 q 35 0 57 0 q 26 6 26 0 q 35 13 26 13 q 88 37 79 13 q 97 165 97 61 l 97 946 q 90 1030 97 1006 q 63 1058 82 1054 q 8 1054 43 1061 q 0 1058 1 1053 q 6 1067 -1 1064 l 8 1067 q 176 1129 86 1081 q 190 1128 179 1132 q 201 1119 201 1125 l 201 260 l 419 485 q 507 658 538 607 q 454 681 494 681 q 448 683 450 681 q 448 690 446 686 q 454 693 450 693 q 531 692 475 693 q 593 690 586 690 q 672 692 604 690 q 744 693 740 693 q 751 690 749 693 q 751 683 753 686 q 744 681 749 681 q 606 632 679 681 q 429 476 532 583 l 411 458 l 546 244 q 680 64 626 115 q 778 13 733 13 q 786 7 785 13 q 778 0 785 1 z "},"l":{"ha":301,"x_min":-1,"x_max":292,"o":"m 219 1 q 198 2 219 1 q 168 3 176 3 q 108 1 160 3 q 35 0 57 0 q 26 6 26 0 q 35 13 26 13 q 88 37 79 13 q 97 165 97 61 l 97 946 q 90 1030 97 1006 q 63 1058 82 1054 q 8 1054 43 1061 q 0 1058 1 1053 q 6 1067 -1 1064 l 8 1067 q 176 1129 86 1081 q 190 1128 179 1132 q 201 1119 201 1125 l 201 165 q 214 35 201 57 q 283 13 226 13 q 292 6 292 13 q 283 0 292 0 q 219 1 261 0 z "},"m":{"ha":1238,"x_min":28,"x_max":1224,"o":"m 36 0 q 28 6 28 0 q 36 13 28 13 q 73 14 63 13 q 92 33 83 15 q 101 77 100 51 q 101 165 101 103 l 101 524 q 38 629 101 571 q 38 638 31 636 q 139 696 106 663 q 147 694 142 699 q 203 556 201 640 q 315 670 257 632 q 450 708 374 708 q 661 551 613 708 q 776 669 718 631 q 913 708 835 708 q 1080 643 1015 708 q 1144 426 1144 578 l 1144 69 q 1155 21 1144 29 q 1215 13 1165 13 q 1224 6 1224 13 q 1215 0 1224 0 q 1156 1 1211 0 q 1088 3 1100 3 q 1024 1 1079 3 q 944 0 968 0 q 936 6 936 0 q 944 13 936 13 q 1028 32 1015 13 q 1040 163 1040 51 l 1040 440 q 990 613 1040 560 q 867 667 940 667 q 779 647 818 667 q 719 605 740 628 q 667 538 699 582 l 667 69 q 682 22 667 31 q 750 13 697 13 q 758 6 758 13 q 750 0 758 0 q 688 1 746 0 q 617 3 629 3 q 555 1 608 3 q 478 0 501 0 q 469 6 469 0 q 478 13 469 13 q 514 13 503 13 q 537 19 525 13 q 552 31 549 26 q 559 59 556 36 q 563 100 563 82 q 563 163 563 118 l 563 440 q 519 614 563 561 q 404 667 475 667 q 297 638 340 667 q 204 540 253 608 l 204 13 l 286 13 q 294 6 294 13 q 286 0 294 0 q 233 1 282 0 q 172 3 185 3 q 112 1 164 3 q 36 0 60 0 z "},"n":{"ha":781,"x_min":31,"x_max":763,"o":"m 688 426 l 688 136 q 695 49 688 76 q 714 17 703 22 q 754 13 725 13 q 763 6 763 13 q 754 0 763 0 q 697 1 750 0 q 631 3 643 3 q 578 1 622 3 q 513 0 535 0 q 504 6 504 0 q 513 13 504 13 q 571 35 557 13 q 585 144 585 57 l 583 440 q 535 613 583 560 q 415 667 486 667 q 303 637 351 667 q 206 540 256 607 l 206 13 l 278 13 q 286 6 286 13 q 278 0 286 0 q 229 1 274 0 q 172 3 185 3 q 113 1 164 3 q 39 0 61 0 q 31 6 31 0 q 39 13 31 13 q 92 37 83 13 q 101 165 101 61 l 101 524 q 38 629 101 571 q 38 638 31 636 q 139 696 106 663 q 147 694 142 699 q 204 557 197 644 q 461 708 318 708 q 688 426 688 708 z "},"o":{"ha":807,"x_min":50,"x_max":758,"o":"m 418 1 q 587 90 528 1 q 646 335 646 178 q 577 584 646 474 q 400 694 508 694 q 224 605 282 694 q 165 357 165 515 q 235 110 165 218 q 418 1 304 1 m 394 -14 q 148 82 246 -14 q 50 333 50 178 q 154 598 50 488 q 417 708 258 708 q 662 612 565 708 q 758 357 758 515 q 653 101 758 217 q 394 -14 547 -14 z "},"p":{"ha":828,"x_min":-8,"x_max":774,"o":"m 204 144 q 267 86 240 108 q 341 40 293 64 q 435 17 389 17 q 610 98 549 17 q 671 332 671 179 q 643 490 671 417 q 555 613 615 564 q 413 663 494 663 q 298 631 354 663 q 206 546 242 600 q 205 363 206 493 q 204 144 204 232 m 206 704 l 206 563 q 328 669 254 631 q 481 708 401 708 q 688 616 601 708 q 774 382 774 524 q 653 101 774 215 q 376 -14 532 -14 q 204 38 283 -14 l 204 -365 l 303 -365 q 311 -372 311 -365 q 303 -378 311 -378 q 235 -376 300 -378 q 160 -375 171 -375 q 87 -376 151 -375 q 0 -378 22 -378 q -8 -372 -8 -378 q 0 -365 -8 -365 q 87 -340 71 -365 q 103 -203 103 -315 l 103 531 q 93 611 103 589 q 62 632 83 633 q 6 625 40 631 q -3 629 -1 624 q 6 638 -4 636 q 66 651 38 640 q 135 688 94 663 q 181 714 176 713 q 194 713 183 717 q 206 704 206 710 z "},"q":{"ha":818,"x_min":49,"x_max":821,"o":"m 386 678 q 209 599 272 678 q 146 368 146 519 q 219 136 146 240 q 410 32 293 32 q 525 64 468 32 q 618 151 582 96 l 618 547 q 573 590 592 574 q 522 631 554 607 q 456 666 490 654 q 386 678 421 678 m 722 690 l 722 -178 q 740 -274 722 -261 q 811 -271 758 -286 q 819 -275 818 -269 q 811 -283 821 -282 q 761 -297 786 -287 q 720 -316 736 -307 q 680 -340 704 -325 q 644 -360 656 -354 q 630 -359 642 -362 q 618 -350 618 -356 l 618 132 q 494 24 568 63 q 340 -14 421 -14 q 130 76 211 -14 q 49 313 49 167 q 169 594 49 479 q 444 708 289 708 q 653 626 558 708 q 714 700 706 700 q 722 690 722 700 z "},"r":{"ha":454,"x_min":21,"x_max":440,"o":"m 299 685 q 378 708 335 708 q 440 683 440 708 q 422 636 440 661 q 371 611 403 611 l 319 611 q 227 589 244 611 q 210 478 210 567 l 210 13 l 294 13 q 303 6 303 13 q 294 0 303 0 q 237 1 290 0 q 171 3 183 3 q 107 1 163 3 q 29 0 51 0 q 21 6 21 0 q 29 13 21 13 q 94 36 81 13 q 107 165 107 60 l 107 524 q 43 629 107 571 q 43 638 36 636 q 139 696 103 660 q 147 694 142 699 q 207 567 199 646 q 299 685 225 633 z "},"s":{"ha":617,"x_min":51,"x_max":578,"o":"m 54 501 q 133 655 54 601 q 311 708 213 708 q 397 706 363 708 q 480 694 431 703 q 543 685 529 686 q 553 674 553 683 q 549 553 553 651 q 546 431 546 456 q 540 422 546 422 q 535 431 535 422 q 483 630 535 563 q 313 697 431 697 q 174 664 226 697 q 121 576 121 631 q 134 526 121 550 q 165 488 147 503 q 217 456 183 472 q 274 430 250 439 q 340 407 299 421 q 412 381 389 390 q 473 352 435 372 q 529 314 511 332 q 563 266 547 296 q 578 200 578 236 q 506 47 578 108 q 329 -14 435 -14 q 233 -8 279 -14 q 163 5 188 -1 q 105 22 139 11 q 61 36 71 33 q 51 56 51 38 q 53 82 51 60 q 58 160 56 104 q 60 303 60 215 q 63 311 60 308 q 68 311 65 314 q 71 303 71 308 q 128 73 71 147 q 329 -1 186 -1 q 510 138 510 -1 q 496 189 510 165 q 466 228 482 213 q 414 260 450 243 q 357 284 378 276 q 289 307 336 292 q 117 384 179 340 q 54 501 54 428 z "},"t":{"ha":453,"x_min":10,"x_max":450,"o":"m 200 828 l 200 693 q 292 694 219 693 q 388 694 365 694 q 436 692 436 696 q 368 617 436 678 q 296 617 367 617 q 197 618 225 618 l 197 182 q 288 29 197 29 q 368 67 331 29 q 429 174 406 104 q 437 179 431 179 q 447 175 443 179 q 447 165 450 171 q 352 38 410 89 q 226 -14 294 -14 q 124 32 156 -14 q 93 178 93 78 l 93 618 l 17 618 q 17 625 10 618 l 194 829 q 200 828 200 835 z "},"u":{"ha":776,"x_min":-6,"x_max":760,"o":"m 93 268 l 93 524 q 77 623 93 608 q 4 628 61 638 q -4 632 -3 626 q 4 640 -6 639 q 174 703 85 654 q 188 702 176 706 q 199 693 199 699 l 199 254 q 245 81 199 135 q 363 28 292 28 q 474 57 426 28 q 574 154 522 86 l 574 524 q 558 623 574 608 q 485 628 542 638 q 476 632 478 626 q 482 640 475 638 q 485 640 483 640 q 653 703 563 654 q 667 702 656 706 q 678 693 678 699 l 678 165 q 689 36 678 60 q 751 13 700 13 q 758 10 756 13 q 758 3 760 7 q 751 0 756 0 q 571 -14 700 0 q 561 -12 563 -15 q 560 -1 560 -10 q 563 20 560 1 q 570 71 567 39 q 574 138 574 103 q 317 -14 460 -14 q 93 268 93 -14 z "},"v":{"ha":738,"x_min":-32,"x_max":767,"o":"m 589 478 l 386 -3 q 381 -6 383 -6 l 358 -6 q 353 -3 356 -6 l 131 507 q 53 651 82 619 q -24 682 24 682 q -30 685 -28 682 q -30 692 -32 689 q -24 694 -28 694 q 42 693 -19 694 q 115 692 104 692 q 180 692 122 692 q 257 693 238 693 q 265 688 265 693 q 257 682 265 682 q 190 659 196 682 q 222 546 183 636 l 415 101 l 576 486 q 601 636 617 590 q 517 681 585 682 q 508 687 508 681 q 517 693 508 693 q 585 692 536 693 q 640 692 633 692 q 703 693 651 692 q 758 694 754 694 q 765 692 763 694 q 765 685 767 689 q 758 682 763 682 q 672 633 711 683 q 589 478 633 583 z "},"w":{"ha":1151,"x_min":-28,"x_max":1183,"o":"m 779 -3 l 567 536 l 340 -3 q 336 -6 338 -6 l 321 -6 q 315 -3 318 -6 l 129 504 q 61 651 89 619 q -22 682 33 682 q -28 688 -28 682 q -22 694 -28 694 q 37 693 -19 694 q 103 692 93 692 q 178 693 110 692 q 265 694 247 694 q 272 692 269 694 q 272 685 274 689 q 265 682 269 682 q 208 675 222 682 q 197 640 194 668 q 222 546 199 613 l 376 126 l 550 531 q 551 576 554 544 q 538 626 549 607 q 449 682 510 682 q 440 689 440 682 q 447 694 440 694 q 519 693 465 694 q 578 692 572 692 q 636 693 585 692 q 704 694 688 694 q 714 688 714 694 q 706 682 713 682 q 640 663 646 682 q 671 546 635 644 l 839 118 l 988 488 q 1010 601 1018 558 q 976 663 1003 644 q 907 682 950 682 q 899 689 899 682 q 906 694 899 694 q 984 693 925 694 q 1049 692 1043 692 q 1114 693 1057 692 q 1175 694 1171 694 q 1183 688 1183 694 q 1176 682 1183 682 q 1082 639 1118 682 q 1000 478 1046 596 l 807 -3 q 799 -6 804 -6 l 785 -6 q 779 -3 782 -6 z "},"x":{"ha":738,"x_min":-1,"x_max":747,"o":"m 411 390 l 546 190 q 635 65 604 101 q 683 21 665 29 q 738 13 701 13 q 746 6 746 13 q 740 0 747 0 q 678 1 736 0 q 611 3 621 3 q 534 1 603 3 q 446 0 465 0 q 436 7 436 0 q 443 13 436 13 q 505 19 490 13 q 510 54 519 25 q 457 149 501 83 l 336 326 l 243 208 q 176 71 176 121 q 247 13 176 13 q 256 6 256 13 q 247 0 256 0 q 174 1 228 0 q 115 3 121 3 q 58 1 104 3 q 7 0 11 0 q 1 3 3 0 q 1 9 -1 6 q 7 13 3 13 q 235 218 75 11 l 329 339 l 218 504 q 106 656 136 629 q 24 682 75 682 q 15 689 15 682 q 21 694 14 694 q 84 693 22 694 q 157 692 146 692 q 225 693 165 692 q 304 694 285 694 q 314 688 314 694 q 307 682 314 682 q 243 668 249 682 q 306 546 239 647 l 403 401 l 465 485 q 540 638 543 588 q 465 681 539 681 q 459 683 461 681 q 459 690 457 686 q 465 693 461 693 q 536 692 486 693 q 593 690 586 690 q 657 692 604 690 q 714 693 710 693 q 720 690 718 693 q 720 683 722 686 q 714 681 718 681 q 612 633 667 682 q 476 476 557 583 l 411 390 z "},"y":{"ha":746,"x_min":-42,"x_max":774,"o":"m 163 -189 q 265 -156 222 -189 q 350 -24 307 -124 l 365 11 l 144 500 q 60 653 88 624 q -18 682 33 682 q -24 685 -22 682 q -24 692 -26 689 q -18 694 -22 694 q 47 693 -14 694 q 119 692 107 692 q 187 693 126 692 q 268 694 247 694 q 276 688 276 694 q 268 682 276 682 q 199 658 206 682 q 233 542 192 633 l 418 132 l 574 482 q 597 632 615 582 q 510 682 579 682 q 501 688 501 682 q 510 694 501 694 q 583 693 532 694 q 640 692 633 692 q 706 693 653 692 q 765 694 760 694 q 772 692 769 694 q 772 685 774 689 q 765 682 769 682 q 676 631 718 683 q 586 474 633 579 l 364 -26 q 241 -208 310 -150 q 74 -267 172 -267 q -11 -251 19 -267 q -42 -212 -42 -235 q -19 -171 -42 -193 q 35 -149 4 -149 q 97 -169 58 -149 q 163 -189 136 -189 z "},"z":{"ha":701,"x_min":22,"x_max":654,"o":"m 75 426 l 71 340 q 67 334 71 336 q 61 334 64 332 q 58 340 58 336 l 63 426 q 78 689 74 688 q 143 694 90 694 q 347 693 171 694 q 529 692 522 692 q 582 694 540 692 q 633 696 624 696 q 633 667 654 696 l 150 17 q 261 15 183 17 q 353 14 339 14 q 552 84 483 14 q 631 282 621 154 l 638 378 q 646 385 638 386 q 650 376 651 383 l 643 281 q 615 6 617 7 q 494 0 610 0 q 292 1 363 0 q 163 3 207 1 l 46 0 q 29 3 36 0 q 25 13 22 6 l 522 679 l 342 679 q 143 617 206 679 q 75 426 81 556 z "},"{":{"ha":618,"x_min":158,"x_max":526,"o":"m 331 519 q 295 413 331 457 q 206 347 260 369 q 295 282 260 325 q 331 176 331 239 q 285 -8 331 121 q 239 -210 239 -137 q 492 -386 239 -386 q 508 -393 503 -386 q 510 -406 514 -400 q 490 -412 506 -412 q 277 -348 349 -412 q 206 -181 206 -283 q 254 21 206 -101 q 303 194 303 143 q 263 299 303 260 q 169 338 224 338 q 158 347 158 338 q 160 356 158 354 q 169 358 161 358 q 263 397 224 358 q 303 501 303 436 q 254 674 303 551 q 206 876 206 796 q 290 1040 206 974 q 504 1106 374 1106 q 522 1100 518 1106 q 521 1088 526 1094 q 506 1082 515 1082 q 307 1033 375 1082 q 239 906 239 985 q 285 704 239 833 q 331 519 331 575 z "},"|":{"ha":371,"x_min":165,"x_max":214,"o":"m 197 343 q 206 -369 197 -100 q 185 -384 192 -382 q 165 -383 179 -386 q 179 342 179 -93 q 171 1075 179 700 q 214 1083 189 1089 q 197 343 197 779 z "},"}":{"ha":618,"x_min":92,"x_max":460,"o":"m 288 176 q 323 282 288 239 q 413 347 358 325 q 323 413 358 369 q 288 519 288 457 q 333 704 288 575 q 379 906 379 833 q 311 1033 379 985 q 113 1082 243 1082 q 97 1088 103 1082 q 96 1100 92 1094 q 114 1106 100 1106 q 332 1043 251 1106 q 413 876 413 981 q 364 674 413 796 q 315 501 315 551 q 355 397 315 436 q 449 358 394 358 q 458 356 457 358 q 460 347 460 354 q 449 338 460 338 q 355 299 394 338 q 315 194 315 260 q 364 21 315 143 q 413 -181 413 -101 q 340 -349 413 -286 q 128 -412 268 -412 q 108 -406 113 -412 q 110 -393 104 -400 q 126 -386 115 -386 q 379 -210 379 -386 q 333 -8 379 -137 q 288 176 288 121 z "},"~":{"ha":1157,"x_min":361,"x_max":806,"o":"m 367 447 q 452 551 428 526 q 500 576 476 576 q 607 535 531 576 q 708 494 683 494 q 740 506 728 494 q 790 571 751 517 q 803 575 800 581 q 800 564 806 572 q 718 458 750 490 q 656 425 686 425 q 551 469 626 425 q 450 513 476 513 q 426 500 439 513 q 376 440 414 488 q 365 434 368 431 q 367 447 361 438 z "},"¨":{"ha":1124,"x_min":350,"x_max":763,"o":"m 370 852 q 360 862 370 852 q 350 900 350 872 q 370 949 350 928 q 418 969 390 969 q 467 949 446 969 q 488 900 488 928 q 467 852 488 872 q 418 832 446 832 q 370 852 390 832 m 645 852 q 635 862 645 852 q 625 900 625 872 q 645 949 625 928 q 693 969 665 969 q 742 949 721 969 q 763 900 763 928 q 742 852 763 872 q 693 832 721 832 q 645 852 665 832 z "},"©":{"ha":1133,"x_min":65,"x_max":1067,"o":"m 833 342 q 791 294 807 311 q 737 247 775 278 q 654 200 699 215 q 560 186 610 185 q 361 263 439 186 q 283 464 283 340 q 377 679 283 593 q 593 765 471 765 q 786 729 710 765 l 799 514 q 796 509 799 511 q 790 508 793 507 q 788 513 788 510 q 592 753 767 753 q 421 690 482 753 q 360 497 360 628 q 431 310 360 386 q 615 235 501 235 q 707 253 665 235 q 769 291 749 272 q 817 340 790 310 q 825 350 822 347 q 833 347 831 356 q 833 342 835 344 m 551 -22 q 206 119 347 -22 q 65 474 65 260 q 114 672 65 576 q 238 834 163 768 q 405 940 313 900 q 583 979 497 979 q 928 839 789 979 q 1067 483 1067 699 q 987 228 1067 347 q 789 43 907 108 q 551 -22 671 -22 m 565 1 q 899 135 763 1 q 1036 472 1036 269 q 898 816 1036 675 q 571 957 760 957 q 236 822 376 957 q 96 485 96 686 q 235 142 96 282 q 565 1 375 1 z "},"«":{"ha":919,"x_min":69,"x_max":810,"o":"m 389 346 l 389 344 q 596 204 426 314 q 782 81 765 94 q 810 29 810 53 q 783 -1 810 -1 q 726 31 763 -1 q 549 188 690 61 q 372 344 408 314 q 372 358 365 351 q 563 531 418 397 q 725 682 707 665 q 776 714 761 714 q 808 683 808 714 q 781 631 808 654 q 597 505 767 618 q 389 357 428 392 q 389 346 382 353 m 92 346 l 92 344 q 272 199 128 311 q 425 79 415 88 q 451 29 453 51 q 422 -1 446 -1 q 369 31 404 -1 q 220 189 333 63 q 76 344 107 315 q 76 358 69 351 q 223 512 96 378 q 390 682 350 646 q 440 714 426 714 q 472 683 472 714 q 443 632 472 657 q 283 511 438 628 q 92 357 129 394 q 92 346 86 351 z "},"­":{"ha":747,"x_min":90,"x_max":661,"o":"m 376 349 q 653 357 519 349 q 661 340 661 351 q 654 324 661 328 q 376 333 518 333 q 99 324 228 333 q 90 340 90 328 q 97 357 90 351 q 376 349 239 349 z "},"®":{"ha":1117,"x_min":65,"x_max":1050,"o":"m 460 639 l 460 504 q 531 506 476 506 q 629 538 586 506 q 672 636 672 571 q 638 734 672 703 q 525 765 603 765 l 493 765 q 465 748 469 765 q 460 639 460 731 m 807 61 q 535 -22 683 -22 q 198 117 331 -22 q 65 474 65 257 q 143 729 65 610 q 337 914 221 849 q 569 979 453 979 q 911 842 772 979 q 1050 492 1050 706 q 1037 390 1050 446 q 1000 278 1024 333 q 933 187 976 224 q 838 150 890 150 q 737 192 774 150 q 658 331 700 233 q 583 465 611 438 q 494 493 556 493 l 460 493 l 460 408 q 461 288 460 326 q 468 227 463 249 q 481 202 474 206 q 506 199 488 199 l 522 199 q 526 194 526 199 q 522 189 526 189 q 472 190 510 189 q 431 190 435 190 q 369 190 424 190 q 313 189 314 189 q 307 194 306 189 q 313 199 310 197 q 360 204 350 199 q 376 276 375 214 q 379 444 379 306 l 379 556 q 372 736 379 707 q 335 765 365 765 l 319 765 q 314 771 314 765 q 319 776 314 776 q 378 775 332 776 q 429 774 425 774 q 481 775 435 774 q 536 776 528 776 q 708 744 654 776 q 761 638 761 711 q 708 547 761 585 q 576 500 656 508 q 662 468 626 497 q 738 363 697 439 q 762 313 743 351 q 790 260 781 275 q 815 222 799 246 q 851 188 832 197 q 892 179 869 179 q 964 235 933 179 q 1008 359 994 292 q 1021 483 1021 426 q 884 821 1021 685 q 557 957 747 957 q 230 822 364 957 q 96 485 96 688 q 228 141 96 281 q 549 1 360 1 q 803 67 704 1 q 810 68 808 71 q 807 61 813 65 z "},"¯":{"ha":1124,"x_min":404,"x_max":731,"o":"m 556 939 l 557 939 q 682 940 636 939 q 731 939 731 942 q 667 868 731 929 q 626 869 665 868 q 558 869 588 869 q 506 868 538 869 q 453 867 475 867 q 404 869 404 865 q 468 940 404 879 q 498 940 469 940 q 556 939 526 939 z "},"°":{"ha":522,"x_min":81,"x_max":442,"o":"m 149 915 q 125 891 149 915 q 101 801 101 867 q 149 688 101 736 q 261 640 196 640 q 374 688 326 640 q 421 801 421 736 q 374 915 421 867 q 261 963 326 963 q 149 915 196 963 m 133 674 q 107 700 133 674 q 81 801 81 726 q 133 929 81 876 q 261 982 186 982 q 389 929 336 982 q 442 801 442 876 q 389 674 442 726 q 261 621 336 621 q 133 674 186 621 z "},"²":{"ha":515,"x_min":63,"x_max":457,"o":"m 188 483 q 138 483 167 483 q 87 483 108 483 q 63 482 65 482 l 63 493 q 64 506 63 504 q 130 558 89 526 q 193 611 171 589 q 309 746 276 689 q 342 868 342 803 q 244 964 342 964 q 142 889 182 964 q 103 726 103 814 q 97 721 103 721 q 90 726 90 721 q 80 849 90 774 q 69 926 69 925 q 76 942 69 942 q 247 976 189 976 q 442 850 442 976 q 419 786 442 818 q 372 733 397 754 q 292 671 347 713 q 206 603 238 629 q 178 580 193 593 q 157 563 163 567 q 339 564 288 563 q 391 566 376 564 q 418 578 406 568 q 435 614 431 589 l 443 672 q 450 683 444 682 q 457 678 456 685 q 456 672 457 675 l 447 613 q 426 485 433 492 q 390 482 424 482 q 294 483 383 482 q 188 483 206 483 z "},"´":{"ha":1124,"x_min":429,"x_max":663,"o":"m 440 746 q 435 743 438 743 q 429 749 429 743 q 433 754 429 750 q 502 831 464 783 q 568 918 540 879 q 600 961 596 957 q 633 969 608 969 q 658 965 654 969 q 663 939 663 961 q 646 915 663 928 l 564 853 q 440 746 483 790 z "},"·":{"ha":350,"x_min":94,"x_max":256,"o":"m 94 343 q 118 400 94 376 q 175 424 142 424 q 231 399 207 424 q 256 343 256 375 q 232 286 256 310 q 175 263 208 263 q 117 285 140 263 q 94 343 94 308 z "},"»":{"ha":919,"x_min":92,"x_max":835,"o":"m 515 365 l 515 367 q 311 507 478 397 q 128 631 144 617 q 100 682 100 658 q 126 713 100 713 q 183 681 147 713 q 358 524 219 650 q 532 367 496 397 q 532 353 539 360 q 353 191 494 321 q 175 31 211 61 q 124 -1 139 -1 q 92 29 92 -1 q 119 82 92 58 q 305 206 132 93 q 515 354 478 319 q 515 365 522 358 m 813 365 l 813 367 q 638 506 781 396 q 479 632 496 615 q 453 682 451 660 q 482 713 458 713 q 535 681 500 713 q 684 522 571 649 q 828 367 797 396 q 828 353 835 360 q 685 198 806 331 q 524 31 564 65 q 474 -1 488 -1 q 442 29 442 -1 q 471 81 442 56 q 627 203 481 89 q 813 354 774 318 q 813 365 818 360 z "},"À":{"ha":988,"x_min":-11,"x_max":999,"o":"m 482 1067 q 358 1174 439 1111 l 276 1236 q 260 1260 260 1249 q 264 1286 260 1282 q 289 1290 268 1290 q 322 1282 314 1290 q 353 1239 326 1278 q 419 1152 381 1200 q 489 1075 457 1104 q 493 1069 493 1071 q 488 1064 493 1064 q 482 1067 485 1064 m 639 360 l 432 844 l 239 357 l 475 358 l 639 358 l 639 360 m 646 344 l 483 340 q 349 342 447 340 q 235 344 251 344 l 211 286 q 161 79 161 151 q 239 11 161 11 q 260 13 244 11 q 278 15 275 15 q 288 8 288 15 q 271 0 288 0 q 191 1 258 0 q 113 3 124 3 q 61 1 106 3 q -3 0 17 0 q -11 7 -11 0 q -3 13 -11 13 l 3 13 q 103 96 58 13 q 194 293 154 183 l 463 963 q 472 967 464 967 l 486 967 q 500 963 497 967 l 753 360 q 859 122 822 193 q 919 32 896 51 q 978 13 942 13 l 989 13 q 999 7 999 13 q 990 0 999 0 q 913 2 968 0 q 850 4 858 4 q 773 2 842 4 q 682 0 704 0 q 671 7 672 0 q 678 13 674 11 l 707 13 q 749 39 746 13 q 646 344 756 92 z "},"Á":{"ha":988,"x_min":-11,"x_max":999,"o":"m 482 1067 q 476 1064 479 1064 q 471 1069 471 1064 q 475 1075 471 1071 q 544 1152 506 1104 q 610 1239 582 1200 q 642 1282 638 1278 q 675 1290 650 1290 q 700 1286 696 1290 q 704 1260 704 1282 q 688 1236 704 1249 l 606 1174 q 482 1067 525 1111 m 639 360 l 432 844 l 239 357 l 475 358 l 639 358 l 639 360 m 646 344 l 483 340 q 349 342 447 340 q 235 344 251 344 l 211 286 q 161 79 161 151 q 239 11 161 11 q 260 13 244 11 q 278 15 275 15 q 288 8 288 15 q 271 0 288 0 q 191 1 258 0 q 113 3 124 3 q 61 1 106 3 q -3 0 17 0 q -11 7 -11 0 q -3 13 -11 13 l 3 13 q 103 96 58 13 q 194 293 154 183 l 463 963 q 472 967 464 967 l 486 967 q 500 963 497 967 l 753 360 q 859 122 822 193 q 919 32 896 51 q 978 13 942 13 l 989 13 q 999 7 999 13 q 990 0 999 0 q 913 2 968 0 q 850 4 858 4 q 773 2 842 4 q 682 0 704 0 q 671 7 672 0 q 678 13 674 11 l 707 13 q 749 39 746 13 q 646 344 756 92 z "},"Â":{"ha":988,"x_min":-11,"x_max":999,"o":"m 485 1253 q 475 1253 479 1258 l 361 1083 q 314 1057 342 1057 q 286 1076 286 1057 q 311 1117 286 1089 q 474 1265 381 1196 q 486 1265 481 1272 q 654 1131 586 1189 q 682 1090 682 1104 q 673 1071 682 1081 q 650 1061 664 1061 q 601 1090 622 1061 q 485 1253 582 1118 m 639 360 l 432 844 l 239 357 l 475 358 l 639 358 l 639 360 m 646 344 l 483 340 q 349 342 447 340 q 235 344 251 344 l 211 286 q 161 79 161 151 q 239 11 161 11 q 260 13 244 11 q 278 15 275 15 q 288 8 288 15 q 271 0 288 0 q 191 1 258 0 q 113 3 124 3 q 61 1 106 3 q -3 0 17 0 q -11 7 -11 0 q -3 13 -11 13 l 3 13 q 103 96 58 13 q 194 293 154 183 l 463 963 q 472 967 464 967 l 486 967 q 500 963 497 967 l 753 360 q 859 122 822 193 q 919 32 896 51 q 978 13 942 13 l 989 13 q 999 7 999 13 q 990 0 999 0 q 913 2 968 0 q 850 4 858 4 q 773 2 842 4 q 682 0 704 0 q 671 7 672 0 q 678 13 674 11 l 707 13 q 749 39 746 13 q 646 344 756 92 z "},"Ã":{"ha":988,"x_min":-11,"x_max":999,"o":"m 268 1100 q 353 1204 329 1179 q 401 1229 378 1229 q 508 1188 432 1229 q 610 1147 585 1147 q 641 1158 629 1147 q 692 1224 653 1169 q 704 1228 701 1233 q 701 1217 707 1225 q 619 1110 651 1143 q 557 1078 588 1078 q 453 1122 528 1078 q 351 1165 378 1165 q 328 1153 340 1165 q 278 1093 315 1140 q 266 1087 269 1083 q 268 1100 263 1090 m 639 360 l 432 844 l 239 357 l 475 358 l 639 358 l 639 360 m 646 344 l 483 340 q 349 342 447 340 q 235 344 251 344 l 211 286 q 161 79 161 151 q 239 11 161 11 q 260 13 244 11 q 278 15 275 15 q 288 8 288 15 q 271 0 288 0 q 191 1 258 0 q 113 3 124 3 q 61 1 106 3 q -3 0 17 0 q -11 7 -11 0 q -3 13 -11 13 l 3 13 q 103 96 58 13 q 194 293 154 183 l 463 963 q 472 967 464 967 l 486 967 q 500 963 497 967 l 753 360 q 859 122 822 193 q 919 32 896 51 q 978 13 942 13 l 989 13 q 999 7 999 13 q 990 0 999 0 q 913 2 968 0 q 850 4 858 4 q 773 2 842 4 q 682 0 704 0 q 671 7 672 0 q 678 13 674 11 l 707 13 q 749 39 746 13 q 646 344 756 92 z "},"Ä":{"ha":988,"x_min":-11,"x_max":999,"o":"m 572 1098 q 561 1108 572 1098 q 551 1146 551 1118 q 572 1194 551 1174 q 619 1215 592 1215 q 668 1194 647 1215 q 689 1146 689 1174 q 668 1098 689 1118 q 619 1078 647 1078 q 572 1098 592 1078 m 297 1098 q 286 1108 297 1098 q 276 1146 276 1118 q 297 1194 276 1174 q 344 1215 317 1215 q 393 1194 372 1215 q 414 1146 414 1174 q 393 1098 414 1118 q 344 1078 372 1078 q 297 1098 317 1078 m 639 360 l 432 844 l 239 357 l 475 358 l 639 358 l 639 360 m 646 344 l 483 340 q 349 342 447 340 q 235 344 251 344 l 211 286 q 161 79 161 151 q 239 11 161 11 q 260 13 244 11 q 278 15 275 15 q 288 8 288 15 q 271 0 288 0 q 191 1 258 0 q 113 3 124 3 q 61 1 106 3 q -3 0 17 0 q -11 7 -11 0 q -3 13 -11 13 l 3 13 q 103 96 58 13 q 194 293 154 183 l 463 963 q 472 967 464 967 l 486 967 q 500 963 497 967 l 753 360 q 859 122 822 193 q 919 32 896 51 q 978 13 942 13 l 989 13 q 999 7 999 13 q 990 0 999 0 q 913 2 968 0 q 850 4 858 4 q 773 2 842 4 q 682 0 704 0 q 671 7 672 0 q 678 13 674 11 l 707 13 q 749 39 746 13 q 646 344 756 92 z "},"Å":{"ha":988,"x_min":-11,"x_max":999,"o":"m 418 1119 q 406 1107 418 1119 q 393 1058 393 1094 q 418 997 393 1022 q 479 972 443 972 q 540 997 515 972 q 565 1058 565 1022 q 540 1119 565 1094 q 479 1144 515 1144 q 418 1119 443 1144 m 639 360 l 432 844 l 239 357 l 475 358 l 639 358 l 639 360 m 646 344 l 483 340 q 349 342 447 340 q 235 344 251 344 l 211 286 q 161 79 161 151 q 239 11 161 11 q 260 13 244 11 q 278 15 275 15 q 288 8 288 15 q 271 0 288 0 q 191 1 258 0 q 113 3 124 3 q 61 1 106 3 q -3 0 17 0 q -11 7 -11 0 q -3 13 -11 13 l 3 13 q 103 96 58 13 q 194 293 154 183 l 460 957 q 399 992 422 964 q 376 1058 376 1019 q 406 1131 376 1101 q 479 1161 436 1161 q 552 1131 522 1161 q 582 1058 582 1101 q 559 993 582 1021 q 501 957 536 965 l 753 360 q 859 122 822 193 q 919 32 896 51 q 978 13 942 13 l 989 13 q 999 7 999 13 q 990 0 999 0 q 913 2 968 0 q 850 4 858 4 q 773 2 842 4 q 682 0 704 0 q 671 7 672 0 q 678 13 674 11 l 707 13 q 749 39 746 13 q 646 344 756 92 z "},"Æ":{"ha":1399,"x_min":-11,"x_max":1340,"o":"m 650 360 l 501 861 l 497 872 l 258 357 l 486 358 l 650 358 l 650 360 m 654 344 l 490 340 q 364 342 454 340 q 253 344 274 344 l 226 286 q 165 79 171 160 q 182 28 164 44 q 238 11 200 11 q 260 13 244 11 q 276 15 275 15 q 286 8 286 15 q 269 0 283 0 q 190 1 257 0 q 111 3 122 3 q 60 1 104 3 q -1 0 17 0 q -9 2 -7 0 q -10 7 -11 4 q -1 13 -10 13 l 4 13 q 107 96 56 13 q 211 293 156 174 l 490 896 q 460 940 476 929 q 404 950 443 950 q 396 956 396 950 q 404 963 396 963 q 491 961 428 963 q 563 960 554 960 l 897 960 q 1093 961 961 960 q 1243 963 1225 963 l 1256 961 l 1254 961 q 1253 957 1249 958 q 1293 701 1258 954 l 1299 651 q 1294 644 1301 644 q 1285 651 1288 644 l 1278 701 q 1182 881 1258 818 q 985 944 1106 943 l 603 944 q 597 936 594 944 l 714 531 l 858 531 q 1024 571 979 531 q 1068 690 1068 611 l 1068 719 q 1075 728 1068 728 q 1082 719 1082 728 q 1078 613 1082 696 q 1075 522 1075 531 q 1078 428 1075 513 q 1082 332 1082 343 q 1075 324 1082 324 q 1068 332 1068 324 l 1068 353 q 1024 473 1068 432 q 857 514 979 514 l 719 514 l 764 360 q 838 124 810 196 q 885 34 865 53 q 942 15 906 15 l 1038 15 q 1227 98 1153 15 q 1317 296 1301 181 l 1325 369 q 1329 376 1325 374 q 1337 375 1333 378 q 1340 368 1340 372 l 1332 293 q 1292 10 1300 25 q 1289 6 1290 7 q 1104 0 1283 0 l 953 0 q 876 2 931 0 q 813 4 821 4 q 735 2 804 4 q 642 0 665 0 q 633 6 633 0 q 642 13 633 13 l 671 13 q 718 43 711 13 q 654 344 729 96 z "},"Ç":{"ha":1050,"x_min":60,"x_max":957,"o":"m 185 481 q 291 132 185 264 q 583 0 397 0 q 946 371 908 0 l 957 371 l 940 47 q 586 -14 800 -14 q 578 -13 583 -14 q 571 -12 572 -12 l 514 -99 q 521 -103 517 -103 q 665 -133 615 -103 q 714 -203 714 -164 q 664 -331 714 -267 q 544 -396 614 -396 q 462 -381 496 -396 q 428 -343 428 -367 q 442 -301 428 -318 q 481 -285 457 -285 q 543 -316 504 -285 q 615 -347 582 -347 q 661 -324 643 -347 q 679 -271 679 -300 q 456 -174 679 -174 q 450 -160 440 -174 q 560 -12 553 -24 q 202 135 344 -4 q 60 481 60 275 q 217 835 60 694 q 592 976 374 976 q 779 958 678 976 q 938 915 881 940 l 954 613 l 942 613 q 594 963 907 963 q 297 829 408 963 q 185 481 185 696 z "},"È":{"ha":864,"x_min":10,"x_max":806,"o":"m 482 1067 q 358 1174 439 1111 l 276 1236 q 260 1260 260 1249 q 264 1286 260 1282 q 289 1290 268 1290 q 322 1282 314 1290 q 353 1239 326 1278 q 419 1152 381 1200 q 489 1075 457 1104 q 493 1069 493 1071 q 488 1064 493 1064 q 482 1067 485 1064 m 238 603 l 238 507 l 353 507 q 519 547 475 507 q 564 667 564 588 l 564 696 q 571 704 564 704 q 578 696 578 704 q 574 590 578 672 q 571 499 571 507 q 574 404 571 489 q 578 308 578 319 q 571 300 578 300 q 564 308 564 300 l 564 329 q 519 449 564 408 q 353 490 475 490 l 238 490 l 238 224 q 226 19 238 67 q 356 17 246 19 q 489 15 467 15 q 687 99 606 15 q 782 296 768 183 l 790 369 q 794 376 790 374 q 802 375 799 378 q 806 368 806 372 l 797 293 q 757 10 765 25 q 754 6 756 7 q 569 0 749 0 q 473 1 549 0 q 357 1 397 1 q 288 3 335 3 q 218 4 242 4 l 22 0 q 11 4 13 0 q 14 8 10 7 q 22 10 18 10 q 84 20 67 10 q 111 67 101 31 q 126 194 121 104 q 132 603 132 271 q 130 801 132 735 q 117 903 128 868 q 93 944 106 939 q 51 950 81 950 l 26 950 q 18 956 18 950 q 26 963 18 963 q 110 960 49 963 q 181 958 172 958 q 414 960 186 958 q 669 963 642 963 q 735 957 722 963 q 775 701 740 954 l 781 651 q 776 644 783 644 q 767 651 769 644 l 760 701 q 664 881 740 818 q 467 946 588 944 l 290 946 q 243 918 250 946 q 238 722 236 890 q 238 603 238 649 z "},"É":{"ha":864,"x_min":10,"x_max":806,"o":"m 400 1067 q 394 1064 397 1064 q 389 1069 389 1064 q 393 1075 389 1071 q 462 1152 424 1104 q 528 1239 500 1200 q 560 1282 556 1278 q 593 1290 568 1290 q 618 1286 614 1290 q 622 1260 622 1282 q 606 1236 622 1249 l 525 1174 q 400 1067 443 1111 m 238 603 l 238 507 l 353 507 q 519 547 475 507 q 564 667 564 588 l 564 696 q 571 704 564 704 q 578 696 578 704 q 574 590 578 672 q 571 499 571 507 q 574 404 571 489 q 578 308 578 319 q 571 300 578 300 q 564 308 564 300 l 564 329 q 519 449 564 408 q 353 490 475 490 l 238 490 l 238 224 q 226 19 238 67 q 356 17 246 19 q 489 15 467 15 q 687 99 606 15 q 782 296 768 183 l 790 369 q 794 376 790 374 q 802 375 799 378 q 806 368 806 372 l 797 293 q 757 10 765 25 q 754 6 756 7 q 569 0 749 0 q 473 1 549 0 q 357 1 397 1 q 288 3 335 3 q 218 4 242 4 l 22 0 q 11 4 13 0 q 14 8 10 7 q 22 10 18 10 q 84 20 67 10 q 111 67 101 31 q 126 194 121 104 q 132 603 132 271 q 130 801 132 735 q 117 903 128 868 q 93 944 106 939 q 51 950 81 950 l 26 950 q 18 956 18 950 q 26 963 18 963 q 110 960 49 963 q 181 958 172 958 q 414 960 186 958 q 669 963 642 963 q 735 957 722 963 q 775 701 740 954 l 781 651 q 776 644 783 644 q 767 651 769 644 l 760 701 q 664 881 740 818 q 467 946 588 944 l 290 946 q 243 918 250 946 q 238 722 236 890 q 238 603 238 649 z "},"Ê":{"ha":864,"x_min":10,"x_max":806,"o":"m 431 1267 q 421 1267 425 1272 l 307 1097 q 260 1071 288 1071 q 232 1090 232 1071 q 257 1131 232 1103 q 419 1279 326 1210 q 432 1279 425 1286 q 600 1144 532 1203 q 628 1104 628 1118 q 619 1085 628 1094 q 596 1075 610 1075 q 547 1104 568 1075 q 431 1267 528 1132 m 238 603 l 238 507 l 353 507 q 519 547 475 507 q 564 667 564 588 l 564 696 q 571 704 564 704 q 578 696 578 704 q 574 590 578 672 q 571 499 571 507 q 574 404 571 489 q 578 308 578 319 q 571 300 578 300 q 564 308 564 300 l 564 329 q 519 449 564 408 q 353 490 475 490 l 238 490 l 238 224 q 226 19 238 67 q 356 17 246 19 q 489 15 467 15 q 687 99 606 15 q 782 296 768 183 l 790 369 q 794 376 790 374 q 802 375 799 378 q 806 368 806 372 l 797 293 q 757 10 765 25 q 754 6 756 7 q 569 0 749 0 q 473 1 549 0 q 357 1 397 1 q 288 3 335 3 q 218 4 242 4 l 22 0 q 11 4 13 0 q 14 8 10 7 q 22 10 18 10 q 84 20 67 10 q 111 67 101 31 q 126 194 121 104 q 132 603 132 271 q 130 801 132 735 q 117 903 128 868 q 93 944 106 939 q 51 950 81 950 l 26 950 q 18 956 18 950 q 26 963 18 963 q 110 960 49 963 q 181 958 172 958 q 414 960 186 958 q 669 963 642 963 q 735 957 722 963 q 775 701 740 954 l 781 651 q 776 644 783 644 q 767 651 769 644 l 760 701 q 664 881 740 818 q 467 946 588 944 l 290 946 q 243 918 250 946 q 238 722 236 890 q 238 603 238 649 z "},"Ë":{"ha":864,"x_min":10,"x_max":806,"o":"m 528 1105 q 518 1115 528 1105 q 508 1153 508 1125 q 528 1201 508 1181 q 576 1222 549 1222 q 625 1201 604 1222 q 646 1153 646 1181 q 625 1105 646 1125 q 576 1085 604 1085 q 528 1105 549 1085 m 253 1105 q 243 1115 253 1105 q 233 1153 233 1125 q 253 1201 233 1181 q 301 1222 274 1222 q 350 1201 329 1222 q 371 1153 371 1181 q 350 1105 371 1125 q 301 1085 329 1085 q 253 1105 274 1085 m 238 603 l 238 507 l 353 507 q 519 547 475 507 q 564 667 564 588 l 564 696 q 571 704 564 704 q 578 696 578 704 q 574 590 578 672 q 571 499 571 507 q 574 404 571 489 q 578 308 578 319 q 571 300 578 300 q 564 308 564 300 l 564 329 q 519 449 564 408 q 353 490 475 490 l 238 490 l 238 224 q 226 19 238 67 q 356 17 246 19 q 489 15 467 15 q 687 99 606 15 q 782 296 768 183 l 790 369 q 794 376 790 374 q 802 375 799 378 q 806 368 806 372 l 797 293 q 757 10 765 25 q 754 6 756 7 q 569 0 749 0 q 473 1 549 0 q 357 1 397 1 q 288 3 335 3 q 218 4 242 4 l 22 0 q 11 4 13 0 q 14 8 10 7 q 22 10 18 10 q 84 20 67 10 q 111 67 101 31 q 126 194 121 104 q 132 603 132 271 q 130 801 132 735 q 117 903 128 868 q 93 944 106 939 q 51 950 81 950 l 26 950 q 18 956 18 950 q 26 963 18 963 q 110 960 49 963 q 181 958 172 958 q 414 960 186 958 q 669 963 642 963 q 735 957 722 963 q 775 701 740 954 l 781 651 q 776 644 783 644 q 767 651 769 644 l 760 701 q 664 881 740 818 q 467 946 588 944 l 290 946 q 243 918 250 946 q 238 722 236 890 q 238 603 238 649 z "},"Ì":{"ha":390,"x_min":-18,"x_max":361,"o":"m 204 1067 q 81 1174 161 1111 l -1 1236 q -18 1260 -18 1249 q -14 1286 -18 1282 q 11 1290 -10 1290 q 44 1282 36 1290 q 76 1239 49 1278 q 141 1152 103 1200 q 211 1075 179 1104 q 215 1069 215 1071 q 210 1064 215 1064 q 204 1067 207 1064 m 142 360 l 142 603 q 140 802 142 740 q 129 902 139 864 q 108 945 119 940 q 67 950 96 950 l 38 950 q 29 956 29 950 q 38 963 29 963 q 124 960 58 963 q 196 958 189 958 q 267 960 204 958 q 353 963 331 963 q 361 956 361 963 q 353 950 361 950 l 324 950 q 283 945 294 950 q 261 902 271 940 q 250 802 251 864 q 249 603 249 740 l 249 360 q 250 160 249 222 q 261 60 251 99 q 283 17 271 22 q 324 13 294 13 l 353 13 q 361 6 361 13 q 353 0 361 0 q 267 2 331 0 q 196 4 204 4 q 124 2 189 4 q 38 0 58 0 q 29 6 29 0 q 38 13 29 13 l 67 13 q 108 17 96 13 q 129 60 119 22 q 140 160 139 99 q 142 360 142 222 z "},"Í":{"ha":390,"x_min":29,"x_max":396,"o":"m 174 1067 q 168 1064 171 1064 q 163 1069 163 1064 q 167 1075 163 1071 q 235 1152 197 1104 q 301 1239 274 1200 q 333 1282 329 1278 q 367 1290 342 1290 q 392 1286 388 1290 q 396 1260 396 1282 q 379 1236 396 1249 l 297 1174 q 174 1067 217 1111 m 142 360 l 142 603 q 140 802 142 740 q 129 902 139 864 q 108 945 119 940 q 67 950 96 950 l 38 950 q 29 956 29 950 q 38 963 29 963 q 124 960 58 963 q 196 958 189 958 q 267 960 204 958 q 353 963 331 963 q 361 956 361 963 q 353 950 361 950 l 324 950 q 283 945 294 950 q 261 902 271 940 q 250 802 251 864 q 249 603 249 740 l 249 360 q 250 160 249 222 q 261 60 251 99 q 283 17 271 22 q 324 13 294 13 l 353 13 q 361 6 361 13 q 353 0 361 0 q 267 2 331 0 q 196 4 204 4 q 124 2 189 4 q 38 0 58 0 q 29 6 29 0 q 38 13 29 13 l 67 13 q 108 17 96 13 q 129 60 119 22 q 140 160 139 99 q 142 360 142 222 z "},"Î":{"ha":390,"x_min":-3,"x_max":393,"o":"m 196 1267 q 186 1267 190 1272 l 72 1097 q 25 1071 53 1071 q -3 1090 -3 1071 q 22 1131 -3 1103 q 185 1279 92 1210 q 197 1279 192 1286 q 365 1144 297 1203 q 393 1104 393 1118 q 384 1085 393 1094 q 361 1075 375 1075 q 313 1104 333 1075 q 196 1267 293 1132 m 142 360 l 142 603 q 140 802 142 740 q 129 902 139 864 q 108 945 119 940 q 67 950 96 950 l 38 950 q 29 956 29 950 q 38 963 29 963 q 124 960 58 963 q 196 958 189 958 q 267 960 204 958 q 353 963 331 963 q 361 956 361 963 q 353 950 361 950 l 324 950 q 283 945 294 950 q 261 902 271 940 q 250 802 251 864 q 249 603 249 740 l 249 360 q 250 160 249 222 q 261 60 251 99 q 283 17 271 22 q 324 13 294 13 l 353 13 q 361 6 361 13 q 353 0 361 0 q 267 2 331 0 q 196 4 204 4 q 124 2 189 4 q 38 0 58 0 q 29 6 29 0 q 38 13 29 13 l 67 13 q 108 17 96 13 q 129 60 119 22 q 140 160 139 99 q 142 360 142 222 z "},"Ï":{"ha":390,"x_min":-8,"x_max":404,"o":"m 12 1105 q 2 1115 12 1105 q -8 1153 -8 1125 q 12 1201 -8 1181 q 60 1222 32 1222 q 108 1201 88 1222 q 129 1153 129 1181 q 108 1105 129 1125 q 60 1085 88 1085 q 12 1105 32 1085 m 287 1105 q 277 1115 287 1105 q 267 1153 267 1125 q 287 1201 267 1181 q 335 1222 307 1222 q 383 1201 363 1222 q 404 1153 404 1181 q 383 1105 404 1125 q 335 1085 363 1085 q 287 1105 307 1085 m 142 360 l 142 603 q 140 802 142 740 q 129 902 139 864 q 108 945 119 940 q 67 950 96 950 l 38 950 q 29 956 29 950 q 38 963 29 963 q 124 960 58 963 q 196 958 189 958 q 267 960 204 958 q 353 963 331 963 q 361 956 361 963 q 353 950 361 950 l 324 950 q 283 945 294 950 q 261 902 271 940 q 250 802 251 864 q 249 603 249 740 l 249 360 q 250 160 249 222 q 261 60 251 99 q 283 17 271 22 q 324 13 294 13 l 353 13 q 361 6 361 13 q 353 0 361 0 q 267 2 331 0 q 196 4 204 4 q 124 2 189 4 q 38 0 58 0 q 29 6 29 0 q 38 13 29 13 l 67 13 q 108 17 96 13 q 129 60 119 22 q 140 160 139 99 q 142 360 142 222 z "},"Ð":{"ha":1018,"x_min":10,"x_max":958,"o":"m 835 481 q 723 822 835 694 q 425 950 611 950 l 333 950 q 250 904 263 950 q 238 603 238 858 l 238 500 q 408 501 351 500 q 457 500 457 503 q 393 429 457 490 q 328 430 386 429 q 238 431 271 431 l 238 224 q 226 19 238 67 q 320 17 240 19 q 436 14 400 14 q 729 140 624 14 q 835 481 835 265 m 803 827 q 881 759 803 827 q 958 481 958 692 q 809 135 958 269 q 433 0 660 0 q 308 1 357 0 q 263 3 293 3 q 218 4 233 4 l 22 0 q 11 4 13 0 q 14 8 10 7 q 22 10 18 10 q 84 20 67 10 q 111 67 101 31 q 126 194 121 104 q 129 429 129 235 q 99 428 119 429 q 68 428 79 428 q 19 431 19 426 q 83 501 19 440 q 101 501 86 501 q 128 500 117 500 l 128 546 q 126 680 128 576 q 124 824 124 783 q 112 934 124 918 q 32 950 100 950 q 24 956 24 950 q 32 963 24 963 q 113 961 38 963 q 201 960 189 960 q 308 961 210 960 q 428 963 406 963 q 803 827 649 963 z "},"Ñ":{"ha":994,"x_min":-10,"x_max":976,"o":"m 288 1093 q 373 1197 349 1172 q 421 1222 397 1222 q 528 1181 451 1222 q 629 1140 604 1140 q 660 1151 649 1140 q 711 1217 672 1163 q 724 1221 721 1226 q 721 1210 726 1218 q 639 1103 671 1136 q 576 1071 607 1071 q 472 1115 547 1071 q 371 1158 397 1158 q 347 1146 360 1158 q 297 1086 335 1133 q 285 1080 289 1076 q 288 1093 282 1083 m 4 951 l -1 951 q -8 954 -6 951 q -8 960 -10 957 q -1 963 -6 963 q 111 964 63 963 q 183 967 160 965 l 206 968 q 219 960 215 968 q 274 886 233 933 l 851 168 l 851 603 q 840 769 851 700 q 815 872 829 838 q 777 926 801 907 q 736 947 753 944 q 693 950 719 950 l 674 950 q 665 956 665 950 q 674 963 665 963 q 774 960 696 963 q 860 958 851 958 q 907 960 868 958 q 968 963 946 963 q 976 956 976 963 q 968 950 976 950 l 958 950 q 904 935 919 950 q 879 845 889 919 q 869 603 869 771 l 869 10 q 858 -4 869 -4 q 824 26 846 -4 l 154 861 l 153 360 q 162 193 153 261 q 183 90 171 125 q 219 37 196 56 q 257 15 242 18 q 299 13 272 13 l 318 13 q 324 10 322 13 q 324 3 326 7 q 318 0 322 0 q 219 2 294 0 q 135 4 143 4 q 85 2 126 4 q 22 0 44 0 q 15 6 15 0 q 24 13 17 11 l 32 13 q 87 29 68 13 q 120 125 106 46 q 135 360 135 204 l 136 858 q 114 901 136 879 q 4 951 64 951 z "},"Ò":{"ha":1103,"x_min":60,"x_max":1042,"o":"m 615 1053 q 492 1160 572 1097 l 410 1222 q 393 1246 393 1235 q 397 1272 393 1268 q 422 1276 401 1276 q 456 1268 447 1276 q 487 1225 460 1264 q 552 1138 514 1186 q 622 1061 590 1090 q 626 1056 626 1057 q 621 1050 626 1050 q 615 1053 618 1050 m 185 481 q 278 131 185 263 q 539 0 372 0 q 814 133 710 0 q 918 481 918 267 q 822 830 918 697 q 558 963 725 963 q 287 829 389 963 q 185 481 185 696 m 60 481 q 206 835 60 693 q 553 976 351 976 q 897 833 751 976 q 1042 481 1042 690 q 893 129 1042 272 q 544 -14 744 -14 q 203 128 346 -14 q 60 481 60 271 z "},"Ó":{"ha":1103,"x_min":60,"x_max":1042,"o":"m 474 1053 q 468 1050 471 1050 q 463 1056 463 1050 q 467 1061 463 1057 q 535 1138 497 1090 q 601 1225 574 1186 q 633 1268 629 1264 q 667 1276 642 1276 q 692 1272 688 1276 q 696 1246 696 1268 q 679 1222 696 1235 l 597 1160 q 474 1053 517 1097 m 185 481 q 278 131 185 263 q 539 0 372 0 q 814 133 710 0 q 918 481 918 267 q 822 830 918 697 q 558 963 725 963 q 287 829 389 963 q 185 481 185 696 m 60 481 q 206 835 60 693 q 553 976 351 976 q 897 833 751 976 q 1042 481 1042 690 q 893 129 1042 272 q 544 -14 744 -14 q 203 128 346 -14 q 60 481 60 271 z "},"Ô":{"ha":1103,"x_min":60,"x_max":1042,"o":"m 563 1267 q 553 1267 557 1272 l 439 1097 q 392 1071 419 1071 q 364 1090 364 1071 q 389 1131 364 1103 q 551 1279 458 1210 q 564 1279 558 1286 q 732 1144 664 1203 q 760 1104 760 1118 q 751 1085 760 1094 q 728 1075 742 1075 q 679 1104 700 1075 q 563 1267 660 1132 m 185 481 q 278 131 185 263 q 539 0 372 0 q 814 133 710 0 q 918 481 918 267 q 822 830 918 697 q 558 963 725 963 q 287 829 389 963 q 185 481 185 696 m 60 481 q 206 835 60 693 q 553 976 351 976 q 897 833 751 976 q 1042 481 1042 690 q 893 129 1042 272 q 544 -14 744 -14 q 203 128 346 -14 q 60 481 60 271 z "},"Õ":{"ha":1103,"x_min":60,"x_max":1042,"o":"m 351 1100 q 437 1204 413 1179 q 485 1229 461 1229 q 592 1188 515 1229 q 693 1147 668 1147 q 724 1158 713 1147 q 775 1224 736 1169 q 788 1228 785 1233 q 785 1217 790 1225 q 703 1110 735 1143 q 640 1078 671 1078 q 536 1122 611 1078 q 435 1165 461 1165 q 411 1153 424 1165 q 361 1093 399 1140 q 349 1087 353 1083 q 351 1100 346 1090 m 185 481 q 278 131 185 263 q 539 0 372 0 q 814 133 710 0 q 918 481 918 267 q 822 830 918 697 q 558 963 725 963 q 287 829 389 963 q 185 481 185 696 m 60 481 q 206 835 60 693 q 553 976 351 976 q 897 833 751 976 q 1042 481 1042 690 q 893 129 1042 272 q 544 -14 744 -14 q 203 128 346 -14 q 60 481 60 271 z "},"Ö":{"ha":1103,"x_min":60,"x_max":1042,"o":"m 376 1105 q 366 1115 376 1105 q 356 1153 356 1125 q 376 1201 356 1181 q 424 1222 396 1222 q 472 1201 451 1222 q 493 1153 493 1181 q 472 1105 493 1125 q 424 1085 451 1085 q 376 1105 396 1085 m 651 1105 q 641 1115 651 1105 q 631 1153 631 1125 q 651 1201 631 1181 q 699 1222 671 1222 q 747 1201 726 1222 q 768 1153 768 1181 q 747 1105 768 1125 q 699 1085 726 1085 q 651 1105 671 1085 m 185 481 q 278 131 185 263 q 539 0 372 0 q 814 133 710 0 q 918 481 918 267 q 822 830 918 697 q 558 963 725 963 q 287 829 389 963 q 185 481 185 696 m 60 481 q 206 835 60 693 q 553 976 351 976 q 897 833 751 976 q 1042 481 1042 690 q 893 129 1042 272 q 544 -14 744 -14 q 203 128 346 -14 q 60 481 60 271 z "},"Ø":{"ha":1103,"x_min":60,"x_max":1042,"o":"m 551 461 q 318 86 496 374 q 539 0 407 0 q 814 133 710 0 q 918 481 918 267 q 800 857 918 728 q 551 461 742 769 m 185 481 q 301 103 185 231 q 535 469 375 217 l 782 875 q 558 963 688 963 q 287 829 389 963 q 185 481 185 696 m 60 481 q 206 835 60 693 q 553 976 351 976 q 803 907 683 976 l 949 1147 q 969 1147 965 1149 q 986 1135 974 1144 q 824 893 911 1031 q 983 718 924 825 q 1042 481 1042 611 q 893 129 1042 272 q 544 -14 744 -14 q 299 54 413 -14 q 146 -200 250 -24 q 122 -203 126 -204 q 107 -192 118 -203 q 278 67 243 14 q 118 241 176 133 q 60 481 60 349 z "},"Ù":{"ha":924,"x_min":21,"x_max":915,"o":"m 540 1047 q 417 1154 497 1092 l 335 1217 q 318 1240 318 1229 q 322 1267 318 1263 q 347 1271 326 1271 q 381 1263 372 1271 q 412 1219 385 1258 q 477 1133 439 1181 q 547 1056 515 1085 q 551 1050 551 1051 q 546 1044 551 1044 q 540 1047 543 1044 m 788 339 l 788 603 q 777 769 788 700 q 753 872 767 838 q 715 926 739 907 q 675 947 692 944 q 632 950 658 950 l 619 950 q 611 956 611 950 q 619 963 611 963 q 715 960 642 963 q 796 958 788 958 q 844 960 804 958 q 907 963 885 963 q 915 956 915 963 q 907 950 915 950 l 897 950 q 854 944 868 950 q 828 904 840 938 q 811 801 815 871 q 807 603 807 731 l 807 339 q 711 90 807 193 q 454 -14 615 -14 q 212 83 301 -14 q 122 350 122 181 l 122 603 q 121 803 122 740 q 110 903 119 865 q 89 945 100 940 q 49 950 78 950 l 29 950 q 21 956 21 950 q 29 963 21 963 q 110 960 51 963 q 176 958 168 958 q 245 960 183 958 q 329 963 307 963 q 338 956 338 963 q 329 950 338 950 l 304 950 q 263 944 275 950 q 242 903 251 939 q 230 802 232 867 q 228 603 228 738 l 226 388 q 306 125 226 219 q 524 31 385 31 q 712 119 636 31 q 788 339 788 208 z "},"Ú":{"ha":924,"x_min":21,"x_max":915,"o":"m 400 1046 q 394 1043 397 1043 q 389 1049 389 1043 q 393 1054 389 1050 q 462 1131 424 1083 q 528 1218 500 1179 q 560 1261 556 1257 q 593 1269 568 1269 q 618 1265 614 1269 q 622 1239 622 1261 q 606 1215 622 1228 l 525 1153 q 400 1046 443 1090 m 788 339 l 788 603 q 777 769 788 700 q 753 872 767 838 q 715 926 739 907 q 675 947 692 944 q 632 950 658 950 l 619 950 q 611 956 611 950 q 619 963 611 963 q 715 960 642 963 q 796 958 788 958 q 844 960 804 958 q 907 963 885 963 q 915 956 915 963 q 907 950 915 950 l 897 950 q 854 944 868 950 q 828 904 840 938 q 811 801 815 871 q 807 603 807 731 l 807 339 q 711 90 807 193 q 454 -14 615 -14 q 212 83 301 -14 q 122 350 122 181 l 122 603 q 121 803 122 740 q 110 903 119 865 q 89 945 100 940 q 49 950 78 950 l 29 950 q 21 956 21 950 q 29 963 21 963 q 110 960 51 963 q 176 958 168 958 q 245 960 183 958 q 329 963 307 963 q 338 956 338 963 q 329 950 338 950 l 304 950 q 263 944 275 950 q 242 903 251 939 q 230 802 232 867 q 228 603 228 738 l 226 388 q 306 125 226 219 q 524 31 385 31 q 712 119 636 31 q 788 339 788 208 z "},"Û":{"ha":924,"x_min":21,"x_max":915,"o":"m 486 1253 q 476 1253 481 1258 l 363 1083 q 315 1057 343 1057 q 288 1076 288 1057 q 313 1117 288 1089 q 475 1265 382 1196 q 488 1265 481 1272 q 656 1131 588 1189 q 683 1090 683 1104 q 674 1071 683 1081 q 651 1061 665 1061 q 603 1090 624 1061 q 486 1253 583 1118 m 788 339 l 788 603 q 777 769 788 700 q 753 872 767 838 q 715 926 739 907 q 675 947 692 944 q 632 950 658 950 l 619 950 q 611 956 611 950 q 619 963 611 963 q 715 960 642 963 q 796 958 788 958 q 844 960 804 958 q 907 963 885 963 q 915 956 915 963 q 907 950 915 950 l 897 950 q 854 944 868 950 q 828 904 840 938 q 811 801 815 871 q 807 603 807 731 l 807 339 q 711 90 807 193 q 454 -14 615 -14 q 212 83 301 -14 q 122 350 122 181 l 122 603 q 121 803 122 740 q 110 903 119 865 q 89 945 100 940 q 49 950 78 950 l 29 950 q 21 956 21 950 q 29 963 21 963 q 110 960 51 963 q 176 958 168 958 q 245 960 183 958 q 329 963 307 963 q 338 956 338 963 q 329 950 338 950 l 304 950 q 263 944 275 950 q 242 903 251 939 q 230 802 232 867 q 228 603 228 738 l 226 388 q 306 125 226 219 q 524 31 385 31 q 712 119 636 31 q 788 339 788 208 z "},"Ü":{"ha":924,"x_min":21,"x_max":915,"o":"m 567 1077 q 557 1087 567 1077 q 547 1125 547 1097 q 567 1174 547 1153 q 615 1194 588 1194 q 664 1174 643 1194 q 685 1125 685 1153 q 664 1077 685 1097 q 615 1057 643 1057 q 567 1077 588 1057 m 292 1077 q 282 1087 292 1077 q 272 1125 272 1097 q 292 1174 272 1153 q 340 1194 313 1194 q 389 1174 368 1194 q 410 1125 410 1153 q 389 1077 410 1097 q 340 1057 368 1057 q 292 1077 313 1057 m 788 339 l 788 603 q 777 769 788 700 q 753 872 767 838 q 715 926 739 907 q 675 947 692 944 q 632 950 658 950 l 619 950 q 611 956 611 950 q 619 963 611 963 q 715 960 642 963 q 796 958 788 958 q 844 960 804 958 q 907 963 885 963 q 915 956 915 963 q 907 950 915 950 l 897 950 q 854 944 868 950 q 828 904 840 938 q 811 801 815 871 q 807 603 807 731 l 807 339 q 711 90 807 193 q 454 -14 615 -14 q 212 83 301 -14 q 122 350 122 181 l 122 603 q 121 803 122 740 q 110 903 119 865 q 89 945 100 940 q 49 950 78 950 l 29 950 q 21 956 21 950 q 29 963 21 963 q 110 960 51 963 q 176 958 168 958 q 245 960 183 958 q 329 963 307 963 q 338 956 338 963 q 329 950 338 950 l 304 950 q 263 944 275 950 q 242 903 251 939 q 230 802 232 867 q 228 603 228 738 l 226 388 q 306 125 226 219 q 524 31 385 31 q 712 119 636 31 q 788 339 788 208 z "},"Ý":{"ha":854,"x_min":-4,"x_max":881,"o":"m 375 1039 q 369 1036 372 1036 q 364 1042 364 1036 q 368 1047 364 1043 q 437 1124 399 1076 q 503 1211 475 1172 q 535 1254 531 1250 q 568 1263 543 1263 q 593 1258 589 1263 q 597 1232 597 1254 q 581 1208 597 1221 l 500 1146 q 375 1039 418 1083 m 638 707 l 485 440 l 485 360 q 486 160 485 222 q 497 60 488 99 q 519 17 507 22 q 560 13 531 13 l 585 13 q 593 6 593 13 q 585 0 593 0 q 502 2 563 0 q 433 4 442 4 q 365 2 426 4 q 281 0 303 0 q 272 6 272 0 q 281 13 272 13 l 306 13 q 347 17 335 13 q 368 60 358 22 q 379 160 378 99 q 381 360 381 222 l 381 436 l 231 707 q 108 903 147 857 q 17 950 68 950 l 6 950 q -4 956 -4 950 q 4 963 -4 963 q 80 960 26 963 q 142 958 133 958 q 219 960 150 958 q 310 963 288 963 q 321 956 319 963 q 314 950 318 951 l 285 950 q 249 938 258 950 q 249 894 240 926 q 280 819 258 863 q 343 700 301 776 l 475 457 l 622 711 q 652 772 638 738 q 676 850 667 807 q 669 922 686 893 q 606 951 653 951 q 585 949 600 951 q 567 946 569 946 q 557 954 557 946 q 574 963 557 963 q 647 961 586 963 q 719 960 708 960 q 790 961 726 960 q 871 963 853 963 q 876 956 881 963 q 868 950 874 951 l 865 950 q 777 897 829 950 q 693 795 725 843 q 638 707 661 747 z "},"Þ":{"ha":842,"x_min":19,"x_max":803,"o":"m 239 218 l 414 218 q 613 290 543 218 q 683 490 683 363 q 415 743 683 743 l 239 743 l 239 218 m 132 360 l 132 603 q 131 802 132 740 q 119 902 129 864 q 98 945 110 940 q 57 950 86 950 l 28 950 q 19 956 19 950 q 28 963 19 963 q 114 960 49 963 q 186 958 179 958 q 258 960 194 958 q 343 963 321 963 q 351 956 351 963 q 343 950 351 950 l 314 950 q 269 941 282 950 q 249 892 257 932 q 239 757 240 851 l 436 757 q 705 687 607 757 q 803 489 803 617 q 703 283 803 361 q 444 204 604 204 l 239 204 q 249 71 240 111 q 269 22 257 31 q 314 13 282 13 l 343 13 q 351 6 351 13 q 343 0 351 0 q 258 2 321 0 q 186 4 194 4 q 114 2 179 4 q 28 0 49 0 q 19 6 19 0 q 28 13 19 13 l 57 13 q 98 17 86 13 q 119 60 110 22 q 131 160 129 99 q 132 360 132 222 z "},"ß":{"ha":769,"x_min":4,"x_max":736,"o":"m 25 0 q 17 6 17 0 q 25 13 17 13 q 94 35 82 13 q 106 153 106 57 q 104 376 104 236 l 104 604 l 104 618 l 24 618 q 4 626 4 618 l 54 694 l 115 694 q 281 963 153 844 q 507 1081 410 1081 q 617 1042 576 1081 q 658 946 658 1003 q 627 858 658 906 q 559 773 596 811 q 491 681 522 735 q 460 576 460 628 q 488 481 460 522 q 557 412 517 439 q 638 358 597 385 q 708 288 679 331 q 736 190 736 246 q 678 55 736 114 q 547 -4 619 -4 q 400 27 447 -4 q 353 106 353 58 q 371 150 353 133 q 411 167 389 167 q 465 96 460 167 q 549 6 474 6 q 633 38 603 6 q 664 132 664 71 q 636 219 664 182 q 569 283 608 257 q 490 336 529 310 q 422 404 450 363 q 394 500 394 446 q 440 629 394 558 q 530 768 485 700 q 575 890 575 836 q 535 973 575 942 q 426 1004 496 1004 q 208 685 208 1004 l 208 407 q 210 153 208 246 q 223 32 210 51 q 299 13 236 13 q 307 6 307 13 q 299 0 307 0 q 222 1 275 0 q 160 3 168 3 q 100 1 151 3 q 25 0 49 0 z "},"à":{"ha":714,"x_min":44,"x_max":738,"o":"m 472 776 q 347 883 429 821 l 267 946 q 250 969 250 958 q 254 996 250 992 q 279 1000 258 1000 q 313 992 304 1000 q 344 949 317 988 q 409 862 371 910 q 479 785 447 814 q 483 779 483 781 q 478 774 483 774 q 472 776 475 774 m 142 181 q 188 86 142 126 q 286 46 233 46 q 415 118 339 46 q 500 231 490 190 q 508 431 508 339 l 508 460 l 394 411 q 191 302 240 347 q 142 181 142 257 m 217 -15 q 90 29 136 -15 q 44 140 44 74 q 392 425 44 290 l 507 469 q 469 647 501 597 q 358 696 436 696 q 283 676 317 696 q 235 638 250 657 q 202 583 221 618 q 179 542 183 547 q 117 517 163 517 q 61 549 61 517 q 110 614 61 583 q 238 678 161 649 q 381 708 314 708 q 553 647 490 708 q 615 456 615 586 q 610 290 615 404 q 604 151 604 175 q 643 33 604 33 q 683 59 660 33 q 718 110 706 85 q 727 115 721 115 q 735 109 733 114 q 735 99 738 104 q 661 27 715 68 q 571 -14 607 -14 q 492 85 492 -14 q 497 199 492 160 q 372 61 461 138 q 217 -15 282 -15 z "},"á":{"ha":714,"x_min":44,"x_max":738,"o":"m 314 776 q 308 774 311 774 q 303 779 303 774 q 307 785 303 781 q 376 862 338 814 q 442 949 414 910 q 474 992 469 988 q 507 1000 482 1000 q 532 996 528 1000 q 536 969 536 992 q 519 946 536 958 l 439 883 q 314 776 357 821 m 142 181 q 188 86 142 126 q 286 46 233 46 q 415 118 339 46 q 500 231 490 190 q 508 431 508 339 l 508 460 l 394 411 q 191 302 240 347 q 142 181 142 257 m 217 -15 q 90 29 136 -15 q 44 140 44 74 q 392 425 44 290 l 507 469 q 469 647 501 597 q 358 696 436 696 q 283 676 317 696 q 235 638 250 657 q 202 583 221 618 q 179 542 183 547 q 117 517 163 517 q 61 549 61 517 q 110 614 61 583 q 238 678 161 649 q 381 708 314 708 q 553 647 490 708 q 615 456 615 586 q 610 290 615 404 q 604 151 604 175 q 643 33 604 33 q 683 59 660 33 q 718 110 706 85 q 727 115 721 115 q 735 109 733 114 q 735 99 738 104 q 661 27 715 68 q 571 -14 607 -14 q 492 85 492 -14 q 497 199 492 160 q 372 61 461 138 q 217 -15 282 -15 z "},"â":{"ha":714,"x_min":44,"x_max":738,"o":"m 369 997 q 360 997 364 1003 l 246 828 q 199 801 226 801 q 171 821 171 801 q 196 861 171 833 q 358 1010 265 940 q 371 1010 364 1017 q 539 875 471 933 q 567 835 567 849 q 558 815 567 825 q 535 806 549 806 q 486 835 507 806 q 369 997 467 863 m 142 181 q 188 86 142 126 q 286 46 233 46 q 415 118 339 46 q 500 231 490 190 q 508 431 508 339 l 508 460 l 394 411 q 191 302 240 347 q 142 181 142 257 m 217 -15 q 90 29 136 -15 q 44 140 44 74 q 392 425 44 290 l 507 469 q 469 647 501 597 q 358 696 436 696 q 283 676 317 696 q 235 638 250 657 q 202 583 221 618 q 179 542 183 547 q 117 517 163 517 q 61 549 61 517 q 110 614 61 583 q 238 678 161 649 q 381 708 314 708 q 553 647 490 708 q 615 456 615 586 q 610 290 615 404 q 604 151 604 175 q 643 33 604 33 q 683 59 660 33 q 718 110 706 85 q 727 115 721 115 q 735 109 733 114 q 735 99 738 104 q 661 27 715 68 q 571 -14 607 -14 q 492 85 492 -14 q 497 199 492 160 q 372 61 461 138 q 217 -15 282 -15 z "},"ã":{"ha":714,"x_min":44,"x_max":738,"o":"m 161 824 q 247 928 222 903 q 294 953 271 953 q 401 912 325 953 q 503 871 478 871 q 534 882 522 871 q 585 947 546 893 q 597 951 594 957 q 594 940 600 949 q 513 834 544 867 q 450 801 481 801 q 346 845 421 801 q 244 889 271 889 q 221 876 233 889 q 171 817 208 864 q 159 810 163 807 q 161 824 156 814 m 142 181 q 188 86 142 126 q 286 46 233 46 q 415 118 339 46 q 500 231 490 190 q 508 431 508 339 l 508 460 l 394 411 q 191 302 240 347 q 142 181 142 257 m 217 -15 q 90 29 136 -15 q 44 140 44 74 q 392 425 44 290 l 507 469 q 469 647 501 597 q 358 696 436 696 q 283 676 317 696 q 235 638 250 657 q 202 583 221 618 q 179 542 183 547 q 117 517 163 517 q 61 549 61 517 q 110 614 61 583 q 238 678 161 649 q 381 708 314 708 q 553 647 490 708 q 615 456 615 586 q 610 290 615 404 q 604 151 604 175 q 643 33 604 33 q 683 59 660 33 q 718 110 706 85 q 727 115 721 115 q 735 109 733 114 q 735 99 738 104 q 661 27 715 68 q 571 -14 607 -14 q 492 85 492 -14 q 497 199 492 160 q 372 61 461 138 q 217 -15 282 -15 z "},"ä":{"ha":714,"x_min":44,"x_max":738,"o":"m 181 835 q 171 845 181 835 q 161 883 161 856 q 181 932 161 911 q 229 953 201 953 q 278 932 257 953 q 299 883 299 911 q 278 835 299 856 q 229 815 257 815 q 181 835 201 815 m 456 835 q 446 845 456 835 q 436 883 436 856 q 456 932 436 911 q 504 953 476 953 q 553 932 532 953 q 574 883 574 911 q 553 835 574 856 q 504 815 532 815 q 456 835 476 815 m 142 181 q 188 86 142 126 q 286 46 233 46 q 415 118 339 46 q 500 231 490 190 q 508 431 508 339 l 508 460 l 394 411 q 191 302 240 347 q 142 181 142 257 m 217 -15 q 90 29 136 -15 q 44 140 44 74 q 392 425 44 290 l 507 469 q 469 647 501 597 q 358 696 436 696 q 283 676 317 696 q 235 638 250 657 q 202 583 221 618 q 179 542 183 547 q 117 517 163 517 q 61 549 61 517 q 110 614 61 583 q 238 678 161 649 q 381 708 314 708 q 553 647 490 708 q 615 456 615 586 q 610 290 615 404 q 604 151 604 175 q 643 33 604 33 q 683 59 660 33 q 718 110 706 85 q 727 115 721 115 q 735 109 733 114 q 735 99 738 104 q 661 27 715 68 q 571 -14 607 -14 q 492 85 492 -14 q 497 199 492 160 q 372 61 461 138 q 217 -15 282 -15 z "},"å":{"ha":714,"x_min":44,"x_max":738,"o":"m 313 963 q 300 950 313 963 q 288 901 288 938 q 313 840 288 865 q 374 815 338 815 q 435 840 410 815 q 460 901 460 865 q 435 963 460 938 q 374 988 410 988 q 313 963 338 988 m 301 828 q 286 843 301 828 q 271 901 271 858 q 301 974 271 944 q 374 1004 331 1004 q 447 974 417 1004 q 476 901 476 944 q 447 828 476 858 q 374 799 417 799 q 301 828 331 799 m 142 181 q 188 86 142 126 q 286 46 233 46 q 415 118 339 46 q 500 231 490 190 q 508 431 508 339 l 508 460 l 394 411 q 191 302 240 347 q 142 181 142 257 m 217 -15 q 90 29 136 -15 q 44 140 44 74 q 392 425 44 290 l 507 469 q 469 647 501 597 q 358 696 436 696 q 283 676 317 696 q 235 638 250 657 q 202 583 221 618 q 179 542 183 547 q 117 517 163 517 q 61 549 61 517 q 110 614 61 583 q 238 678 161 649 q 381 708 314 708 q 553 647 490 708 q 615 456 615 586 q 610 290 615 404 q 604 151 604 175 q 643 33 604 33 q 683 59 660 33 q 718 110 706 85 q 727 115 721 115 q 735 109 733 114 q 735 99 738 104 q 661 27 715 68 q 571 -14 607 -14 q 492 85 492 -14 q 497 199 492 160 q 372 61 461 138 q 217 -15 282 -15 z "},"æ":{"ha":1200,"x_min":44,"x_max":1308,"o":"m 969 494 q 1025 507 1013 494 q 1038 551 1038 522 q 994 637 1038 596 q 878 678 951 678 q 721 630 786 678 q 628 489 656 582 q 824 492 714 489 q 969 494 933 494 m 522 254 l 522 431 q 521 464 522 453 l 394 411 q 191 302 240 347 q 142 181 142 257 q 188 86 142 126 q 286 46 233 46 q 423 124 344 46 q 522 254 501 201 m 358 696 q 283 676 317 696 q 235 638 250 657 q 202 583 221 618 q 179 542 183 547 q 117 517 163 517 q 61 549 61 517 q 110 614 61 583 q 238 678 161 649 q 381 708 314 708 q 604 549 563 708 q 748 665 664 622 q 917 708 832 708 q 1040 688 988 708 q 1117 638 1092 668 q 1151 577 1142 607 q 1158 521 1161 547 q 1100 478 1151 478 l 625 478 q 614 371 614 422 q 712 155 614 243 q 950 67 810 67 q 1153 135 1072 67 q 1296 336 1235 203 q 1307 346 1301 351 q 1306 333 1308 342 q 1133 86 1242 186 q 879 -14 1025 -14 q 657 54 750 -14 q 526 235 564 122 q 393 76 493 168 q 217 -15 293 -15 q 90 29 136 -15 q 44 140 44 74 q 392 425 44 290 l 521 475 q 476 647 515 597 q 358 696 436 696 z "},"ç":{"ha":753,"x_min":51,"x_max":767,"o":"m 539 -203 q 489 -331 539 -267 q 369 -396 439 -396 q 287 -381 321 -396 q 253 -343 253 -367 q 267 -301 253 -318 q 306 -285 282 -285 q 368 -316 329 -285 q 440 -347 407 -347 q 486 -324 468 -347 q 504 -271 504 -300 q 281 -174 504 -174 q 275 -160 265 -174 q 329 -87 290 -139 q 383 -14 368 -35 q 144 80 238 -14 q 51 319 51 174 q 173 589 51 469 q 447 708 294 708 q 612 676 544 708 q 679 604 679 643 q 660 565 679 583 q 611 547 642 547 q 571 567 593 547 q 529 613 549 588 q 472 658 510 638 q 389 678 435 678 q 212 599 282 678 q 142 382 142 519 q 231 153 142 243 q 460 64 319 64 q 626 110 557 64 q 750 254 696 157 q 760 260 754 261 q 761 250 767 257 q 602 65 700 139 q 396 -14 504 -8 l 339 -99 q 346 -103 342 -103 q 490 -133 440 -103 q 539 -203 539 -164 z "},"è":{"ha":717,"x_min":47,"x_max":828,"o":"m 526 776 q 403 883 483 821 l 321 946 q 304 969 304 958 q 308 996 304 992 q 333 1000 313 1000 q 367 992 358 1000 q 398 949 371 988 q 463 862 425 910 q 533 785 501 814 q 538 779 538 781 q 532 774 538 774 q 526 776 529 774 m 486 494 q 542 507 529 494 q 554 551 554 522 q 511 637 554 596 q 394 678 468 678 q 238 630 303 678 q 144 489 172 582 q 340 492 231 489 q 486 494 449 494 m 396 -14 q 143 79 239 -14 q 47 319 47 172 q 167 591 47 474 q 433 708 286 708 q 556 688 504 708 q 633 638 608 668 q 668 577 658 607 q 675 521 678 547 q 617 478 668 478 l 142 478 q 131 371 131 422 q 228 155 131 243 q 467 67 326 67 q 671 135 588 67 q 815 336 754 204 q 826 346 821 351 q 825 333 828 342 q 652 87 763 188 q 396 -14 542 -14 z "},"é":{"ha":717,"x_min":47,"x_max":828,"o":"m 340 776 q 335 774 338 774 q 329 779 329 774 q 333 785 329 781 q 402 862 364 814 q 468 949 440 910 q 500 992 496 988 q 533 1000 508 1000 q 558 996 554 1000 q 563 969 563 992 q 546 946 563 958 l 464 883 q 340 776 383 821 m 486 494 q 542 507 529 494 q 554 551 554 522 q 511 637 554 596 q 394 678 468 678 q 238 630 303 678 q 144 489 172 582 q 340 492 231 489 q 486 494 449 494 m 396 -14 q 143 79 239 -14 q 47 319 47 172 q 167 591 47 474 q 433 708 286 708 q 556 688 504 708 q 633 638 608 668 q 668 577 658 607 q 675 521 678 547 q 617 478 668 478 l 142 478 q 131 371 131 422 q 228 155 131 243 q 467 67 326 67 q 671 135 588 67 q 815 336 754 204 q 826 346 821 351 q 825 333 828 342 q 652 87 763 188 q 396 -14 542 -14 z "},"ê":{"ha":717,"x_min":47,"x_max":828,"o":"m 413 997 q 403 997 407 1003 l 289 828 q 242 801 269 801 q 214 821 214 801 q 239 861 214 833 q 401 1010 308 940 q 414 1010 408 1017 q 582 875 514 933 q 610 835 610 849 q 601 815 610 825 q 578 806 592 806 q 529 835 550 806 q 413 997 510 863 m 486 494 q 542 507 529 494 q 554 551 554 522 q 511 637 554 596 q 394 678 468 678 q 238 630 303 678 q 144 489 172 582 q 340 492 231 489 q 486 494 449 494 m 396 -14 q 143 79 239 -14 q 47 319 47 172 q 167 591 47 474 q 433 708 286 708 q 556 688 504 708 q 633 638 608 668 q 668 577 658 607 q 675 521 678 547 q 617 478 668 478 l 142 478 q 131 371 131 422 q 228 155 131 243 q 467 67 326 67 q 671 135 588 67 q 815 336 754 204 q 826 346 821 351 q 825 333 828 342 q 652 87 763 188 q 396 -14 542 -14 z "},"ë":{"ha":717,"x_min":47,"x_max":828,"o":"m 228 835 q 218 845 228 835 q 208 883 208 856 q 228 932 208 911 q 276 953 249 953 q 325 932 304 953 q 346 883 346 911 q 325 835 346 856 q 276 815 304 815 q 228 835 249 815 m 503 835 q 493 845 503 835 q 483 883 483 856 q 503 932 483 911 q 551 953 524 953 q 600 932 579 953 q 621 883 621 911 q 600 835 621 856 q 551 815 579 815 q 503 835 524 815 m 486 494 q 542 507 529 494 q 554 551 554 522 q 511 637 554 596 q 394 678 468 678 q 238 630 303 678 q 144 489 172 582 q 340 492 231 489 q 486 494 449 494 m 396 -14 q 143 79 239 -14 q 47 319 47 172 q 167 591 47 474 q 433 708 286 708 q 556 688 504 708 q 633 638 608 668 q 668 577 658 607 q 675 521 678 547 q 617 478 668 478 l 142 478 q 131 371 131 422 q 228 155 131 243 q 467 67 326 67 q 671 135 588 67 q 815 336 754 204 q 826 346 821 351 q 825 333 828 342 q 652 87 763 188 q 396 -14 542 -14 z "},"ì":{"ha":314,"x_min":-28,"x_max":306,"o":"m 194 776 q 69 883 151 821 l -11 946 q -28 969 -28 958 q -24 996 -28 992 q 1 1000 -19 1000 q 35 992 26 1000 q 66 949 39 988 q 131 862 93 910 q 201 785 169 814 q 206 779 206 781 q 200 774 206 774 q 194 776 197 774 m 108 153 l 108 524 q 92 614 108 599 q 19 618 75 629 q 9 621 11 615 q 15 629 7 626 q 189 708 101 647 q 203 708 192 711 q 214 699 214 704 l 214 153 q 227 37 214 61 q 297 13 240 13 q 306 6 306 13 q 297 0 306 0 q 224 1 275 0 q 164 3 172 3 q 101 1 156 3 q 24 0 46 0 q 15 6 15 0 q 24 13 15 13 q 95 37 82 13 q 108 153 108 61 z "},"í":{"ha":314,"x_min":7,"x_max":346,"o":"m 124 776 q 118 774 121 774 q 113 779 113 774 q 117 785 113 781 q 185 862 147 814 q 251 949 224 910 q 283 992 279 988 q 317 1000 292 1000 q 342 996 338 1000 q 346 969 346 992 q 329 946 346 958 l 247 883 q 124 776 167 821 m 108 153 l 108 524 q 92 614 108 599 q 19 618 75 629 q 9 621 11 615 q 15 629 7 626 q 189 708 101 647 q 203 708 192 711 q 214 699 214 704 l 214 153 q 227 37 214 61 q 297 13 240 13 q 306 6 306 13 q 297 0 306 0 q 224 1 275 0 q 164 3 172 3 q 101 1 156 3 q 24 0 46 0 q 15 6 15 0 q 24 13 15 13 q 95 37 82 13 q 108 153 108 61 z "},"î":{"ha":314,"x_min":-29,"x_max":367,"o":"m 169 997 q 160 997 164 1003 l 46 828 q -1 801 26 801 q -29 821 -29 801 q -4 861 -29 833 q 158 1010 65 940 q 171 1010 164 1017 q 339 875 271 933 q 367 835 367 849 q 358 815 367 825 q 335 806 349 806 q 286 835 307 806 q 169 997 267 863 m 108 153 l 108 524 q 92 614 108 599 q 19 618 75 629 q 9 621 11 615 q 15 629 7 626 q 189 708 101 647 q 203 708 192 711 q 214 699 214 704 l 214 153 q 227 37 214 61 q 297 13 240 13 q 306 6 306 13 q 297 0 306 0 q 224 1 275 0 q 164 3 172 3 q 101 1 156 3 q 24 0 46 0 q 15 6 15 0 q 24 13 15 13 q 95 37 82 13 q 108 153 108 61 z "},"ï":{"ha":314,"x_min":-62,"x_max":350,"o":"m 233 835 q 223 845 233 835 q 213 883 213 856 q 233 932 213 911 q 281 953 253 953 q 329 932 308 953 q 350 883 350 911 q 329 835 350 856 q 281 815 308 815 q 233 835 253 815 m -42 835 q -52 845 -42 835 q -62 883 -62 856 q -42 932 -62 911 q 6 953 -22 953 q 54 932 33 953 q 75 883 75 911 q 54 835 75 856 q 6 815 33 815 q -42 835 -22 815 m 108 153 l 108 524 q 92 614 108 599 q 19 618 75 629 q 9 621 11 615 q 15 629 7 626 q 189 708 101 647 q 203 708 192 711 q 214 699 214 704 l 214 153 q 227 37 214 61 q 297 13 240 13 q 306 6 306 13 q 297 0 306 0 q 224 1 275 0 q 164 3 172 3 q 101 1 156 3 q 24 0 46 0 q 15 6 15 0 q 24 13 15 13 q 95 37 82 13 q 108 153 108 61 z "},"ñ":{"ha":781,"x_min":31,"x_max":763,"o":"m 199 829 q 284 933 260 908 q 332 958 308 958 q 439 917 363 958 q 540 876 515 876 q 572 888 560 876 q 622 953 583 899 q 635 957 632 963 q 632 946 638 954 q 550 840 582 872 q 488 807 518 807 q 383 851 458 807 q 282 894 308 894 q 258 882 271 894 q 208 822 246 869 q 197 816 200 813 q 199 829 193 819 m 688 426 l 688 136 q 695 49 688 76 q 714 17 703 22 q 754 13 725 13 q 763 6 763 13 q 754 0 763 0 q 697 1 750 0 q 631 3 643 3 q 578 1 622 3 q 513 0 535 0 q 504 6 504 0 q 513 13 504 13 q 571 35 557 13 q 585 144 585 57 l 583 440 q 535 613 583 560 q 415 667 486 667 q 303 637 351 667 q 206 540 256 607 l 206 13 l 278 13 q 286 6 286 13 q 278 0 286 0 q 229 1 274 0 q 172 3 185 3 q 113 1 164 3 q 39 0 61 0 q 31 6 31 0 q 39 13 31 13 q 92 37 83 13 q 101 165 101 61 l 101 524 q 38 629 101 571 q 38 638 31 636 q 139 696 106 663 q 147 694 142 699 q 204 557 197 644 q 461 708 318 708 q 688 426 688 708 z "},"ò":{"ha":807,"x_min":50,"x_max":758,"o":"m 525 776 q 400 883 482 821 l 319 946 q 303 969 303 958 q 307 996 303 992 q 332 1000 311 1000 q 365 992 357 1000 q 397 949 369 988 q 462 862 424 910 q 532 785 500 814 q 536 779 536 781 q 531 774 536 774 q 525 776 528 774 m 418 1 q 587 90 528 1 q 646 335 646 178 q 577 584 646 474 q 400 694 508 694 q 224 605 282 694 q 165 357 165 515 q 235 110 165 218 q 418 1 304 1 m 394 -14 q 148 82 246 -14 q 50 333 50 178 q 154 598 50 488 q 417 708 258 708 q 662 612 565 708 q 758 357 758 515 q 653 101 758 217 q 394 -14 547 -14 z "},"ó":{"ha":807,"x_min":50,"x_max":758,"o":"m 319 776 q 314 774 317 774 q 308 779 308 774 q 313 785 308 781 q 381 862 343 814 q 447 949 419 910 q 479 992 475 988 q 513 1000 488 1000 q 538 996 533 1000 q 542 969 542 992 q 525 946 542 958 l 444 883 q 319 776 363 821 m 418 1 q 587 90 528 1 q 646 335 646 178 q 577 584 646 474 q 400 694 508 694 q 224 605 282 694 q 165 357 165 515 q 235 110 165 218 q 418 1 304 1 m 394 -14 q 148 82 246 -14 q 50 333 50 178 q 154 598 50 488 q 417 708 258 708 q 662 612 565 708 q 758 357 758 515 q 653 101 758 217 q 394 -14 547 -14 z "},"ô":{"ha":807,"x_min":50,"x_max":758,"o":"m 411 997 q 401 997 406 1003 l 288 828 q 240 801 268 801 q 213 821 213 801 q 238 861 213 833 q 400 1010 307 940 q 413 1010 406 1017 q 581 875 513 933 q 608 835 608 849 q 599 815 608 825 q 576 806 590 806 q 528 835 549 806 q 411 997 508 863 m 418 1 q 587 90 528 1 q 646 335 646 178 q 577 584 646 474 q 400 694 508 694 q 224 605 282 694 q 165 357 165 515 q 235 110 165 218 q 418 1 304 1 m 394 -14 q 148 82 246 -14 q 50 333 50 178 q 154 598 50 488 q 417 708 258 708 q 662 612 565 708 q 758 357 758 515 q 653 101 758 217 q 394 -14 547 -14 z "},"õ":{"ha":807,"x_min":50,"x_max":758,"o":"m 196 824 q 281 928 257 903 q 329 953 306 953 q 436 912 360 953 q 538 871 513 871 q 569 882 557 871 q 619 947 581 893 q 632 951 629 957 q 629 940 635 949 q 547 834 579 867 q 485 801 515 801 q 381 845 456 801 q 279 889 306 889 q 256 876 268 889 q 206 817 243 864 q 194 810 197 807 q 196 824 190 814 m 418 1 q 587 90 528 1 q 646 335 646 178 q 577 584 646 474 q 400 694 508 694 q 224 605 282 694 q 165 357 165 515 q 235 110 165 218 q 418 1 304 1 m 394 -14 q 148 82 246 -14 q 50 333 50 178 q 154 598 50 488 q 417 708 258 708 q 662 612 565 708 q 758 357 758 515 q 653 101 758 217 q 394 -14 547 -14 z "},"ö":{"ha":807,"x_min":50,"x_max":758,"o":"m 209 835 q 199 845 209 835 q 189 883 189 856 q 209 932 189 911 q 257 953 229 953 q 306 932 285 953 q 326 883 326 911 q 306 835 326 856 q 257 815 285 815 q 209 835 229 815 m 484 835 q 474 845 484 835 q 464 883 464 856 q 484 932 464 911 q 532 953 504 953 q 581 932 560 953 q 601 883 601 911 q 581 835 601 856 q 532 815 560 815 q 484 835 504 815 m 418 1 q 587 90 528 1 q 646 335 646 178 q 577 584 646 474 q 400 694 508 694 q 224 605 282 694 q 165 357 165 515 q 235 110 165 218 q 418 1 304 1 m 394 -14 q 148 82 246 -14 q 50 333 50 178 q 154 598 50 488 q 417 708 258 708 q 662 612 565 708 q 758 357 758 515 q 653 101 758 217 q 394 -14 547 -14 z "},"÷":{"ha":775,"x_min":143,"x_max":629,"o":"m 351 494 q 343 502 351 494 q 336 532 336 510 q 351 569 336 554 q 389 585 365 585 q 426 569 410 585 q 442 532 442 554 q 426 494 442 510 q 389 479 410 479 q 351 494 365 479 m 351 114 q 343 122 351 114 q 336 151 336 129 q 351 189 336 174 q 389 204 365 204 q 426 189 410 204 q 442 151 442 174 q 426 114 442 129 q 389 99 410 99 q 351 114 365 99 m 385 349 q 622 357 489 349 q 629 340 629 351 q 622 324 629 328 q 386 333 447 333 q 150 324 325 333 q 143 340 143 328 q 150 357 143 351 q 385 349 283 349 z "},"ø":{"ha":807,"x_min":50,"x_max":758,"o":"m 390 351 q 538 633 449 461 q 400 694 476 694 q 224 605 282 694 q 165 357 165 515 q 249 90 165 199 q 319 221 271 132 q 390 351 368 310 m 418 1 q 587 90 528 1 q 646 335 646 178 q 554 617 646 508 q 408 343 453 429 q 264 72 335 213 q 418 1 331 1 m 394 -14 q 236 19 314 -14 q 188 -74 221 -10 q 144 -161 156 -139 q 122 -165 128 -165 q 106 -156 117 -164 l 215 31 q 94 152 138 74 q 50 333 50 231 q 154 598 50 488 q 417 708 258 708 q 561 679 494 708 q 657 867 619 799 q 678 867 676 868 q 694 857 679 867 q 583 669 604 708 q 711 545 664 626 q 758 357 758 464 q 653 101 758 217 q 394 -14 547 -14 z "},"ù":{"ha":776,"x_min":-6,"x_max":760,"o":"m 426 753 q 303 860 383 797 l 221 922 q 204 946 204 935 q 208 972 204 968 q 233 976 213 976 q 267 968 258 976 q 298 925 271 964 q 363 838 325 886 q 433 761 401 790 q 438 756 438 757 q 432 750 438 750 q 426 753 429 750 m 93 268 l 93 524 q 77 623 93 608 q 4 628 61 638 q -4 632 -3 626 q 4 640 -6 639 q 174 703 85 654 q 188 702 176 706 q 199 693 199 699 l 199 254 q 245 81 199 135 q 363 28 292 28 q 474 57 426 28 q 574 154 522 86 l 574 524 q 558 623 574 608 q 485 628 542 638 q 476 632 478 626 q 482 640 475 638 q 485 640 483 640 q 653 703 563 654 q 667 702 656 706 q 678 693 678 699 l 678 165 q 689 36 678 60 q 751 13 700 13 q 758 10 756 13 q 758 3 760 7 q 751 0 756 0 q 571 -14 700 0 q 561 -12 563 -15 q 560 -1 560 -10 q 563 20 560 1 q 570 71 567 39 q 574 138 574 103 q 317 -14 460 -14 q 93 268 93 -14 z "},"ú":{"ha":776,"x_min":-6,"x_max":760,"o":"m 342 750 q 336 747 339 747 q 331 753 331 747 q 335 758 331 754 q 403 835 365 788 q 469 922 442 883 q 501 965 497 961 q 535 974 510 974 q 560 969 556 974 q 564 943 564 965 q 547 919 564 932 l 467 857 q 342 750 385 794 m 93 268 l 93 524 q 77 623 93 608 q 4 628 61 638 q -4 632 -3 626 q 4 640 -6 639 q 174 703 85 654 q 188 702 176 706 q 199 693 199 699 l 199 254 q 245 81 199 135 q 363 28 292 28 q 474 57 426 28 q 574 154 522 86 l 574 524 q 558 623 574 608 q 485 628 542 638 q 476 632 478 626 q 482 640 475 638 q 485 640 483 640 q 653 703 563 654 q 667 702 656 706 q 678 693 678 699 l 678 165 q 689 36 678 60 q 751 13 700 13 q 758 10 756 13 q 758 3 760 7 q 751 0 756 0 q 571 -14 700 0 q 561 -12 563 -15 q 560 -1 560 -10 q 563 20 560 1 q 570 71 567 39 q 574 138 574 103 q 317 -14 460 -14 q 93 268 93 -14 z "},"û":{"ha":776,"x_min":-6,"x_max":760,"o":"m 389 996 q 379 996 383 1001 l 265 826 q 218 800 246 800 q 190 819 190 800 q 215 860 190 832 q 378 1008 285 939 q 390 1008 383 1014 q 558 874 490 932 q 586 833 586 847 q 577 814 586 824 q 554 804 568 804 q 506 833 526 804 q 389 996 486 861 m 93 268 l 93 524 q 77 623 93 608 q 4 628 61 638 q -4 632 -3 626 q 4 640 -6 639 q 174 703 85 654 q 188 702 176 706 q 199 693 199 699 l 199 254 q 245 81 199 135 q 363 28 292 28 q 474 57 426 28 q 574 154 522 86 l 574 524 q 558 623 574 608 q 485 628 542 638 q 476 632 478 626 q 482 640 475 638 q 485 640 483 640 q 653 703 563 654 q 667 702 656 706 q 678 693 678 699 l 678 165 q 689 36 678 60 q 751 13 700 13 q 758 10 756 13 q 758 3 760 7 q 751 0 756 0 q 571 -14 700 0 q 561 -12 563 -15 q 560 -1 560 -10 q 563 20 560 1 q 570 71 567 39 q 574 138 574 103 q 317 -14 460 -14 q 93 268 93 -14 z "},"ü":{"ha":776,"x_min":-6,"x_max":760,"o":"m 474 828 q 464 839 474 828 q 454 876 454 849 q 474 925 454 904 q 522 946 494 946 q 571 925 550 946 q 592 876 592 904 q 571 828 592 849 q 522 808 550 808 q 474 828 494 808 m 199 828 q 189 839 199 828 q 179 876 179 849 q 199 925 179 904 q 247 946 219 946 q 296 925 275 946 q 317 876 317 904 q 296 828 317 849 q 247 808 275 808 q 199 828 219 808 m 93 268 l 93 524 q 77 623 93 608 q 4 628 61 638 q -4 632 -3 626 q 4 640 -6 639 q 174 703 85 654 q 188 702 176 706 q 199 693 199 699 l 199 254 q 245 81 199 135 q 363 28 292 28 q 474 57 426 28 q 574 154 522 86 l 574 524 q 558 623 574 608 q 485 628 542 638 q 476 632 478 626 q 482 640 475 638 q 485 640 483 640 q 653 703 563 654 q 667 702 656 706 q 678 693 678 699 l 678 165 q 689 36 678 60 q 751 13 700 13 q 758 10 756 13 q 758 3 760 7 q 751 0 756 0 q 571 -14 700 0 q 561 -12 563 -15 q 560 -1 560 -10 q 563 20 560 1 q 570 71 567 39 q 574 138 574 103 q 317 -14 460 -14 q 93 268 93 -14 z "},"ĸ":{"ha":767,"x_min":-3,"x_max":788,"o":"m 779 0 l 649 0 q 596 14 617 0 q 460 199 547 44 l 346 389 l 204 244 l 204 153 q 217 37 204 61 q 288 13 231 13 q 296 6 296 13 q 288 0 296 0 q 214 1 265 0 q 154 3 163 3 q 91 1 146 3 q 14 0 36 0 q 6 6 6 0 q 14 13 6 13 q 85 37 72 13 q 99 153 99 61 l 99 524 q 82 614 99 599 q 10 618 65 629 q -1 621 1 615 q 6 629 -3 626 q 179 708 92 647 q 193 708 182 711 q 204 699 204 704 l 204 261 l 421 485 q 508 658 539 607 q 456 681 496 681 q 449 683 451 681 q 449 690 447 686 q 456 693 451 693 q 532 692 476 693 q 594 690 588 690 q 674 692 606 690 q 746 693 742 693 q 752 690 750 693 q 752 683 754 686 q 746 681 750 681 q 607 632 681 681 q 431 476 533 583 l 413 458 l 547 244 q 681 64 628 115 q 779 13 735 13 q 788 7 786 13 q 779 0 786 1 z "},"Ĺ":{"ha":846,"x_min":10,"x_max":808,"o":"m 199 1067 q 193 1064 196 1064 q 188 1069 188 1064 q 192 1075 188 1071 q 260 1152 222 1104 q 326 1239 299 1200 q 358 1282 354 1278 q 392 1290 367 1290 q 417 1286 413 1290 q 421 1260 421 1282 q 404 1236 421 1249 l 322 1174 q 199 1067 242 1111 m 238 603 l 238 224 q 226 19 238 67 q 358 17 247 19 q 492 15 469 15 q 684 115 604 15 q 779 333 764 215 l 793 460 q 797 466 793 464 q 805 465 801 468 q 808 458 808 463 l 794 331 q 751 13 760 28 q 749 8 750 10 q 564 0 740 0 q 469 1 543 0 q 354 1 394 1 q 286 3 332 3 q 218 4 240 4 l 22 0 q 11 4 13 0 q 14 8 10 7 q 22 10 18 10 q 84 20 67 10 q 111 67 101 31 q 126 194 121 104 q 130 306 129 236 q 129 456 131 376 q 128 546 128 535 q 126 680 128 576 q 124 824 124 783 q 112 934 124 918 q 32 950 100 950 q 24 956 24 950 q 32 963 24 963 q 113 961 38 963 q 201 960 189 960 q 279 961 210 960 q 372 963 349 963 q 381 956 381 963 q 372 950 381 950 l 333 950 q 250 904 263 950 q 238 603 238 858 z "},"ĺ":{"ha":301,"x_min":-1,"x_max":336,"o":"m 114 1199 q 108 1196 111 1196 q 103 1201 103 1196 q 107 1207 103 1203 q 176 1284 138 1236 q 242 1371 214 1332 q 274 1414 269 1410 q 307 1422 282 1422 q 332 1418 328 1422 q 336 1392 336 1414 q 319 1368 336 1381 l 239 1306 q 114 1199 157 1243 m 219 1 q 198 2 219 1 q 168 3 176 3 q 108 1 160 3 q 35 0 57 0 q 26 6 26 0 q 35 13 26 13 q 88 37 79 13 q 97 165 97 61 l 97 946 q 90 1030 97 1006 q 63 1058 82 1054 q 8 1054 43 1061 q 0 1058 1 1053 q 6 1067 -1 1064 l 8 1067 q 176 1129 86 1081 q 190 1128 179 1132 q 201 1119 201 1125 l 201 165 q 214 35 201 57 q 283 13 226 13 q 292 6 292 13 q 283 0 292 0 q 219 1 261 0 z "},"Œ":{"ha":1507,"x_min":11,"x_max":1433,"o":"m 136 481 q 230 131 136 263 q 490 0 324 0 q 692 59 636 0 q 757 243 747 118 l 760 361 q 759 419 760 379 q 758 481 758 458 q 754 663 758 594 q 736 795 750 731 q 695 892 722 860 q 623 944 668 925 q 510 963 578 963 q 238 829 340 963 q 136 481 136 696 m 865 603 l 865 507 l 1000 507 q 1167 547 1122 507 q 1211 667 1211 588 l 1211 696 q 1218 704 1211 704 q 1225 696 1225 704 q 1222 590 1225 672 q 1218 499 1218 507 q 1222 404 1218 489 q 1225 308 1225 319 q 1218 300 1225 300 q 1211 308 1211 300 l 1211 329 q 1167 449 1211 408 q 1000 490 1122 490 l 865 490 l 865 224 q 854 19 865 67 q 984 17 874 19 q 1117 15 1094 15 q 1315 99 1233 15 q 1410 296 1396 183 l 1418 369 q 1422 376 1418 374 q 1430 375 1426 378 q 1433 368 1433 372 l 1425 293 q 1385 10 1393 25 q 1382 6 1383 7 q 1197 0 1376 0 q 1101 1 1176 0 q 985 1 1025 1 q 916 3 963 3 q 846 4 869 4 l 604 0 q 496 -14 558 -14 q 154 128 297 -14 q 11 481 11 271 q 157 835 11 693 q 504 976 303 976 q 611 963 565 976 q 727 960 636 963 q 825 958 818 958 q 1049 960 831 958 q 1297 963 1268 963 q 1363 957 1350 963 q 1403 701 1368 954 l 1408 651 q 1404 644 1411 644 q 1394 651 1397 644 l 1388 701 q 1292 881 1368 818 q 1094 946 1215 944 l 918 946 q 871 918 878 946 q 865 722 864 890 q 865 603 865 649 z "},"œ":{"ha":1351,"x_min":50,"x_max":1460,"o":"m 1104 494 q 1160 507 1147 494 q 1172 551 1172 522 q 1129 637 1172 596 q 1013 678 1086 678 q 856 630 921 678 q 763 489 790 582 q 958 492 850 489 q 1104 494 1067 494 m 418 1 q 587 90 528 1 q 646 335 646 178 q 577 584 646 474 q 400 694 508 694 q 224 605 282 694 q 165 357 165 515 q 235 110 165 218 q 418 1 304 1 m 1017 -14 q 824 33 906 -14 q 700 163 742 79 q 569 35 649 83 q 394 -14 490 -14 q 148 82 246 -14 q 50 333 50 178 q 154 598 50 488 q 417 708 258 708 q 605 658 524 708 q 726 517 686 608 q 869 655 781 601 q 1051 708 958 708 q 1174 688 1122 708 q 1251 638 1226 668 q 1286 577 1276 607 q 1293 521 1296 547 q 1235 478 1286 478 l 760 478 q 749 371 749 422 q 847 155 749 243 q 1088 67 946 67 q 1447 339 1321 67 q 1458 349 1453 354 q 1457 336 1460 344 q 1279 89 1394 192 q 1017 -14 1164 -14 z "},"ˆ":{"ha":1124,"x_min":385,"x_max":781,"o":"m 583 944 q 574 944 578 950 l 460 775 q 413 749 440 749 q 385 768 385 749 q 410 808 385 781 q 572 957 479 888 q 585 957 578 964 q 753 822 685 881 q 781 782 781 796 q 772 763 781 772 q 749 753 763 753 q 700 782 721 753 q 583 944 681 810 z "},"ˇ":{"ha":1124,"x_min":386,"x_max":782,"o":"m 583 753 q 593 753 589 747 l 707 922 q 754 949 726 949 q 782 929 782 949 q 757 889 782 917 q 594 740 704 829 q 582 740 589 733 q 414 875 482 817 q 386 915 386 901 q 395 935 386 925 q 418 944 404 944 q 467 915 446 944 q 583 753 486 888 z "},"˘":{"ha":1124,"x_min":415,"x_max":768,"o":"m 589 782 q 424 882 499 782 q 415 899 415 892 q 447 918 415 907 q 492 914 479 929 q 565 835 533 860 q 633 811 596 811 q 738 915 693 811 q 753 925 742 925 q 764 920 760 925 q 764 910 768 915 q 686 822 735 860 q 589 782 638 785 z "},"˙":{"ha":1124,"x_min":483,"x_max":629,"o":"m 504 849 q 494 859 504 849 q 483 900 483 869 q 504 952 483 931 q 556 974 525 974 q 608 952 586 974 q 629 900 629 931 q 608 849 629 869 q 556 828 586 828 q 504 849 525 828 z "},"˚":{"ha":1124,"x_min":451,"x_max":657,"o":"m 493 940 q 481 928 493 940 q 468 879 468 915 q 493 818 468 843 q 554 793 518 793 q 615 818 590 793 q 640 879 640 843 q 615 940 640 915 q 554 965 590 965 q 493 940 518 965 m 481 806 q 466 821 481 806 q 451 879 451 836 q 481 952 451 922 q 554 982 511 982 q 627 952 597 982 q 657 879 657 922 q 627 806 657 836 q 554 776 597 776 q 481 806 511 776 z "},"˛":{"ha":1124,"x_min":403,"x_max":643,"o":"m 539 -256 q 643 -226 585 -256 l 615 -287 q 592 -326 600 -319 q 497 -344 549 -344 q 427 -317 451 -344 q 410 -243 403 -290 q 422 -203 413 -224 q 460 -146 431 -183 q 508 -87 490 -108 q 585 0 526 -67 q 599 4 594 10 q 596 -3 600 1 q 467 -194 474 -140 q 482 -239 464 -222 q 539 -256 500 -256 z "},"˜":{"ha":1124,"x_min":361,"x_max":806,"o":"m 367 829 q 452 933 428 908 q 500 958 476 958 q 607 917 531 958 q 708 876 683 876 q 740 888 728 876 q 790 953 751 899 q 803 957 800 963 q 800 946 806 954 q 718 840 750 872 q 656 807 686 807 q 551 851 626 807 q 450 894 476 894 q 426 882 439 894 q 376 822 414 869 q 365 816 368 813 q 367 829 361 819 z "},"˝":{"ha":1124,"x_min":369,"x_max":740,"o":"m 538 761 q 532 758 535 758 q 525 764 526 758 q 529 769 525 765 q 625 889 569 810 l 679 969 q 711 978 686 978 q 736 974 731 978 q 740 949 740 969 q 725 925 740 938 q 538 761 596 825 m 382 761 q 378 758 382 758 q 369 764 371 758 q 372 769 369 767 q 422 845 396 799 q 467 928 449 892 q 489 969 486 965 q 518 978 494 978 q 544 974 536 978 q 549 949 549 969 q 536 925 549 938 q 513 903 535 924 q 472 864 492 883 q 425 815 451 844 q 382 761 399 786 z "},"Ẁ":{"ha":1364,"x_min":-14,"x_max":1386,"o":"m 793 1046 q 669 1153 750 1090 l 588 1215 q 571 1239 571 1228 q 575 1265 571 1261 q 600 1269 579 1269 q 633 1261 625 1269 q 665 1218 638 1257 q 730 1131 692 1179 q 800 1054 768 1083 q 804 1049 804 1050 q 799 1043 804 1043 q 793 1046 796 1043 m 515 133 l 675 486 l 567 740 q 496 889 518 850 q 456 939 474 928 q 400 950 439 950 l 389 950 q 379 956 379 950 q 388 963 379 963 q 463 960 410 963 q 525 958 517 958 q 595 960 533 958 q 679 963 657 963 q 688 956 688 963 q 679 950 688 950 l 668 950 q 621 915 621 950 q 678 725 621 860 l 738 586 l 794 725 q 836 885 836 819 q 788 951 836 951 q 768 949 781 951 q 754 947 756 947 q 746 954 746 947 q 761 963 746 963 q 826 961 774 963 q 890 960 879 960 q 956 961 897 960 q 1032 963 1014 963 q 1040 957 1039 963 q 1032 950 1038 951 l 996 950 q 902 898 943 950 q 811 719 861 846 l 746 565 l 935 126 q 942 119 938 119 q 947 126 944 119 l 1158 676 q 1207 882 1207 807 q 1136 951 1207 951 q 1115 949 1131 951 q 1097 946 1100 946 q 1088 954 1088 946 q 1104 963 1088 963 q 1183 961 1118 963 q 1260 960 1249 960 q 1313 961 1268 960 q 1378 963 1358 963 q 1386 957 1385 963 q 1378 950 1383 951 l 1374 950 q 1278 884 1324 950 q 1176 669 1233 818 l 917 -1 q 907 -6 914 -6 l 893 -6 q 883 -1 885 -6 l 683 464 l 475 0 q 467 -4 472 -4 l 456 -4 q 444 0 447 -4 l 189 674 q 107 867 135 813 q 58 935 79 921 q -3 950 38 950 l -6 950 q -14 956 -14 950 q -7 963 -14 963 q 65 960 15 963 q 122 958 114 958 q 213 960 131 958 q 317 963 294 963 q 326 956 326 963 q 318 950 325 950 l 282 950 q 221 911 224 950 q 324 603 221 867 l 503 133 q 510 126 506 126 q 515 133 513 126 z "},"ẁ":{"ha":1151,"x_min":-28,"x_max":1183,"o":"m 625 776 q 500 883 582 821 l 419 946 q 403 969 403 958 q 407 996 403 992 q 432 1000 411 1000 q 465 992 457 1000 q 497 949 469 988 q 562 862 524 910 q 632 785 600 814 q 636 779 636 781 q 631 774 636 774 q 625 776 628 774 m 779 -3 l 567 536 l 340 -3 q 336 -6 338 -6 l 321 -6 q 315 -3 318 -6 l 129 504 q 61 651 89 619 q -22 682 33 682 q -28 688 -28 682 q -22 694 -28 694 q 37 693 -19 694 q 103 692 93 692 q 178 693 110 692 q 265 694 247 694 q 272 692 269 694 q 272 685 274 689 q 265 682 269 682 q 208 675 222 682 q 197 640 194 668 q 222 546 199 613 l 376 126 l 550 531 q 551 576 554 544 q 538 626 549 607 q 449 682 510 682 q 440 689 440 682 q 447 694 440 694 q 519 693 465 694 q 578 692 572 692 q 636 693 585 692 q 704 694 688 694 q 714 688 714 694 q 706 682 713 682 q 640 663 646 682 q 671 546 635 644 l 839 118 l 988 488 q 1010 601 1018 558 q 976 663 1003 644 q 907 682 950 682 q 899 689 899 682 q 906 694 899 694 q 984 693 925 694 q 1049 692 1043 692 q 1114 693 1057 692 q 1175 694 1171 694 q 1183 688 1183 694 q 1176 682 1183 682 q 1082 639 1118 682 q 1000 478 1046 596 l 807 -3 q 799 -6 804 -6 l 785 -6 q 779 -3 782 -6 z "},"Ẃ":{"ha":1364,"x_min":-14,"x_max":1386,"o":"m 646 1046 q 640 1043 643 1043 q 635 1049 635 1043 q 639 1054 635 1050 q 708 1131 669 1083 q 774 1218 746 1179 q 806 1261 801 1257 q 839 1269 814 1269 q 864 1265 860 1269 q 868 1239 868 1261 q 851 1215 868 1228 l 769 1153 q 646 1046 689 1090 m 515 133 l 675 486 l 567 740 q 496 889 518 850 q 456 939 474 928 q 400 950 439 950 l 389 950 q 379 956 379 950 q 388 963 379 963 q 463 960 410 963 q 525 958 517 958 q 595 960 533 958 q 679 963 657 963 q 688 956 688 963 q 679 950 688 950 l 668 950 q 621 915 621 950 q 678 725 621 860 l 738 586 l 794 725 q 836 885 836 819 q 788 951 836 951 q 768 949 781 951 q 754 947 756 947 q 746 954 746 947 q 761 963 746 963 q 826 961 774 963 q 890 960 879 960 q 956 961 897 960 q 1032 963 1014 963 q 1040 957 1039 963 q 1032 950 1038 951 l 996 950 q 902 898 943 950 q 811 719 861 846 l 746 565 l 935 126 q 942 119 938 119 q 947 126 944 119 l 1158 676 q 1207 882 1207 807 q 1136 951 1207 951 q 1115 949 1131 951 q 1097 946 1100 946 q 1088 954 1088 946 q 1104 963 1088 963 q 1183 961 1118 963 q 1260 960 1249 960 q 1313 961 1268 960 q 1378 963 1358 963 q 1386 957 1385 963 q 1378 950 1383 951 l 1374 950 q 1278 884 1324 950 q 1176 669 1233 818 l 917 -1 q 907 -6 914 -6 l 893 -6 q 883 -1 885 -6 l 683 464 l 475 0 q 467 -4 472 -4 l 456 -4 q 444 0 447 -4 l 189 674 q 107 867 135 813 q 58 935 79 921 q -3 950 38 950 l -6 950 q -14 956 -14 950 q -7 963 -14 963 q 65 960 15 963 q 122 958 114 958 q 213 960 131 958 q 317 963 294 963 q 326 956 326 963 q 318 950 325 950 l 282 950 q 221 911 224 950 q 324 603 221 867 l 503 133 q 510 126 506 126 q 515 133 513 126 z "},"ẃ":{"ha":1151,"x_min":-28,"x_max":1183,"o":"m 513 776 q 507 774 510 774 q 501 779 501 774 q 506 785 501 781 q 574 862 536 814 q 640 949 613 910 q 672 992 668 988 q 706 1000 681 1000 q 731 996 726 1000 q 735 969 735 992 q 718 946 735 958 l 636 883 q 513 776 556 821 m 779 -3 l 567 536 l 340 -3 q 336 -6 338 -6 l 321 -6 q 315 -3 318 -6 l 129 504 q 61 651 89 619 q -22 682 33 682 q -28 688 -28 682 q -22 694 -28 694 q 37 693 -19 694 q 103 692 93 692 q 178 693 110 692 q 265 694 247 694 q 272 692 269 694 q 272 685 274 689 q 265 682 269 682 q 208 675 222 682 q 197 640 194 668 q 222 546 199 613 l 376 126 l 550 531 q 551 576 554 544 q 538 626 549 607 q 449 682 510 682 q 440 689 440 682 q 447 694 440 694 q 519 693 465 694 q 578 692 572 692 q 636 693 585 692 q 704 694 688 694 q 714 688 714 694 q 706 682 713 682 q 640 663 646 682 q 671 546 635 644 l 839 118 l 988 488 q 1010 601 1018 558 q 976 663 1003 644 q 907 682 950 682 q 899 689 899 682 q 906 694 899 694 q 984 693 925 694 q 1049 692 1043 692 q 1114 693 1057 692 q 1175 694 1171 694 q 1183 688 1183 694 q 1176 682 1183 682 q 1082 639 1118 682 q 1000 478 1046 596 l 807 -3 q 799 -6 804 -6 l 785 -6 q 779 -3 782 -6 z "},"Ẅ":{"ha":1364,"x_min":-14,"x_max":1386,"o":"m 801 1105 q 791 1115 801 1105 q 781 1153 781 1125 q 801 1201 781 1181 q 849 1222 821 1222 q 897 1201 876 1222 q 918 1153 918 1181 q 897 1105 918 1125 q 849 1085 876 1085 q 801 1105 821 1085 m 526 1105 q 516 1115 526 1105 q 506 1153 506 1125 q 526 1201 506 1181 q 574 1222 546 1222 q 622 1201 601 1222 q 643 1153 643 1181 q 622 1105 643 1125 q 574 1085 601 1085 q 526 1105 546 1085 m 515 133 l 675 486 l 567 740 q 496 889 518 850 q 456 939 474 928 q 400 950 439 950 l 389 950 q 379 956 379 950 q 388 963 379 963 q 463 960 410 963 q 525 958 517 958 q 595 960 533 958 q 679 963 657 963 q 688 956 688 963 q 679 950 688 950 l 668 950 q 621 915 621 950 q 678 725 621 860 l 738 586 l 794 725 q 836 885 836 819 q 788 951 836 951 q 768 949 781 951 q 754 947 756 947 q 746 954 746 947 q 761 963 746 963 q 826 961 774 963 q 890 960 879 960 q 956 961 897 960 q 1032 963 1014 963 q 1040 957 1039 963 q 1032 950 1038 951 l 996 950 q 902 898 943 950 q 811 719 861 846 l 746 565 l 935 126 q 942 119 938 119 q 947 126 944 119 l 1158 676 q 1207 882 1207 807 q 1136 951 1207 951 q 1115 949 1131 951 q 1097 946 1100 946 q 1088 954 1088 946 q 1104 963 1088 963 q 1183 961 1118 963 q 1260 960 1249 960 q 1313 961 1268 960 q 1378 963 1358 963 q 1386 957 1385 963 q 1378 950 1383 951 l 1374 950 q 1278 884 1324 950 q 1176 669 1233 818 l 917 -1 q 907 -6 914 -6 l 893 -6 q 883 -1 885 -6 l 683 464 l 475 0 q 467 -4 472 -4 l 456 -4 q 444 0 447 -4 l 189 674 q 107 867 135 813 q 58 935 79 921 q -3 950 38 950 l -6 950 q -14 956 -14 950 q -7 963 -14 963 q 65 960 15 963 q 122 958 114 958 q 213 960 131 958 q 317 963 294 963 q 326 956 326 963 q 318 950 325 950 l 282 950 q 221 911 224 950 q 324 603 221 867 l 503 133 q 510 126 506 126 q 515 133 513 126 z "},"ẅ":{"ha":1151,"x_min":-28,"x_max":1183,"o":"m 390 842 q 380 852 390 842 q 369 890 369 863 q 390 939 369 918 q 438 960 410 960 q 486 939 465 960 q 507 890 507 918 q 486 842 507 863 q 438 822 465 822 q 390 842 410 822 m 665 842 q 655 852 665 842 q 644 890 644 863 q 665 939 644 918 q 713 960 685 960 q 761 939 740 960 q 782 890 782 918 q 761 842 782 863 q 713 822 740 822 q 665 842 685 822 m 779 -3 l 567 536 l 340 -3 q 336 -6 338 -6 l 321 -6 q 315 -3 318 -6 l 129 504 q 61 651 89 619 q -22 682 33 682 q -28 688 -28 682 q -22 694 -28 694 q 37 693 -19 694 q 103 692 93 692 q 178 693 110 692 q 265 694 247 694 q 272 692 269 694 q 272 685 274 689 q 265 682 269 682 q 208 675 222 682 q 197 640 194 668 q 222 546 199 613 l 376 126 l 550 531 q 551 576 554 544 q 538 626 549 607 q 449 682 510 682 q 440 689 440 682 q 447 694 440 694 q 519 693 465 694 q 578 692 572 692 q 636 693 585 692 q 704 694 688 694 q 714 688 714 694 q 706 682 713 682 q 640 663 646 682 q 671 546 635 644 l 839 118 l 988 488 q 1010 601 1018 558 q 976 663 1003 644 q 907 682 950 682 q 899 689 899 682 q 906 694 899 694 q 984 693 925 694 q 1049 692 1043 692 q 1114 693 1057 692 q 1175 694 1171 694 q 1183 688 1183 694 q 1176 682 1183 682 q 1082 639 1118 682 q 1000 478 1046 596 l 807 -3 q 799 -6 804 -6 l 785 -6 q 779 -3 782 -6 z "},"‒":{"ha":856,"x_min":90,"x_max":772,"o":"m 432 349 q 764 357 631 349 q 772 340 772 351 q 765 324 772 328 q 429 333 588 333 q 99 324 274 333 q 90 340 90 328 q 97 357 90 351 q 432 349 239 349 z "},"–":{"ha":694,"x_min":90,"x_max":594,"o":"m 342 349 q 586 357 453 349 q 594 340 594 351 q 588 324 594 328 q 339 333 451 333 q 99 324 228 333 q 91 340 90 328 q 97 357 92 351 q 342 349 239 349 z "},"—":{"ha":1389,"x_min":90,"x_max":1297,"o":"m 704 349 q 1289 357 1153 349 q 1297 340 1297 351 q 1290 324 1297 328 q 701 333 1154 333 q 99 324 274 333 q 90 340 90 328 q 97 357 90 351 q 704 349 236 349 z "},"―":{"ha":1972,"x_min":90,"x_max":1875,"o":"m 996 349 q 1867 357 1733 349 q 1875 340 1875 351 q 1868 324 1875 328 q 993 333 1690 333 q 99 324 271 333 q 90 340 90 328 q 97 357 90 351 q 996 349 236 349 z "},"‖":{"ha":585,"x_min":165,"x_max":422,"o":"m 406 343 q 414 -369 406 -100 q 374 -383 393 -387 q 388 342 388 -93 q 379 1075 388 700 q 422 1083 397 1089 q 406 343 406 779 m 197 343 q 206 -369 197 -100 q 185 -384 192 -382 q 165 -383 179 -386 q 179 342 179 -93 q 171 1075 179 700 q 214 1083 189 1089 q 197 343 197 779 z "},"‘":{"ha":374,"x_min":97,"x_max":292,"o":"m 233 969 q 240 967 239 971 q 238 961 242 964 q 169 926 199 949 q 140 876 140 903 q 204 833 140 847 q 214 831 211 832 q 292 758 292 814 q 269 703 292 725 q 207 681 246 681 q 128 714 158 681 q 97 801 97 747 q 233 969 97 921 z "},"’":{"ha":374,"x_min":100,"x_max":293,"o":"m 158 682 q 151 684 153 681 q 154 690 150 688 q 251 776 251 722 q 235 810 251 800 q 181 828 219 819 q 120 852 140 836 q 100 897 100 868 q 122 951 100 931 q 185 971 144 971 q 263 935 233 971 q 293 844 293 900 q 158 682 293 729 z "},"‚":{"ha":374,"x_min":100,"x_max":293,"o":"m 158 -137 q 151 -135 153 -139 q 154 -129 150 -132 q 251 -43 251 -97 q 235 -10 251 -19 q 181 8 219 0 q 120 33 140 17 q 100 78 100 49 q 122 131 100 111 q 185 151 144 151 q 263 116 233 151 q 293 25 293 81 q 158 -137 293 -90 z "},"‛":{"ha":374,"x_min":97,"x_max":290,"o":"m 232 682 q 97 844 97 729 q 127 935 97 900 q 206 971 157 971 q 268 951 246 971 q 290 897 290 931 q 270 852 290 868 q 210 828 250 836 q 155 810 171 819 q 139 776 139 800 q 236 690 139 722 q 239 684 240 688 q 232 682 238 681 z "},"“":{"ha":636,"x_min":97,"x_max":554,"o":"m 496 969 q 503 967 501 971 q 500 961 504 964 q 432 926 461 949 q 403 876 403 903 q 467 833 403 847 q 472 831 469 832 q 476 831 474 831 q 554 758 554 814 q 531 703 554 725 q 469 681 508 681 q 390 716 421 681 q 360 806 360 751 q 496 969 360 921 m 233 969 q 240 967 239 971 q 238 961 242 964 q 169 926 199 949 q 140 876 140 903 q 204 833 140 847 q 214 831 211 832 q 292 758 292 814 q 269 703 292 725 q 207 681 246 681 q 128 714 158 681 q 97 801 97 747 q 233 969 97 921 z "},"”":{"ha":636,"x_min":97,"x_max":553,"o":"m 418 682 q 411 684 413 681 q 414 690 410 688 q 511 776 511 722 q 495 810 511 800 q 440 828 479 819 q 380 852 400 836 q 360 897 360 868 q 382 951 360 931 q 444 971 404 971 q 523 935 493 971 q 553 844 553 900 q 418 682 553 729 m 156 682 q 149 684 150 681 q 151 690 147 688 q 249 776 249 722 q 233 810 249 800 q 178 828 217 819 q 117 852 138 836 q 97 897 97 868 q 119 951 97 931 q 182 971 142 971 q 260 935 231 971 q 290 844 290 900 q 156 682 290 729 z "},"„":{"ha":636,"x_min":99,"x_max":554,"o":"m 419 -137 q 413 -135 414 -139 q 415 -129 411 -132 q 513 -43 513 -97 q 497 -10 513 -19 q 442 8 481 0 q 381 33 401 17 q 361 78 361 49 q 383 131 361 111 q 446 151 406 151 q 524 116 494 151 q 554 25 554 81 q 419 -137 554 -90 m 157 -137 q 150 -135 151 -139 q 153 -129 149 -132 q 250 -43 250 -97 q 234 -10 250 -19 q 179 8 218 0 q 119 33 139 17 q 99 78 99 49 q 121 131 99 111 q 183 151 143 151 q 262 116 232 151 q 292 25 292 81 q 157 -137 292 -90 z "},"‟":{"ha":636,"x_min":100,"x_max":556,"o":"m 235 682 q 100 844 100 729 q 130 935 100 900 q 208 971 160 971 q 271 951 249 971 q 293 897 293 931 q 273 852 293 868 q 213 828 253 836 q 158 810 174 819 q 142 776 142 800 q 239 690 142 722 q 242 684 243 688 q 235 682 240 681 m 497 682 q 363 844 363 729 q 392 935 363 900 q 471 971 422 971 q 533 951 511 971 q 556 897 556 931 q 535 852 556 868 q 475 828 515 836 q 420 810 436 819 q 404 776 404 800 q 501 690 404 722 q 504 684 506 688 q 497 682 503 681 z "},"†":{"ha":857,"x_min":86,"x_max":769,"o":"m 278 638 l 389 638 q 381 857 389 794 q 358 935 374 919 q 300 950 343 950 l 271 950 q 263 956 263 950 q 271 963 263 963 q 357 960 292 963 q 429 958 422 958 q 501 960 438 958 q 586 963 564 963 q 594 956 594 963 q 586 950 594 950 l 557 950 q 523 949 533 950 q 500 937 513 947 q 483 909 488 926 q 474 853 479 892 q 469 767 469 815 q 468 638 468 718 l 576 638 q 700 645 664 638 q 747 670 736 653 q 757 732 757 688 l 757 738 q 763 746 757 746 q 769 738 769 746 q 767 664 769 715 q 765 604 765 613 q 767 544 765 597 q 769 471 769 492 q 763 463 769 463 q 757 471 757 463 l 757 475 q 728 554 757 539 q 576 569 700 569 l 468 569 l 468 151 q 470 -48 468 14 q 483 -148 472 -110 q 508 -191 494 -186 q 557 -196 522 -196 l 586 -196 q 594 -202 594 -196 q 586 -208 594 -208 q 501 -206 564 -208 q 429 -204 438 -204 q 357 -206 422 -204 q 271 -208 292 -208 q 263 -202 263 -208 q 271 -196 263 -196 l 300 -196 q 349 -191 335 -196 q 374 -148 363 -186 q 387 -48 385 -110 q 389 151 389 14 l 389 569 l 278 569 q 154 562 190 569 q 108 537 118 554 q 99 475 99 519 l 99 471 q 92 463 99 463 q 86 471 86 463 q 88 544 86 492 q 90 604 90 597 q 88 664 90 613 q 86 738 86 715 q 92 746 86 746 q 99 738 99 746 l 99 732 q 108 670 99 688 q 154 645 118 653 q 278 638 190 638 z "},"‡":{"ha":857,"x_min":86,"x_max":769,"o":"m 278 247 l 389 247 l 389 569 l 278 569 q 154 562 190 569 q 108 537 118 554 q 99 475 99 519 l 99 471 q 92 463 99 463 q 86 471 86 463 q 88 544 86 492 q 90 604 90 597 q 88 664 90 613 q 86 738 86 715 q 92 746 86 746 q 99 738 99 746 l 99 732 q 108 670 99 688 q 154 645 118 653 q 278 638 190 638 l 389 638 q 381 857 389 794 q 358 935 374 919 q 300 950 343 950 l 271 950 q 263 956 263 950 q 271 963 263 963 q 357 960 292 963 q 429 958 422 958 q 501 960 438 958 q 586 963 564 963 q 594 956 594 963 q 586 950 594 950 l 557 950 q 523 949 533 950 q 500 937 513 947 q 483 909 488 926 q 474 853 479 892 q 469 767 469 815 q 468 638 468 718 l 576 638 q 700 645 664 638 q 747 670 736 653 q 757 732 757 688 l 757 738 q 763 746 757 746 q 769 738 769 746 q 767 664 769 715 q 765 604 765 613 q 767 544 765 597 q 769 471 769 492 q 763 463 769 463 q 757 471 757 463 l 757 475 q 728 554 757 539 q 576 569 700 569 l 468 569 l 468 247 l 576 247 q 700 255 664 247 q 747 280 736 263 q 757 342 757 297 l 757 347 q 763 356 757 356 q 769 347 769 356 q 767 274 769 325 q 765 214 765 222 q 767 154 765 207 q 769 81 769 101 q 763 72 769 72 q 757 81 757 72 l 757 85 q 728 164 757 149 q 576 179 700 179 l 468 179 l 468 151 q 470 -48 468 14 q 483 -148 472 -110 q 508 -191 494 -186 q 557 -196 522 -196 l 586 -196 q 594 -202 594 -196 q 586 -208 594 -208 q 501 -206 564 -208 q 429 -204 438 -204 q 357 -206 422 -204 q 271 -208 292 -208 q 263 -202 263 -208 q 271 -196 263 -196 l 300 -196 q 349 -191 335 -196 q 374 -148 363 -186 q 387 -48 385 -110 q 389 151 389 14 l 389 179 l 278 179 q 154 172 190 179 q 108 147 118 164 q 99 85 99 129 l 99 81 q 92 72 99 72 q 86 81 86 72 q 88 154 86 101 q 90 214 90 207 q 88 274 90 222 q 86 347 86 325 q 92 356 86 356 q 99 347 99 356 l 99 342 q 108 280 99 297 q 154 255 118 263 q 278 247 190 247 z "},"•":{"ha":503,"x_min":132,"x_max":374,"o":"m 132 354 q 166 440 132 404 q 253 475 200 475 q 337 439 300 475 q 374 354 374 403 q 338 267 374 301 q 253 233 303 233 q 166 267 200 233 q 132 354 132 301 z "},"…":{"ha":950,"x_min":67,"x_max":883,"o":"m 722 75 q 746 132 722 108 q 803 156 769 156 q 859 131 835 156 q 883 75 883 107 q 860 18 883 42 q 803 -6 836 -6 q 745 17 768 -6 q 722 75 722 40 m 394 75 q 418 132 394 108 q 475 156 442 156 q 531 131 507 156 q 556 75 556 107 q 532 18 556 42 q 475 -6 508 -6 q 417 17 440 -6 q 394 75 394 40 m 67 75 q 90 132 67 108 q 147 156 114 156 q 203 131 179 156 q 228 75 228 107 q 204 18 228 42 q 147 -6 181 -6 q 90 17 113 -6 q 67 75 67 40 z "},"‰":{"ha":1661,"x_min":56,"x_max":1601,"o":"m 1246 403 q 1218 238 1218 364 q 1383 43 1218 43 q 1489 65 1451 43 q 1518 232 1518 97 q 1481 379 1518 333 q 1357 425 1443 425 q 1246 403 1285 425 m 1239 413 q 1315 453 1267 432 q 1399 474 1364 474 q 1552 420 1503 474 q 1601 254 1601 367 q 1569 138 1601 189 q 1497 58 1538 86 q 1336 -10 1403 -10 q 1138 204 1138 -10 q 1168 328 1138 272 q 1239 413 1199 383 m 164 900 q 136 735 136 861 q 301 540 136 540 q 407 563 369 540 q 436 729 436 594 q 399 876 436 831 q 275 922 361 922 q 164 900 203 922 m 157 910 q 233 950 185 929 q 317 971 282 971 q 470 917 421 971 q 519 751 519 864 q 488 635 519 686 q 415 556 456 583 q 254 488 321 488 q 56 701 56 488 q 86 825 56 769 q 157 910 117 881 m 664 403 q 636 238 636 364 q 801 43 636 43 q 907 65 869 43 q 936 232 936 97 q 899 379 936 333 q 775 425 861 425 q 664 403 703 425 m 657 413 q 733 453 685 432 q 817 474 782 474 q 970 420 921 474 q 1019 254 1019 367 q 988 138 1019 189 q 915 58 956 86 q 754 -10 821 -10 q 556 204 556 -10 q 586 328 556 272 q 657 413 617 383 m 533 472 q 414 326 479 407 q 270 146 349 244 q 153 -1 192 47 q 96 -1 114 -10 q 517 475 342 272 q 910 961 740 747 q 958 958 936 967 q 533 472 713 690 z "},"‴":{"ha":551,"x_min":75,"x_max":476,"o":"m 409 973 q 415 979 409 973 q 436 985 421 985 q 464 973 451 985 q 476 944 476 961 q 467 876 476 936 q 450 734 458 817 q 442 588 442 651 q 438 579 442 582 q 431 579 435 576 q 428 588 428 582 q 420 734 428 651 q 405 876 413 817 q 397 944 397 936 q 409 973 397 961 m 248 973 q 254 979 248 973 q 275 985 260 985 q 303 973 290 985 q 315 944 315 961 q 306 876 315 936 q 289 734 297 817 q 281 588 281 651 q 277 579 281 582 q 270 579 274 576 q 267 588 267 582 q 259 734 267 651 q 244 876 251 817 q 236 944 236 936 q 248 973 236 961 m 87 973 q 93 979 87 973 q 114 985 99 985 q 142 973 129 985 q 154 944 154 961 q 145 876 154 936 q 128 734 136 817 q 119 588 119 651 q 116 579 119 582 q 109 579 113 576 q 106 588 106 582 q 98 734 106 651 q 83 876 90 817 q 75 944 75 936 q 87 973 75 961 z "},"‹":{"ha":615,"x_min":68,"x_max":493,"o":"m 92 346 l 92 344 q 289 204 129 314 q 465 81 449 94 q 493 29 493 53 q 467 -1 493 -1 q 411 31 447 -1 q 243 188 375 61 q 75 344 111 314 q 75 358 68 351 q 251 523 118 396 q 411 674 385 650 q 461 706 447 706 q 493 675 493 706 q 465 622 493 646 q 292 501 453 611 q 92 357 131 392 q 92 346 85 353 z "},"›":{"ha":615,"x_min":118,"x_max":543,"o":"m 519 360 l 519 361 q 322 501 482 392 q 146 625 163 611 q 118 676 118 653 q 144 707 118 707 q 200 675 164 707 q 368 518 236 644 q 536 361 500 392 q 536 347 543 354 q 367 189 499 315 q 200 32 236 63 q 150 0 164 0 q 118 31 118 0 q 146 83 118 60 q 319 204 158 94 q 519 349 481 314 q 519 360 526 353 z "},"‽":{"ha":549,"x_min":111,"x_max":467,"o":"m 167 75 q 190 132 167 108 q 249 156 214 156 q 304 131 281 156 q 328 75 328 107 q 304 18 328 42 q 247 -6 281 -6 q 190 17 213 -6 q 167 75 167 40 m 251 514 q 403 722 404 606 q 193 885 400 863 q 251 514 229 640 m 182 321 q 183 373 182 322 q 184 498 183 424 q 185 650 185 572 q 187 794 186 728 q 188 886 188 861 q 125 889 146 889 q 111 897 111 889 q 120 936 111 904 q 141 1010 129 968 q 157 1068 153 1053 q 165 1067 165 1082 q 153 988 153 989 q 178 982 154 982 q 390 922 314 982 q 467 779 467 861 q 399 618 467 700 q 254 499 331 536 q 265 438 256 486 q 283 349 275 390 q 289 300 290 307 q 263 281 289 296 q 210 253 236 265 q 183 243 183 240 q 182 321 182 253 z "},"⁄":{"ha":883,"x_min":74,"x_max":810,"o":"m 440 483 q 803 492 669 483 q 810 474 810 486 q 803 458 810 463 q 442 468 628 468 q 81 458 256 468 q 74 474 74 463 q 81 492 74 486 q 440 483 217 483 z "},"⁰":{"ha":588,"x_min":63,"x_max":526,"o":"m 171 894 q 143 733 143 856 q 187 585 143 635 q 308 535 231 535 q 414 557 376 535 q 443 717 443 589 q 406 868 443 819 q 282 917 368 917 q 171 894 210 917 m 164 904 q 240 944 192 924 q 324 965 289 965 q 526 739 526 965 q 422 550 526 621 q 261 482 328 482 q 63 700 63 482 q 93 821 63 768 q 164 904 124 874 z "},"⁴":{"ha":515,"x_min":21,"x_max":489,"o":"m 82 678 l 257 678 l 257 876 q 174 783 231 844 q 82 678 118 721 m 329 678 l 376 678 q 445 690 428 678 q 469 746 463 701 l 475 779 q 483 786 476 788 q 488 779 489 786 l 483 751 q 464 619 467 622 q 418 617 461 617 l 329 617 l 329 588 q 340 512 329 526 q 401 497 351 497 q 407 491 407 497 q 401 485 407 485 q 342 485 389 485 q 290 486 296 486 q 239 485 286 486 q 179 485 192 485 q 174 491 174 485 q 179 497 174 497 q 245 512 233 497 q 257 588 257 526 l 257 617 l 101 617 q 69 615 96 617 q 35 614 43 614 q 31 629 21 613 q 72 683 36 639 q 126 749 92 707 q 178 813 160 790 q 226 876 196 836 q 289 961 257 915 q 314 978 297 974 q 341 978 333 983 q 342 961 349 974 q 329 897 329 935 l 329 678 z "},"⁵":{"ha":476,"x_min":50,"x_max":415,"o":"m 415 626 q 367 515 415 557 q 233 474 319 474 q 54 536 125 474 q 51 544 50 539 q 55 550 51 549 q 63 549 58 551 q 126 509 97 521 q 199 497 154 497 q 290 533 258 497 q 322 624 322 568 q 290 711 322 681 q 206 742 257 742 q 83 688 153 742 q 76 688 81 685 q 72 693 72 690 l 68 928 q 91 948 68 932 q 118 964 114 964 q 177 963 124 964 q 249 963 231 963 l 371 963 q 408 960 408 963 q 406 931 408 954 q 399 875 403 908 q 394 828 396 842 l 392 799 q 388 792 392 794 q 381 792 385 790 q 378 799 378 794 l 381 828 q 377 863 381 851 q 356 884 374 875 q 303 893 339 893 l 140 893 l 125 728 q 256 768 192 768 q 376 730 336 768 q 415 626 415 692 z "},"⁶":{"ha":494,"x_min":60,"x_max":449,"o":"m 60 674 q 131 857 60 769 q 324 985 201 944 q 333 982 332 989 q 328 975 333 978 q 219 894 263 949 q 160 788 175 840 q 144 682 144 735 q 184 563 144 606 q 282 521 224 521 q 354 532 336 521 q 372 622 372 565 q 340 714 372 685 q 260 743 308 743 q 185 711 217 743 q 174 708 178 704 q 176 719 169 713 q 242 766 201 744 q 317 788 282 788 q 410 752 372 788 q 449 661 449 717 q 363 522 449 578 q 240 475 289 475 q 109 526 158 475 q 60 674 60 576 z "},"⁷":{"ha":474,"x_min":63,"x_max":432,"o":"m 221 486 q 167 485 217 486 q 108 485 118 485 q 100 490 101 485 q 110 497 103 496 l 128 497 q 195 531 160 494 q 260 628 231 568 l 392 882 l 167 882 q 100 866 118 882 q 79 807 82 850 l 75 746 q 72 741 75 743 q 66 741 69 739 q 63 747 63 743 l 65 807 q 69 958 69 847 q 97 961 69 961 l 206 961 q 322 962 222 961 q 428 963 422 963 q 431 952 429 963 q 431 931 432 942 q 429 918 431 919 q 278 624 353 781 q 258 546 260 581 q 292 496 258 496 q 308 497 299 496 q 318 499 317 499 q 326 492 326 499 q 318 485 326 485 q 269 485 311 485 q 221 486 226 486 z "},"⁸":{"ha":482,"x_min":50,"x_max":418,"o":"m 333 860 q 299 915 333 890 q 215 939 264 939 q 156 926 174 939 q 133 879 133 899 q 142 847 133 861 q 172 819 151 832 q 208 797 192 806 q 256 775 224 789 q 303 754 289 761 q 333 860 333 788 m 169 547 q 193 531 169 547 q 267 515 217 515 q 338 529 317 515 q 361 576 361 549 q 340 631 361 607 q 294 667 318 656 q 225 698 269 679 q 161 726 181 717 q 122 619 122 692 q 169 547 122 578 m 82 826 q 150 932 82 883 q 268 976 219 976 q 363 948 322 976 q 403 886 403 919 q 400 863 403 874 q 394 842 397 851 q 383 823 390 833 q 370 806 375 813 q 354 790 365 800 q 339 776 343 779 q 322 763 335 774 q 308 751 310 753 q 418 642 418 703 q 343 521 418 576 q 210 478 281 478 q 97 510 144 478 q 50 594 50 542 q 156 729 50 668 q 82 826 82 767 z "},"⁹":{"ha":499,"x_min":51,"x_max":444,"o":"m 444 760 q 367 562 444 640 q 160 467 290 483 q 150 472 151 465 q 156 476 150 475 q 311 571 264 494 q 358 736 358 647 q 207 932 358 932 q 142 919 161 932 q 126 825 126 885 q 157 732 126 763 q 236 701 188 701 q 322 728 281 701 q 335 729 335 736 q 331 721 335 725 q 179 653 253 653 q 88 688 124 653 q 51 779 51 722 q 132 928 51 864 q 267 972 206 972 q 394 915 344 972 q 444 760 444 857 z "},"⁺":{"ha":608,"x_min":122,"x_max":483,"o":"m 289 897 q 306 904 294 904 q 322 897 318 904 q 311 731 311 867 q 476 740 401 731 q 483 724 483 736 q 476 707 483 713 q 311 714 444 711 q 322 550 311 631 q 306 543 318 543 q 289 550 294 543 q 294 714 294 594 q 129 707 158 711 q 122 724 122 713 q 129 740 122 736 q 294 731 158 731 q 289 897 294 854 z "},"⁻":{"ha":608,"x_min":122,"x_max":483,"o":"m 303 713 q 129 707 172 713 q 122 724 122 713 q 129 740 122 736 q 301 732 154 732 q 476 740 411 732 q 483 724 483 736 q 476 707 483 713 q 303 713 428 713 z "},"⁼":{"ha":608,"x_min":122,"x_max":483,"o":"m 303 628 q 129 622 172 628 q 122 640 122 628 q 129 656 122 651 q 301 647 154 647 q 476 656 411 647 q 483 640 483 651 q 476 622 483 628 q 303 628 428 628 m 303 796 q 129 790 172 796 q 122 808 122 796 q 129 824 122 819 q 301 815 154 815 q 476 824 411 815 q 483 808 483 819 q 476 790 483 796 q 303 796 428 796 z "},"⁽":{"ha":304,"x_min":96,"x_max":303,"o":"m 96 697 q 150 907 96 806 q 289 1064 204 1008 q 299 1064 296 1068 q 296 1056 303 1060 q 188 906 224 1001 q 151 697 151 810 q 292 335 151 439 q 293 325 300 328 l 285 326 q 147 482 199 379 q 96 697 96 585 z "},"⁾":{"ha":304,"x_min":1,"x_max":208,"o":"m 208 697 q 157 482 208 585 q 19 326 106 379 q 10 329 8 321 q 13 335 10 332 q 153 697 153 439 q 117 906 153 810 q 8 1056 81 1001 q 5 1064 1 1060 q 15 1064 8 1068 q 154 907 100 1008 q 208 697 208 806 z "},"₀":{"ha":588,"x_min":63,"x_max":526,"o":"m 171 410 q 143 249 143 371 q 187 100 143 150 q 308 50 231 50 q 414 72 376 50 q 443 232 443 104 q 406 383 443 335 q 282 432 368 432 q 171 410 210 432 m 164 419 q 240 460 192 439 q 324 481 289 481 q 526 254 526 481 q 422 65 526 136 q 261 -3 328 -3 q 63 215 63 -3 q 93 336 63 283 q 164 419 124 389 z "},"₁":{"ha":296,"x_min":44,"x_max":265,"o":"m 47 13 l 72 13 q 108 33 101 13 q 115 119 115 54 l 115 369 q 104 413 115 407 q 54 401 93 418 q 48 404 50 400 q 50 411 46 408 q 179 492 108 432 q 186 492 181 493 q 192 489 192 492 l 192 119 q 199 33 192 53 q 236 13 206 13 l 263 13 q 265 6 265 13 q 263 0 265 0 q 207 1 251 0 q 154 1 163 1 q 102 1 146 1 q 47 0 58 0 q 44 6 44 0 q 47 13 44 13 z "},"₂":{"ha":515,"x_min":63,"x_max":457,"o":"m 188 -1 q 138 -2 168 -1 q 87 -3 108 -3 q 63 -3 65 -3 l 63 8 q 64 21 63 19 q 130 73 89 42 q 193 126 171 104 q 309 261 276 204 q 342 383 342 318 q 244 479 342 479 q 142 404 182 479 q 103 242 103 329 q 97 236 103 236 q 90 242 90 236 q 80 365 90 289 q 69 442 69 440 q 76 457 69 457 q 247 492 189 492 q 442 365 442 492 q 419 301 442 333 q 372 249 397 269 q 292 186 347 228 q 206 118 238 144 q 178 95 193 108 q 157 78 163 82 q 339 79 288 78 q 391 81 376 79 q 418 94 406 83 q 435 129 431 104 l 443 188 q 450 199 444 197 q 457 193 456 200 q 456 188 457 190 l 447 128 q 426 0 433 7 q 390 -3 424 -3 q 294 -2 383 -3 q 188 -1 206 -1 z "},"₃":{"ha":486,"x_min":53,"x_max":435,"o":"m 178 8 q 302 47 260 8 q 344 143 344 86 q 243 246 344 246 q 180 219 211 246 q 146 192 149 192 q 137 200 139 192 q 136 217 135 208 l 139 226 q 265 298 218 253 q 313 403 313 343 q 228 481 313 479 q 123 419 158 481 q 88 276 88 357 q 84 272 88 274 q 78 271 81 269 q 75 275 75 272 q 69 382 75 322 l 63 442 q 69 457 63 457 q 100 467 76 460 q 134 478 124 475 q 165 485 144 481 q 204 491 185 489 q 246 493 224 493 q 406 399 406 493 q 397 357 406 375 q 364 323 388 339 q 324 299 340 307 q 267 272 308 290 q 208 247 225 254 q 289 263 254 263 q 435 142 435 263 q 383 29 435 69 q 231 -11 332 -11 q 64 18 154 -11 q 56 28 53 22 q 67 31 58 33 q 178 8 140 8 z "},"₄":{"ha":515,"x_min":21,"x_max":489,"o":"m 82 193 l 257 193 l 257 392 q 174 298 231 360 q 82 193 118 236 m 329 193 l 376 193 q 445 205 428 193 q 469 261 463 217 l 475 294 q 483 301 476 303 q 488 294 489 301 l 483 267 q 464 135 467 138 q 418 132 461 132 l 329 132 l 329 103 q 340 27 329 42 q 401 13 351 13 q 407 6 407 13 q 401 0 407 0 q 342 1 389 0 q 290 1 296 1 q 239 1 286 1 q 179 0 192 0 q 174 6 174 0 q 179 13 174 13 q 245 27 233 13 q 257 103 257 42 l 257 132 l 101 132 q 69 131 96 132 q 35 129 43 129 q 31 144 21 128 q 72 199 36 154 q 126 264 92 222 q 178 328 160 306 q 226 391 196 351 q 289 476 257 431 q 314 493 297 489 q 341 494 333 499 q 342 476 349 489 q 329 413 329 450 l 329 193 z "},"₅":{"ha":476,"x_min":50,"x_max":415,"o":"m 415 142 q 367 31 415 72 q 233 -11 319 -11 q 54 51 125 -11 q 51 59 50 54 q 55 65 51 64 q 63 64 58 67 q 126 24 97 36 q 199 13 154 13 q 290 48 258 13 q 322 139 322 83 q 290 226 322 196 q 206 257 257 257 q 83 203 153 257 q 76 203 81 200 q 72 208 72 206 l 68 443 q 91 463 68 447 q 118 479 114 479 q 177 478 124 479 q 249 478 231 478 l 371 478 q 408 475 408 478 q 406 447 408 469 q 399 390 403 424 q 394 343 396 357 l 392 314 q 388 308 392 310 q 381 308 385 306 q 378 314 378 310 l 381 343 q 377 378 381 367 q 356 399 374 390 q 303 408 339 408 l 140 408 l 125 243 q 256 283 192 283 q 376 245 336 283 q 415 142 415 207 z "},"₆":{"ha":494,"x_min":60,"x_max":449,"o":"m 60 189 q 131 372 60 285 q 324 500 201 460 q 333 498 331 503 q 328 490 335 493 q 219 410 263 464 q 160 303 175 356 q 144 197 144 250 q 184 78 144 121 q 282 36 224 36 q 354 47 336 36 q 372 138 372 81 q 340 229 372 200 q 260 258 308 258 q 185 226 217 258 q 174 224 178 219 q 176 235 169 228 q 242 281 201 260 q 317 303 282 303 q 410 267 372 303 q 449 176 449 232 q 363 38 449 93 q 240 -10 289 -10 q 109 41 158 -10 q 60 189 60 92 z "},"₇":{"ha":474,"x_min":63,"x_max":432,"o":"m 221 1 q 167 1 217 1 q 108 0 118 0 q 100 6 101 0 q 110 13 100 13 l 128 13 q 195 47 160 10 q 260 143 231 83 l 392 397 l 167 397 q 100 381 118 397 q 79 322 82 365 l 75 261 q 72 256 75 258 q 66 256 69 254 q 63 263 63 258 l 65 322 q 69 474 69 363 q 97 476 69 476 l 206 476 q 322 477 222 476 q 428 478 422 478 q 431 467 429 478 q 431 446 432 457 q 429 433 431 435 q 278 139 353 296 q 258 61 260 96 q 292 11 258 11 q 308 13 299 11 q 318 14 317 14 q 326 7 326 14 q 318 0 326 0 q 269 1 311 0 q 221 1 226 1 z "},"₈":{"ha":482,"x_min":50,"x_max":418,"o":"m 333 375 q 299 430 333 406 q 215 454 264 454 q 156 442 174 454 q 133 394 133 414 q 142 362 133 376 q 172 334 151 347 q 208 313 192 321 q 256 290 224 304 q 303 269 289 276 q 333 375 333 303 m 169 62 q 193 46 169 62 q 267 31 217 31 q 338 44 317 31 q 361 92 361 64 q 340 147 361 122 q 294 183 318 171 q 225 213 269 194 q 161 242 181 232 q 122 135 122 207 q 169 62 122 93 m 82 342 q 150 447 82 399 q 268 492 219 492 q 363 463 322 492 q 403 401 403 435 q 400 378 403 389 q 394 358 397 367 q 383 338 390 349 q 370 322 375 328 q 354 305 365 315 q 339 292 343 294 q 322 278 335 289 q 308 267 310 268 q 418 157 418 218 q 343 36 418 92 q 210 -7 281 -7 q 97 25 144 -7 q 50 110 50 57 q 156 244 50 183 q 82 342 82 282 z "},"₉":{"ha":499,"x_min":51,"x_max":444,"o":"m 444 275 q 367 77 444 156 q 160 -18 290 -1 q 150 -12 151 -19 q 156 -8 150 -10 q 311 86 264 10 q 358 251 358 163 q 207 447 358 447 q 142 435 161 447 q 126 340 126 400 q 157 247 126 278 q 236 217 188 217 q 322 243 281 217 q 335 244 335 251 l 331 236 q 179 168 253 168 q 88 203 124 168 q 51 294 51 238 q 132 443 51 379 q 267 488 206 488 q 394 430 344 488 q 444 275 444 372 z "},"₊":{"ha":608,"x_min":122,"x_max":483,"o":"m 289 399 q 306 406 294 406 q 322 399 318 406 q 311 232 311 368 q 476 242 401 232 q 483 226 483 238 q 476 208 483 214 q 311 215 444 213 q 322 51 311 132 q 306 44 318 44 q 289 51 294 44 q 294 215 294 96 q 129 208 158 213 q 122 226 122 214 q 129 242 122 238 q 294 232 158 232 q 289 399 294 356 z "},"₋":{"ha":608,"x_min":122,"x_max":483,"o":"m 303 214 q 129 208 172 214 q 122 226 122 214 q 129 242 122 238 q 301 233 154 233 q 476 242 411 233 q 483 226 483 238 q 476 208 483 214 q 303 214 428 214 z "},"₌":{"ha":608,"x_min":122,"x_max":483,"o":"m 303 129 q 129 124 172 129 q 122 141 122 129 q 129 157 122 153 q 301 149 154 149 q 476 157 411 149 q 483 141 483 153 q 476 124 483 129 q 303 129 428 129 m 303 297 q 129 292 172 297 q 122 309 122 297 q 129 325 122 321 q 301 317 154 317 q 476 325 411 317 q 483 309 483 321 q 476 292 483 297 q 303 297 428 297 z "},"₍":{"ha":304,"x_min":96,"x_max":303,"o":"m 96 199 q 150 408 96 307 q 289 565 204 510 q 299 565 296 569 q 296 557 303 561 q 188 407 224 503 q 151 199 151 311 q 292 -164 151 -60 q 293 -174 300 -171 l 285 -172 q 147 -17 199 -119 q 96 199 96 86 z "},"₎":{"ha":304,"x_min":1,"x_max":208,"o":"m 208 199 q 157 -17 208 86 q 19 -172 106 -119 q 10 -169 8 -178 q 13 -164 10 -167 q 153 199 153 -60 q 117 407 153 311 q 8 557 81 503 q 5 565 1 561 q 15 565 8 569 q 154 408 100 510 q 208 199 208 307 z "},"€":{"ha":1106,"x_min":-26,"x_max":1014,"o":"m 349 357 l 246 357 q 378 97 274 193 q 640 0 482 0 q 895 96 804 0 q 1003 364 986 192 l 1014 364 l 999 47 q 643 -14 858 -14 q 315 88 456 -14 q 132 354 174 190 q -18 346 57 353 q -14 383 -26 364 q 126 376 33 379 q 117 481 117 421 q 131 596 117 546 l -4 586 q 0 624 -12 606 q 136 619 61 619 q 326 878 183 779 q 649 976 469 976 q 836 958 735 976 q 994 915 938 940 l 1011 636 l 999 636 q 651 963 965 963 q 390 869 497 963 q 250 618 283 776 l 407 618 q 831 629 672 618 q 822 594 839 611 q 406 604 589 604 q 247 601 356 604 q 236 481 236 539 q 243 372 236 415 q 350 371 278 371 q 757 382 599 371 q 749 347 765 360 q 349 357 515 357 z "},"℠":{"ha":1139,"x_min":69,"x_max":1103,"o":"m 233 974 q 383 956 308 974 q 396 947 396 951 q 395 924 396 942 q 393 866 394 906 q 392 779 392 826 q 389 773 392 775 q 383 773 386 771 q 381 779 381 775 q 233 964 381 964 q 145 939 174 964 q 117 875 117 914 q 120 849 117 861 q 133 828 124 838 q 149 813 142 819 q 173 798 157 806 q 199 786 189 790 q 230 774 208 782 q 261 761 251 765 q 287 750 265 758 q 315 738 308 742 q 339 726 321 735 q 363 712 357 717 q 381 697 369 707 q 398 677 393 686 q 407 655 403 668 q 411 628 411 642 q 365 523 411 567 q 254 479 318 479 q 85 499 163 479 q 72 507 72 501 q 74 538 72 511 q 76 604 75 564 q 76 683 76 644 q 79 690 76 688 q 85 690 82 692 q 88 683 88 688 q 128 537 89 583 q 254 490 168 490 q 335 516 307 490 q 364 582 364 542 q 358 612 364 599 q 344 634 351 625 q 319 653 338 643 q 292 667 301 663 q 258 681 283 671 q 224 694 232 692 q 100 758 126 733 q 69 828 69 789 q 117 934 69 894 q 233 974 164 974 m 761 622 l 756 622 q 751 626 753 622 l 560 904 l 558 663 q 574 531 558 560 q 626 501 590 501 l 636 501 q 642 494 644 501 q 636 490 642 490 q 588 491 625 490 q 546 492 550 492 q 513 491 542 492 q 474 490 485 490 q 468 497 464 490 q 475 501 469 501 l 482 501 q 531 531 515 501 q 546 663 546 561 q 547 796 546 704 q 547 901 547 888 q 538 929 547 919 q 497 950 521 950 l 493 950 q 490 955 490 950 q 493 960 490 960 q 551 960 522 960 q 596 961 579 961 l 613 963 q 619 960 617 963 q 644 919 628 942 l 796 696 l 924 894 q 979 964 965 964 q 1031 963 983 964 q 1082 961 1078 961 q 1086 956 1086 961 q 1082 950 1086 950 l 1072 950 q 1042 929 1047 950 q 1038 790 1038 908 l 1038 663 q 1044 550 1038 586 q 1060 508 1051 514 q 1089 501 1069 501 l 1099 501 q 1103 496 1103 501 q 1099 490 1103 490 q 1038 491 1088 490 q 985 492 989 492 q 951 491 981 492 q 913 490 922 490 q 907 493 908 490 q 908 499 906 496 q 913 501 910 501 l 925 501 q 955 523 950 501 q 960 663 960 544 l 960 915 q 950 911 958 924 q 947 907 949 910 q 936 890 940 897 l 769 632 q 761 622 764 622 z "},"™":{"ha":1189,"x_min":36,"x_max":1153,"o":"m 390 965 l 392 965 q 471 961 454 965 q 472 940 472 961 q 475 881 472 918 q 482 813 478 843 l 486 775 q 481 767 488 768 q 475 774 476 769 l 471 811 q 432 913 463 871 q 363 954 401 954 l 299 954 l 299 663 q 303 549 299 582 q 315 508 307 515 q 347 501 324 501 l 360 501 q 366 499 364 501 q 366 493 368 496 q 360 490 364 490 q 313 491 349 490 q 274 492 278 492 q 220 491 269 492 q 160 490 171 490 q 153 493 156 490 q 153 499 151 496 q 160 501 156 501 l 172 501 q 204 508 196 501 q 217 549 213 515 q 221 663 221 582 l 221 954 l 157 954 q 89 909 115 954 q 51 807 63 864 l 47 769 q 44 763 47 764 q 38 764 40 761 q 36 771 36 767 l 40 808 q 46 877 44 838 q 47 939 47 917 q 50 961 47 961 q 129 965 63 965 q 196 965 135 965 q 274 964 257 964 q 318 965 283 964 q 390 965 353 965 m 811 622 l 806 622 q 801 626 803 622 l 610 904 l 608 663 q 624 531 608 560 q 676 501 640 501 l 686 501 q 692 494 694 501 q 686 490 692 490 q 638 491 675 490 q 596 492 600 492 q 563 491 592 492 q 524 490 535 490 q 518 497 514 490 q 525 501 519 501 l 532 501 q 581 531 565 501 q 596 663 596 561 q 597 796 596 704 q 597 901 597 888 q 588 929 597 919 q 547 950 571 950 l 543 950 q 540 955 540 950 q 543 960 540 960 q 601 960 572 960 q 646 961 629 961 l 663 963 q 669 960 667 963 q 694 919 678 942 l 846 696 l 974 894 q 1029 964 1015 964 q 1081 963 1033 964 q 1132 961 1128 961 q 1136 956 1136 961 q 1132 950 1136 950 l 1122 950 q 1092 929 1097 950 q 1088 790 1088 908 l 1088 663 q 1094 550 1088 586 q 1110 508 1101 514 q 1139 501 1119 501 l 1149 501 q 1153 496 1153 501 q 1149 490 1153 490 q 1088 491 1138 490 q 1035 492 1039 492 q 1001 491 1031 492 q 963 490 972 490 q 957 493 958 490 q 958 499 956 496 q 963 501 960 501 l 975 501 q 1005 523 1000 501 q 1010 663 1010 544 l 1010 907 q 1000 911 1010 926 q 996 905 997 907 q 992 899 994 903 q 986 890 989 894 l 819 632 q 811 622 814 622 z "},"⅓":{"ha":883,"x_min":74,"x_max":810,"o":"m 440 483 q 803 492 669 483 q 810 474 810 486 q 803 458 810 463 q 442 468 628 468 q 81 458 256 468 q 74 474 74 463 q 81 492 74 486 q 440 483 217 483 m 329 608 l 354 608 q 390 629 383 608 q 397 715 397 650 l 397 965 q 386 1008 397 1003 q 336 997 375 1014 q 330 1000 332 996 q 332 1007 328 1004 q 461 1088 390 1028 q 468 1088 463 1089 q 474 1085 474 1088 l 474 715 q 481 628 474 649 q 518 608 488 608 l 544 608 q 547 602 547 608 q 544 596 547 596 q 489 597 533 596 q 436 597 444 597 q 384 597 428 597 q 329 596 340 596 q 326 602 326 596 q 329 608 326 608 m 383 -125 q 508 -86 465 -125 q 550 10 550 -47 q 449 113 550 113 q 385 85 417 113 q 351 58 354 58 q 342 67 344 58 q 342 83 340 75 l 344 93 q 471 165 424 119 q 518 269 518 210 q 433 347 518 346 q 328 285 364 347 q 293 143 293 224 q 290 138 293 140 q 283 138 286 136 q 281 142 281 139 q 275 249 281 189 l 268 308 q 275 324 268 324 q 306 334 282 326 q 340 344 329 342 q 370 351 350 347 q 410 358 390 356 q 451 360 429 360 q 611 265 611 360 q 602 224 611 242 q 569 190 593 206 q 530 165 546 174 q 472 139 514 157 q 414 114 431 121 q 494 129 460 129 q 640 8 640 129 q 589 -104 640 -64 q 436 -144 538 -144 q 269 -115 360 -144 q 261 -106 258 -111 q 272 -103 264 -100 q 383 -125 346 -125 z "},"⅔":{"ha":883,"x_min":74,"x_max":810,"o":"m 440 483 q 803 492 669 483 q 810 474 810 486 q 803 458 810 463 q 442 468 628 468 q 81 458 256 468 q 74 474 74 463 q 81 492 74 486 q 440 483 217 483 m 383 -125 q 508 -86 465 -125 q 550 10 550 -47 q 449 113 550 113 q 385 85 417 113 q 351 58 354 58 q 342 67 344 58 q 342 83 340 75 l 344 93 q 471 165 424 119 q 518 269 518 210 q 433 347 518 346 q 328 285 364 347 q 293 143 293 224 q 290 138 293 140 q 283 138 286 136 q 281 142 281 139 q 275 249 281 189 l 268 308 q 275 324 268 324 q 306 334 282 326 q 340 344 329 342 q 370 351 350 347 q 410 358 390 356 q 451 360 429 360 q 611 265 611 360 q 602 224 611 242 q 569 190 593 206 q 530 165 546 174 q 472 139 514 157 q 414 114 431 121 q 494 129 460 129 q 640 8 640 129 q 589 -104 640 -64 q 436 -144 538 -144 q 269 -115 360 -144 q 261 -106 258 -111 q 272 -103 264 -100 q 383 -125 346 -125 m 369 594 q 319 594 349 594 q 269 594 290 594 q 244 593 247 593 l 244 604 q 246 617 244 615 q 312 669 271 638 q 375 722 353 700 q 491 857 458 800 q 524 979 524 914 q 426 1075 524 1075 q 324 1000 364 1075 q 285 838 285 925 q 278 832 285 832 q 272 838 272 832 q 262 960 272 885 q 251 1038 251 1036 q 258 1053 251 1053 q 429 1088 371 1088 q 624 961 624 1088 q 601 897 624 929 q 554 844 579 865 q 474 782 529 824 q 388 714 419 740 q 360 691 375 704 q 339 674 344 678 q 521 675 469 674 q 573 677 558 675 q 600 690 588 679 q 617 725 613 700 l 625 783 q 632 794 626 793 q 639 789 638 796 l 638 783 l 629 724 q 608 596 615 603 q 572 593 606 593 q 476 594 565 593 q 369 594 388 594 z "},"⅕":{"ha":883,"x_min":74,"x_max":810,"o":"m 440 483 q 803 492 669 483 q 810 474 810 486 q 803 458 810 463 q 442 468 628 468 q 81 458 256 468 q 74 474 74 463 q 81 492 74 486 q 440 483 217 483 m 329 608 l 354 608 q 390 629 383 608 q 397 715 397 650 l 397 965 q 386 1008 397 1003 q 336 997 375 1014 q 330 1000 332 996 q 332 1007 328 1004 q 461 1088 390 1028 q 468 1088 463 1089 q 474 1085 474 1088 l 474 715 q 481 628 474 649 q 518 608 488 608 l 544 608 q 547 602 547 608 q 544 596 547 596 q 489 597 533 596 q 436 597 444 597 q 384 597 428 597 q 329 596 340 596 q 326 602 326 596 q 329 608 326 608 m 607 11 q 559 -100 607 -58 q 425 -142 511 -142 q 246 -79 317 -142 q 242 -72 242 -76 q 247 -65 243 -67 q 254 -67 250 -64 q 317 -106 289 -94 q 390 -118 346 -118 q 482 -83 450 -118 q 514 8 514 -47 q 481 96 514 65 q 397 126 449 126 q 275 72 344 126 q 268 72 272 69 q 264 78 264 75 l 260 313 q 283 333 260 317 q 310 349 306 349 q 369 348 315 349 q 440 347 422 347 l 563 347 q 600 344 600 347 q 597 316 600 339 q 591 260 594 293 q 586 213 588 226 l 583 183 q 580 177 583 179 q 573 177 576 175 q 569 183 569 179 l 572 213 q 569 248 572 236 q 548 269 565 260 q 494 278 531 278 l 332 278 l 317 113 q 447 153 383 153 q 567 115 528 153 q 607 11 607 76 z "},"⅖":{"ha":883,"x_min":74,"x_max":810,"o":"m 440 483 q 803 492 669 483 q 810 474 810 486 q 803 458 810 463 q 442 468 628 468 q 81 458 256 468 q 74 474 74 463 q 81 492 74 486 q 440 483 217 483 m 607 11 q 559 -100 607 -58 q 425 -142 511 -142 q 246 -79 317 -142 q 242 -72 242 -76 q 247 -65 243 -67 q 254 -67 250 -64 q 317 -106 289 -94 q 390 -118 346 -118 q 482 -83 450 -118 q 514 8 514 -47 q 481 96 514 65 q 397 126 449 126 q 275 72 344 126 q 268 72 272 69 q 264 78 264 75 l 260 313 q 283 333 260 317 q 310 349 306 349 q 369 348 315 349 q 440 347 422 347 l 563 347 q 600 344 600 347 q 597 316 600 339 q 591 260 594 293 q 586 213 588 226 l 583 183 q 580 177 583 179 q 573 177 576 175 q 569 183 569 179 l 572 213 q 569 248 572 236 q 548 269 565 260 q 494 278 531 278 l 332 278 l 317 113 q 447 153 383 153 q 567 115 528 153 q 607 11 607 76 m 369 594 q 319 594 349 594 q 269 594 290 594 q 244 593 247 593 l 244 604 q 246 617 244 615 q 312 669 271 638 q 375 722 353 700 q 491 857 458 800 q 524 979 524 914 q 426 1075 524 1075 q 324 1000 364 1075 q 285 838 285 925 q 278 832 285 832 q 272 838 272 832 q 262 960 272 885 q 251 1038 251 1036 q 258 1053 251 1053 q 429 1088 371 1088 q 624 961 624 1088 q 601 897 624 929 q 554 844 579 865 q 474 782 529 824 q 388 714 419 740 q 360 691 375 704 q 339 674 344 678 q 521 675 469 674 q 573 677 558 675 q 600 690 588 679 q 617 725 613 700 l 625 783 q 632 794 626 793 q 639 789 638 796 l 638 783 l 629 724 q 608 596 615 603 q 572 593 606 593 q 476 594 565 593 q 369 594 388 594 z "},"⅗":{"ha":883,"x_min":74,"x_max":810,"o":"m 440 483 q 803 492 669 483 q 810 474 810 486 q 803 458 810 463 q 442 468 628 468 q 81 458 256 468 q 74 474 74 463 q 81 492 74 486 q 440 483 217 483 m 376 604 q 501 642 458 604 q 543 739 543 681 q 442 842 543 842 q 378 815 410 842 q 344 788 347 788 q 335 797 338 788 q 336 814 333 806 l 338 822 q 464 894 417 849 q 511 999 511 939 q 426 1076 511 1075 q 322 1015 357 1076 q 286 872 286 953 q 283 867 286 869 q 277 867 281 865 q 274 871 274 868 q 267 976 274 917 q 261 1038 261 1036 q 268 1053 261 1053 q 299 1063 275 1056 q 333 1074 322 1071 q 363 1081 343 1076 q 403 1087 383 1085 q 444 1089 422 1089 q 604 994 604 1089 q 595 953 604 971 q 563 919 586 935 q 523 894 539 903 q 465 868 507 886 q 407 843 424 850 q 488 858 453 858 q 633 738 633 858 q 582 625 633 665 q 429 585 531 585 q 263 614 353 585 q 254 624 251 618 q 265 626 257 629 q 376 604 339 604 m 607 11 q 559 -100 607 -58 q 425 -142 511 -142 q 246 -79 317 -142 q 242 -72 242 -76 q 247 -65 243 -67 q 254 -67 250 -64 q 317 -106 289 -94 q 390 -118 346 -118 q 482 -83 450 -118 q 514 8 514 -47 q 481 96 514 65 q 397 126 449 126 q 275 72 344 126 q 268 72 272 69 q 264 78 264 75 l 260 313 q 283 333 260 317 q 310 349 306 349 q 369 348 315 349 q 440 347 422 347 l 563 347 q 600 344 600 347 q 597 316 600 339 q 591 260 594 293 q 586 213 588 226 l 583 183 q 580 177 583 179 q 573 177 576 175 q 569 183 569 179 l 572 213 q 569 248 572 236 q 548 269 565 260 q 494 278 531 278 l 332 278 l 317 113 q 447 153 383 153 q 567 115 528 153 q 607 11 607 76 z "},"⅘":{"ha":883,"x_min":74,"x_max":810,"o":"m 440 483 q 803 492 669 483 q 810 474 810 486 q 803 458 810 463 q 442 468 628 468 q 81 458 256 468 q 74 474 74 463 q 81 492 74 486 q 440 483 217 483 m 264 789 l 439 789 l 439 988 q 356 894 413 956 q 264 789 300 832 m 607 11 q 559 -100 607 -58 q 425 -142 511 -142 q 246 -79 317 -142 q 242 -72 242 -76 q 247 -65 243 -67 q 254 -67 250 -64 q 317 -106 289 -94 q 390 -118 346 -118 q 482 -83 450 -118 q 514 8 514 -47 q 481 96 514 65 q 397 126 449 126 q 275 72 344 126 q 268 72 272 69 q 264 78 264 75 l 260 313 q 283 333 260 317 q 310 349 306 349 q 369 348 315 349 q 440 347 422 347 l 563 347 q 600 344 600 347 q 597 316 600 339 q 591 260 594 293 q 586 213 588 226 l 583 183 q 580 177 583 179 q 573 177 576 175 q 569 183 569 179 l 572 213 q 569 248 572 236 q 548 269 565 260 q 494 278 531 278 l 332 278 l 317 113 q 447 153 383 153 q 567 115 528 153 q 607 11 607 76 m 511 789 l 558 789 q 627 801 610 789 q 651 857 644 813 l 657 890 q 665 897 658 899 q 669 890 671 897 l 665 863 q 646 731 649 733 q 600 728 643 728 l 511 728 l 511 699 q 522 623 511 638 q 583 608 533 608 q 589 602 589 608 q 583 596 589 596 q 524 597 571 596 q 472 597 478 597 q 421 597 468 597 q 361 596 374 596 q 356 602 356 596 q 361 608 356 608 q 427 623 415 608 q 439 699 439 638 l 439 728 l 283 728 q 251 726 278 728 q 217 725 225 725 q 213 740 203 724 q 247 786 218 750 q 254 794 251 792 q 308 860 274 818 q 360 924 342 901 q 408 987 378 947 q 471 1072 439 1026 q 496 1089 479 1085 q 523 1090 515 1094 q 524 1072 531 1085 q 511 1008 511 1046 l 511 789 z "},"⅙":{"ha":883,"x_min":74,"x_max":810,"o":"m 440 483 q 803 492 669 483 q 810 474 810 486 q 803 458 810 463 q 442 468 628 468 q 81 458 256 468 q 74 474 74 463 q 81 492 74 486 q 440 483 217 483 m 329 608 l 354 608 q 390 629 383 608 q 397 715 397 650 l 397 965 q 386 1008 397 1003 q 336 997 375 1014 q 330 1000 332 996 q 332 1007 328 1004 q 461 1088 390 1028 q 468 1088 463 1089 q 474 1085 474 1088 l 474 715 q 481 628 474 649 q 518 608 488 608 l 544 608 q 547 602 547 608 q 544 596 547 596 q 489 597 533 596 q 436 597 444 597 q 384 597 428 597 q 329 596 340 596 q 326 602 326 596 q 329 608 326 608 m 251 58 q 322 242 251 154 q 515 369 393 329 q 524 367 522 372 q 519 360 526 363 q 410 279 454 333 q 351 172 367 225 q 336 67 336 119 q 376 -52 336 -10 q 474 -94 415 -94 q 546 -83 528 -94 q 564 7 564 -50 q 532 99 564 69 q 451 128 500 128 q 376 96 408 128 q 365 93 369 89 q 368 104 361 97 q 433 151 393 129 q 508 172 474 172 q 602 137 564 172 q 640 46 640 101 q 554 -93 640 -37 q 432 -140 481 -140 q 301 -90 350 -140 q 251 58 251 -39 z "},"⅚":{"ha":883,"x_min":74,"x_max":810,"o":"m 440 483 q 803 492 669 483 q 810 474 810 486 q 803 458 810 463 q 442 468 628 468 q 81 458 256 468 q 74 474 74 463 q 81 492 74 486 q 440 483 217 483 m 251 58 q 322 242 251 154 q 515 369 393 329 q 524 367 522 372 q 519 360 526 363 q 410 279 454 333 q 351 172 367 225 q 336 67 336 119 q 376 -52 336 -10 q 474 -94 415 -94 q 546 -83 528 -94 q 564 7 564 -50 q 532 99 564 69 q 451 128 500 128 q 376 96 408 128 q 365 93 369 89 q 368 104 361 97 q 433 151 393 129 q 508 172 474 172 q 602 137 564 172 q 640 46 640 101 q 554 -93 640 -37 q 432 -140 481 -140 q 301 -90 350 -140 q 251 58 251 -39 m 625 738 q 577 626 625 668 q 443 585 529 585 q 264 647 335 585 q 260 655 260 650 q 265 661 261 660 q 272 660 268 663 q 335 620 307 632 q 408 608 364 608 q 500 644 468 608 q 532 735 532 679 q 499 822 532 792 q 415 853 467 853 q 293 799 363 853 q 286 799 290 796 q 282 804 282 801 l 278 1039 q 301 1059 278 1043 q 328 1075 324 1075 q 387 1074 333 1075 q 458 1074 440 1074 l 581 1074 q 618 1071 618 1074 q 615 1042 618 1065 q 609 986 613 1019 q 604 939 606 953 l 601 910 q 598 903 601 906 q 591 903 594 901 q 588 910 588 906 l 590 939 q 587 974 590 963 q 566 995 583 986 q 513 1004 549 1004 l 350 1004 l 335 839 q 465 879 401 879 q 585 841 546 879 q 625 738 625 803 z "},"⅛":{"ha":883,"x_min":74,"x_max":810,"o":"m 440 483 q 803 492 669 483 q 810 474 810 486 q 803 458 810 463 q 442 468 628 468 q 81 458 256 468 q 74 474 74 463 q 81 492 74 486 q 440 483 217 483 m 522 244 q 488 299 522 275 q 404 324 453 324 q 344 311 364 324 q 322 264 322 283 q 331 231 322 246 q 360 203 340 217 q 397 182 381 190 q 445 160 413 174 q 492 139 478 146 q 522 244 522 172 m 358 -69 q 382 -84 358 -69 q 456 -100 406 -100 q 526 -86 506 -100 q 550 -39 550 -67 q 528 16 550 -8 q 483 52 507 40 q 414 83 458 64 q 350 111 369 101 q 311 4 311 76 q 358 -69 311 -37 m 329 608 l 354 608 q 390 629 383 608 q 397 715 397 650 l 397 965 q 386 1008 397 1003 q 336 997 375 1014 q 330 1000 332 996 q 332 1007 328 1004 q 461 1088 390 1028 q 468 1088 463 1089 q 474 1085 474 1088 l 474 715 q 481 628 474 649 q 518 608 488 608 l 544 608 q 547 602 547 608 q 544 596 547 596 q 489 597 533 596 q 436 597 444 597 q 384 597 428 597 q 329 596 340 596 q 326 602 326 596 q 329 608 326 608 m 271 211 q 339 317 271 268 q 457 361 408 361 q 551 333 511 361 q 592 271 592 304 q 589 247 592 258 q 583 227 586 236 q 572 208 579 218 q 559 191 564 197 q 543 174 554 185 q 528 161 532 164 q 511 148 524 158 q 497 136 499 138 q 607 26 607 88 q 532 -94 607 -39 q 399 -137 469 -137 q 286 -106 333 -137 q 239 -21 239 -74 q 344 114 239 53 q 271 211 271 151 z "},"⅜":{"ha":883,"x_min":74,"x_max":810,"o":"m 440 483 q 803 492 669 483 q 810 474 810 486 q 803 458 810 463 q 442 468 628 468 q 81 458 256 468 q 74 474 74 463 q 81 492 74 486 q 440 483 217 483 m 522 244 q 488 299 522 275 q 404 324 453 324 q 344 311 364 324 q 322 264 322 283 q 331 231 322 246 q 360 203 340 217 q 397 182 381 190 q 445 160 413 174 q 492 139 478 146 q 522 244 522 172 m 358 -69 q 382 -84 358 -69 q 456 -100 406 -100 q 526 -86 506 -100 q 550 -39 550 -67 q 528 16 550 -8 q 483 52 507 40 q 414 83 458 64 q 350 111 369 101 q 311 4 311 76 q 358 -69 311 -37 m 376 604 q 501 642 458 604 q 543 739 543 681 q 442 842 543 842 q 378 815 410 842 q 344 788 347 788 q 335 797 338 788 q 336 814 333 806 l 338 822 q 464 894 417 849 q 511 999 511 939 q 426 1076 511 1075 q 322 1015 357 1076 q 286 872 286 953 q 283 867 286 869 q 277 867 281 865 q 274 871 274 868 q 267 976 274 917 q 261 1038 261 1036 q 268 1053 261 1053 q 299 1063 275 1056 q 333 1074 322 1071 q 363 1081 343 1076 q 403 1087 383 1085 q 444 1089 422 1089 q 604 994 604 1089 q 595 953 604 971 q 563 919 586 935 q 523 894 539 903 q 465 868 507 886 q 407 843 424 850 q 488 858 453 858 q 633 738 633 858 q 582 625 633 665 q 429 585 531 585 q 263 614 353 585 q 254 624 251 618 q 265 626 257 629 q 376 604 339 604 m 271 211 q 339 317 271 268 q 457 361 408 361 q 551 333 511 361 q 592 271 592 304 q 589 247 592 258 q 583 227 586 236 q 572 208 579 218 q 559 191 564 197 q 543 174 554 185 q 528 161 532 164 q 511 148 524 158 q 497 136 499 138 q 607 26 607 88 q 532 -94 607 -39 q 399 -137 469 -137 q 286 -106 333 -137 q 239 -21 239 -74 q 344 114 239 53 q 271 211 271 151 z "},"⅝":{"ha":883,"x_min":74,"x_max":810,"o":"m 440 483 q 803 492 669 483 q 810 474 810 486 q 803 458 810 463 q 442 468 628 468 q 81 458 256 468 q 74 474 74 463 q 81 492 74 486 q 440 483 217 483 m 522 244 q 488 299 522 275 q 404 324 453 324 q 344 311 364 324 q 322 264 322 283 q 331 231 322 246 q 360 203 340 217 q 397 182 381 190 q 445 160 413 174 q 492 139 478 146 q 522 244 522 172 m 358 -69 q 382 -84 358 -69 q 456 -100 406 -100 q 526 -86 506 -100 q 550 -39 550 -67 q 528 16 550 -8 q 483 52 507 40 q 414 83 458 64 q 350 111 369 101 q 311 4 311 76 q 358 -69 311 -37 m 625 738 q 577 626 625 668 q 443 585 529 585 q 264 647 335 585 q 260 655 260 650 q 265 661 261 660 q 272 660 268 663 q 335 620 307 632 q 408 608 364 608 q 500 644 468 608 q 532 735 532 679 q 499 822 532 792 q 415 853 467 853 q 293 799 363 853 q 286 799 290 796 q 282 804 282 801 l 278 1039 q 301 1059 278 1043 q 328 1075 324 1075 q 387 1074 333 1075 q 458 1074 440 1074 l 581 1074 q 618 1071 618 1074 q 615 1042 618 1065 q 609 986 613 1019 q 604 939 606 953 l 601 910 q 598 903 601 906 q 591 903 594 901 q 588 910 588 906 l 590 939 q 587 974 590 963 q 566 995 583 986 q 513 1004 549 1004 l 350 1004 l 335 839 q 465 879 401 879 q 585 841 546 879 q 625 738 625 803 m 271 211 q 339 317 271 268 q 457 361 408 361 q 551 333 511 361 q 592 271 592 304 q 589 247 592 258 q 583 227 586 236 q 572 208 579 218 q 559 191 564 197 q 543 174 554 185 q 528 161 532 164 q 511 148 524 158 q 497 136 499 138 q 607 26 607 88 q 532 -94 607 -39 q 399 -137 469 -137 q 286 -106 333 -137 q 239 -21 239 -74 q 344 114 239 53 q 271 211 271 151 z "},"⅞":{"ha":883,"x_min":74,"x_max":810,"o":"m 440 483 q 803 492 669 483 q 810 474 810 486 q 803 458 810 463 q 442 468 628 468 q 81 458 256 468 q 74 474 74 463 q 81 492 74 486 q 440 483 217 483 m 522 244 q 488 299 522 275 q 404 324 453 324 q 344 311 364 324 q 322 264 322 283 q 331 231 322 246 q 360 203 340 217 q 397 182 381 190 q 445 160 413 174 q 492 139 478 146 q 522 244 522 172 m 358 -69 q 382 -84 358 -69 q 456 -100 406 -100 q 526 -86 506 -100 q 550 -39 550 -67 q 528 16 550 -8 q 483 52 507 40 q 414 83 458 64 q 350 111 369 101 q 311 4 311 76 q 358 -69 311 -37 m 431 597 q 377 597 426 597 q 318 596 328 596 q 310 601 311 596 q 319 608 313 607 l 338 608 q 405 642 369 606 q 469 739 440 679 l 601 993 l 376 993 q 310 977 328 993 q 289 918 292 961 l 285 857 q 281 852 285 854 q 275 852 278 850 q 272 858 272 854 l 275 918 q 279 1069 279 958 q 307 1072 279 1072 l 415 1072 q 532 1073 432 1072 q 638 1074 632 1074 q 640 1063 639 1074 q 641 1042 642 1053 q 639 1029 640 1031 q 488 735 563 892 q 468 657 469 692 q 501 607 468 607 q 517 608 508 607 q 528 610 526 610 q 536 603 536 610 q 528 596 536 596 q 478 597 521 596 q 431 597 436 597 m 271 211 q 339 317 271 268 q 457 361 408 361 q 551 333 511 361 q 592 271 592 304 q 589 247 592 258 q 583 227 586 236 q 572 208 579 218 q 559 191 564 197 q 543 174 554 185 q 528 161 532 164 q 511 148 524 158 q 497 136 499 138 q 607 26 607 88 q 532 -94 607 -39 q 399 -137 469 -137 q 286 -106 333 -137 q 239 -21 239 -74 q 344 114 239 53 q 271 211 271 151 z "},"⅟":{"ha":883,"x_min":74,"x_max":810,"o":"m 440 483 q 803 492 669 483 q 810 474 810 486 q 803 458 810 463 q 442 468 628 468 q 81 458 256 468 q 74 474 74 463 q 81 492 74 486 q 440 483 217 483 m 329 608 l 354 608 q 390 629 383 608 q 397 715 397 650 l 397 965 q 386 1008 397 1003 q 336 997 375 1014 q 330 1000 332 996 q 332 1007 328 1004 q 461 1088 390 1028 q 468 1088 463 1089 q 474 1085 474 1088 l 474 715 q 481 628 474 649 q 518 608 488 608 l 544 608 q 547 602 547 608 q 544 596 547 596 q 489 597 533 596 q 436 597 444 597 q 384 597 428 597 q 329 596 340 596 q 326 602 326 596 q 329 608 326 608 z "},"−":{"ha":775,"x_min":143,"x_max":629,"o":"m 385 349 q 622 357 489 349 q 629 340 629 351 q 622 324 629 328 q 386 333 447 333 q 150 324 325 333 q 143 340 143 328 q 150 357 143 351 q 385 349 283 349 z "},"≈":{"ha":775,"x_min":133,"x_max":640,"o":"m 261 281 q 158 219 204 281 q 133 239 142 219 q 260 301 199 301 q 386 264 300 301 q 506 226 472 226 q 554 238 532 226 q 588 259 576 249 q 615 290 599 269 q 640 271 629 290 q 603 240 615 249 q 563 218 592 231 q 504 206 535 206 q 377 243 461 206 q 261 281 293 281 m 261 485 q 158 424 204 485 q 133 443 142 424 q 260 506 199 506 q 386 468 300 506 q 506 431 472 431 q 567 447 544 432 q 615 493 590 463 q 640 475 631 493 q 603 444 615 453 q 563 422 592 435 q 504 410 535 410 q 377 447 461 410 q 261 485 293 485 z "},"≠":{"ha":775,"x_min":132,"x_max":640,"o":"m 389 225 l 315 225 l 161 -10 q 133 -6 139 -12 q 294 225 192 75 q 150 224 203 228 q 143 254 132 232 q 307 244 231 244 l 390 367 q 413 402 397 378 q 438 440 428 426 l 389 440 q 150 439 179 440 q 143 469 135 450 q 388 460 221 460 l 450 460 q 541 599 483 510 q 613 710 599 688 q 640 704 632 713 q 471 460 576 622 q 625 465 560 460 q 629 432 636 450 q 458 440 565 443 l 407 361 l 328 244 l 388 244 q 625 250 536 244 q 629 217 640 239 q 389 225 574 225 z "},"≤":{"ha":775,"x_min":168,"x_max":603,"o":"m 388 132 q 596 138 506 132 q 603 123 603 132 q 596 110 603 114 q 389 117 474 117 q 179 110 304 117 q 172 123 172 114 q 179 138 172 132 q 388 132 268 132 m 386 356 q 594 274 504 303 q 585 246 601 253 q 376 340 576 250 l 171 433 q 168 442 168 433 q 171 450 168 450 q 272 495 213 467 q 379 544 331 524 q 578 639 526 611 q 589 611 593 628 q 386 528 528 590 q 197 442 326 501 q 251 418 219 432 q 313 390 282 404 q 386 356 344 375 z "},"≥":{"ha":775,"x_min":172,"x_max":610,"o":"m 389 132 q 596 138 506 132 q 603 123 603 132 q 596 110 603 114 q 388 117 474 117 q 179 110 301 117 q 172 123 172 114 q 179 138 172 132 q 389 132 269 132 m 392 528 q 189 611 250 590 q 200 639 185 628 q 399 544 251 611 q 506 495 447 524 q 607 450 565 467 q 610 442 610 450 q 607 433 610 433 l 401 340 q 193 246 239 269 q 183 274 176 253 q 392 356 274 303 q 502 406 444 381 q 579 442 560 432 q 392 528 433 510 z "},"〈":{"ha":556,"x_min":85,"x_max":433,"o":"m 101 343 l 426 -375 q 418 -386 433 -386 l 400 -386 q 386 -375 394 -386 l 85 342 l 386 1071 q 400 1082 394 1082 l 418 1082 q 426 1071 433 1082 l 101 343 z "},"〉":{"ha":556,"x_min":122,"x_max":471,"o":"m 129 -375 l 454 343 l 129 1071 q 138 1082 122 1082 l 156 1082 q 169 1071 161 1082 l 471 342 l 169 -375 q 156 -386 161 -386 l 138 -386 q 129 -375 122 -386 z "},"":{"ha":806,"x_min":18,"x_max":1121,"o":"m 232 740 l 232 504 q 388 508 264 508 q 528 563 472 508 q 583 725 583 618 q 526 896 583 840 q 340 951 468 951 l 286 950 q 240 921 247 950 q 232 740 232 892 m 1101 -99 q 1110 -93 1104 -93 q 1118 -97 1115 -93 q 1118 -107 1121 -101 q 910 -250 1033 -250 q 748 -161 815 -250 q 615 126 681 -72 q 487 408 547 328 q 319 492 426 489 l 232 492 l 232 360 q 239 117 232 192 q 258 28 246 43 q 297 13 269 13 l 351 13 q 360 6 360 13 q 351 0 360 0 q 269 1 329 0 q 200 3 208 3 q 112 1 188 3 q 31 0 36 0 q 22 6 22 0 q 31 13 22 13 q 94 15 75 13 q 115 54 110 31 q 122 140 119 78 q 126 418 126 217 l 126 603 q 125 802 126 740 q 114 902 124 864 q 92 945 104 940 q 51 950 81 950 l 26 950 q 18 956 18 950 q 26 963 18 963 q 110 960 49 963 q 181 958 172 958 q 269 960 189 958 q 360 963 349 963 q 624 905 539 963 q 708 726 708 847 q 635 569 708 626 q 436 499 561 513 q 592 401 519 488 q 718 161 665 314 q 843 -106 774 -4 q 990 -208 913 -208 q 1101 -99 1047 -208 z "},"":{"ha":892,"x_min":18,"x_max":1121,"o":"m 368 1053 q 363 1050 365 1050 q 357 1056 357 1050 q 361 1061 357 1057 q 430 1138 392 1090 q 496 1225 468 1186 q 528 1268 524 1264 q 561 1276 536 1276 q 586 1272 582 1276 q 590 1246 590 1268 q 574 1222 590 1235 l 492 1160 q 368 1053 411 1097 m 232 740 l 232 504 q 388 508 264 508 q 528 563 472 508 q 583 725 583 618 q 526 896 583 840 q 340 951 468 951 l 286 950 q 240 921 247 950 q 232 740 232 892 m 1101 -99 q 1110 -93 1104 -93 q 1118 -97 1115 -93 q 1118 -107 1121 -101 q 910 -250 1033 -250 q 748 -161 815 -250 q 615 126 681 -72 q 487 408 547 328 q 319 492 426 489 l 232 492 l 232 360 q 239 117 232 192 q 258 28 246 43 q 297 13 269 13 l 351 13 q 360 6 360 13 q 351 0 360 0 q 269 1 329 0 q 200 3 208 3 q 112 1 188 3 q 31 0 36 0 q 22 6 22 0 q 31 13 22 13 q 94 15 75 13 q 115 54 110 31 q 122 140 119 78 q 126 418 126 217 l 126 603 q 125 802 126 740 q 114 902 124 864 q 92 945 104 940 q 51 950 81 950 l 26 950 q 18 956 18 950 q 26 963 18 963 q 110 960 49 963 q 181 958 172 958 q 269 960 189 958 q 360 963 349 963 q 624 905 539 963 q 708 726 708 847 q 635 569 708 626 q 436 499 561 513 q 592 401 519 488 q 718 161 665 314 q 843 -106 774 -4 q 990 -208 913 -208 q 1101 -99 1047 -208 z "},"":{"ha":892,"x_min":18,"x_max":1121,"o":"m 376 1086 q 386 1086 382 1081 l 500 1256 q 547 1282 519 1282 q 575 1263 575 1282 q 550 1222 575 1250 q 388 1074 497 1163 q 375 1074 381 1067 q 207 1208 275 1150 q 179 1249 179 1235 q 188 1268 179 1258 q 211 1278 197 1278 q 260 1249 239 1278 q 376 1086 279 1221 m 232 740 l 232 504 q 388 508 264 508 q 528 563 472 508 q 583 725 583 618 q 526 896 583 840 q 340 951 468 951 l 286 950 q 240 921 247 950 q 232 740 232 892 m 1101 -99 q 1110 -93 1104 -93 q 1118 -97 1115 -93 q 1118 -107 1121 -101 q 910 -250 1033 -250 q 748 -161 815 -250 q 615 126 681 -72 q 487 408 547 328 q 319 492 426 489 l 232 492 l 232 360 q 239 117 232 192 q 258 28 246 43 q 297 13 269 13 l 351 13 q 360 6 360 13 q 351 0 360 0 q 269 1 329 0 q 200 3 208 3 q 112 1 188 3 q 31 0 36 0 q 22 6 22 0 q 31 13 22 13 q 94 15 75 13 q 115 54 110 31 q 122 140 119 78 q 126 418 126 217 l 126 603 q 125 802 126 740 q 114 902 124 864 q 92 945 104 940 q 51 950 81 950 l 26 950 q 18 956 18 950 q 26 963 18 963 q 110 960 49 963 q 181 958 172 958 q 269 960 189 958 q 360 963 349 963 q 624 905 539 963 q 708 726 708 847 q 635 569 708 626 q 436 499 561 513 q 592 401 519 488 q 718 161 665 314 q 843 -106 774 -4 q 990 -208 913 -208 q 1101 -99 1047 -208 z "},"":{"ha":892,"x_min":18,"x_max":1121,"o":"m 474 -335 q 466 -335 468 -337 q 469 -329 464 -333 q 539 -204 539 -290 q 532 -167 539 -187 q 483 -194 515 -194 q 441 -177 458 -194 q 424 -135 424 -160 q 442 -88 424 -107 q 492 -69 461 -69 q 551 -101 529 -69 q 572 -185 572 -132 q 539 -274 572 -232 q 474 -335 506 -315 m 232 740 l 232 504 q 388 508 264 508 q 528 563 472 508 q 583 725 583 618 q 526 896 583 840 q 340 951 468 951 l 286 950 q 240 921 247 950 q 232 740 232 892 m 1101 -99 q 1110 -93 1104 -93 q 1118 -97 1115 -93 q 1118 -107 1121 -101 q 910 -250 1033 -250 q 748 -161 815 -250 q 615 126 681 -72 q 487 408 547 328 q 319 492 426 489 l 232 492 l 232 360 q 239 117 232 192 q 258 28 246 43 q 297 13 269 13 l 351 13 q 360 6 360 13 q 351 0 360 0 q 269 1 329 0 q 200 3 208 3 q 112 1 188 3 q 31 0 36 0 q 22 6 22 0 q 31 13 22 13 q 94 15 75 13 q 115 54 110 31 q 122 140 119 78 q 126 418 126 217 l 126 603 q 125 802 126 740 q 114 902 124 864 q 92 945 104 940 q 51 950 81 950 l 26 950 q 18 956 18 950 q 26 963 18 963 q 110 960 49 963 q 181 958 172 958 q 269 960 189 958 q 360 963 349 963 q 624 905 539 963 q 708 726 708 847 q 635 569 708 626 q 436 499 561 513 q 592 401 519 488 q 718 161 665 314 q 843 -106 774 -4 q 990 -208 913 -208 q 1101 -99 1047 -208 z "},"":{"ha":819,"x_min":49,"x_max":722,"o":"m 146 368 q 219 136 146 240 q 411 32 293 32 q 528 65 471 32 q 622 154 586 97 l 622 546 q 560 606 585 583 q 485 653 535 628 q 389 678 436 678 q 210 599 274 678 q 146 368 146 519 m 714 700 q 722 690 722 700 l 722 129 q 604 -175 722 -49 q 371 -301 486 -301 q 239 -277 300 -301 q 178 -224 178 -253 q 197 -179 178 -199 q 243 -160 215 -160 q 340 -199 267 -160 q 464 -239 414 -239 q 517 -231 494 -239 q 567 -196 540 -222 q 608 -107 593 -169 q 622 50 622 -44 l 622 138 q 497 26 572 67 q 339 -14 422 -14 q 129 76 210 -14 q 49 313 49 167 q 170 593 49 478 q 447 708 292 708 q 647 611 560 708 q 714 700 707 700 z "},"":{"ha":819,"x_min":49,"x_max":722,"o":"m 433 997 q 424 997 428 1003 l 310 828 q 263 801 290 801 q 235 821 235 801 q 260 861 235 833 q 422 1010 329 940 q 435 1010 428 1017 q 603 875 535 933 q 631 835 631 849 q 622 815 631 825 q 599 806 613 806 q 550 835 571 806 q 433 997 531 863 m 146 368 q 219 136 146 240 q 411 32 293 32 q 528 65 471 32 q 622 154 586 97 l 622 546 q 560 606 585 583 q 485 653 535 628 q 389 678 436 678 q 210 599 274 678 q 146 368 146 519 m 714 700 q 722 690 722 700 l 722 129 q 604 -175 722 -49 q 371 -301 486 -301 q 239 -277 300 -301 q 178 -224 178 -253 q 197 -179 178 -199 q 243 -160 215 -160 q 340 -199 267 -160 q 464 -239 414 -239 q 517 -231 494 -239 q 567 -196 540 -222 q 608 -107 593 -169 q 622 50 622 -44 l 622 138 q 497 26 572 67 q 339 -14 422 -14 q 129 76 210 -14 q 49 313 49 167 q 170 593 49 478 q 447 708 292 708 q 647 611 560 708 q 714 700 707 700 z "},"":{"ha":819,"x_min":49,"x_max":722,"o":"m 428 814 q 263 914 338 814 q 254 931 254 925 q 286 950 254 939 q 331 946 318 961 q 403 867 372 892 q 472 843 435 843 q 576 947 532 843 q 592 957 581 957 q 603 952 599 957 q 603 942 607 947 q 525 854 574 892 q 428 814 476 817 m 146 368 q 219 136 146 240 q 411 32 293 32 q 528 65 471 32 q 622 154 586 97 l 622 546 q 560 606 585 583 q 485 653 535 628 q 389 678 436 678 q 210 599 274 678 q 146 368 146 519 m 714 700 q 722 690 722 700 l 722 129 q 604 -175 722 -49 q 371 -301 486 -301 q 239 -277 300 -301 q 178 -224 178 -253 q 197 -179 178 -199 q 243 -160 215 -160 q 340 -199 267 -160 q 464 -239 414 -239 q 517 -231 494 -239 q 567 -196 540 -222 q 608 -107 593 -169 q 622 50 622 -44 l 622 138 q 497 26 572 67 q 339 -14 422 -14 q 129 76 210 -14 q 49 313 49 167 q 170 593 49 478 q 447 708 292 708 q 647 611 560 708 q 714 700 707 700 z "},"":{"ha":819,"x_min":49,"x_max":722,"o":"m 376 836 q 366 847 376 836 q 356 888 356 857 q 376 940 356 918 q 428 961 397 961 q 480 940 458 961 q 501 888 501 918 q 480 836 501 857 q 428 815 458 815 q 376 836 397 815 m 146 368 q 219 136 146 240 q 411 32 293 32 q 528 65 471 32 q 622 154 586 97 l 622 546 q 560 606 585 583 q 485 653 535 628 q 389 678 436 678 q 210 599 274 678 q 146 368 146 519 m 714 700 q 722 690 722 700 l 722 129 q 604 -175 722 -49 q 371 -301 486 -301 q 239 -277 300 -301 q 178 -224 178 -253 q 197 -179 178 -199 q 243 -160 215 -160 q 340 -199 267 -160 q 464 -239 414 -239 q 517 -231 494 -239 q 567 -196 540 -222 q 608 -107 593 -169 q 622 50 622 -44 l 622 138 q 497 26 572 67 q 339 -14 422 -14 q 129 76 210 -14 q 49 313 49 167 q 170 593 49 478 q 447 708 292 708 q 647 611 560 708 q 714 700 707 700 z "},"":{"ha":819,"x_min":49,"x_max":722,"o":"m 449 1068 q 456 1069 454 1071 q 453 1063 458 1067 q 383 938 383 1024 q 390 900 383 917 q 439 928 406 928 q 481 910 464 928 q 499 868 499 893 q 480 822 499 840 q 431 803 461 803 q 372 834 393 803 q 350 918 350 865 q 383 1006 350 965 q 449 1068 415 1047 m 146 368 q 219 136 146 240 q 411 32 293 32 q 528 65 471 32 q 622 154 586 97 l 622 546 q 560 606 585 583 q 485 653 535 628 q 389 678 436 678 q 210 599 274 678 q 146 368 146 519 m 714 700 q 722 690 722 700 l 722 129 q 604 -175 722 -49 q 371 -301 486 -301 q 239 -277 300 -301 q 178 -224 178 -253 q 197 -179 178 -199 q 243 -160 215 -160 q 340 -199 267 -160 q 464 -239 414 -239 q 517 -231 494 -239 q 567 -196 540 -222 q 608 -107 593 -169 q 622 50 622 -44 l 622 138 q 497 26 572 67 q 339 -14 422 -14 q 129 76 210 -14 q 49 313 49 167 q 170 593 49 478 q 447 708 292 708 q 647 611 560 708 q 714 700 707 700 z "},"":{"ha":768,"x_min":-6,"x_max":678,"o":"m 678 693 l 678 129 q 560 -175 678 -49 q 326 -301 442 -301 q 194 -277 256 -301 q 133 -224 133 -253 q 152 -179 133 -199 q 199 -160 171 -160 q 296 -199 222 -160 q 419 -239 369 -239 q 472 -231 450 -239 q 520 -196 494 -222 q 560 -107 546 -169 q 574 50 574 -44 l 574 138 q 317 -14 460 -14 q 93 268 93 -14 l 93 524 q 77 623 93 608 q 4 628 61 638 q -4 632 -3 626 q 4 640 -6 639 q 174 703 85 654 q 188 702 176 706 q 199 693 199 699 l 199 254 q 245 81 199 135 q 363 28 292 28 q 474 57 426 28 q 574 154 522 86 l 574 524 q 558 623 574 608 q 485 628 542 638 q 476 632 478 626 q 482 640 475 638 q 485 640 483 640 q 653 703 563 654 q 667 702 656 706 q 678 693 678 699 z "},"":{"ha":768,"x_min":-6,"x_max":678,"o":"m 340 753 q 335 750 338 750 q 329 756 329 750 q 333 761 329 757 q 402 838 364 790 q 468 925 440 886 q 500 968 496 964 q 533 976 508 976 q 558 972 554 976 q 563 946 563 968 q 546 922 563 935 l 464 860 q 340 753 383 797 m 678 693 l 678 129 q 560 -175 678 -49 q 326 -301 442 -301 q 194 -277 256 -301 q 133 -224 133 -253 q 152 -179 133 -199 q 199 -160 171 -160 q 296 -199 222 -160 q 419 -239 369 -239 q 472 -231 450 -239 q 520 -196 494 -222 q 560 -107 546 -169 q 574 50 574 -44 l 574 138 q 317 -14 460 -14 q 93 268 93 -14 l 93 524 q 77 623 93 608 q 4 628 61 638 q -4 632 -3 626 q 4 640 -6 639 q 174 703 85 654 q 188 702 176 706 q 199 693 199 699 l 199 254 q 245 81 199 135 q 363 28 292 28 q 474 57 426 28 q 574 154 522 86 l 574 524 q 558 623 574 608 q 485 628 542 638 q 476 632 478 626 q 482 640 475 638 q 485 640 483 640 q 653 703 563 654 q 667 702 656 706 q 678 693 678 699 z "},"":{"ha":768,"x_min":-6,"x_max":678,"o":"m 394 997 q 385 997 389 1003 l 271 828 q 224 801 251 801 q 196 821 196 801 q 221 861 196 833 q 383 1010 290 940 q 396 1010 389 1017 q 564 875 496 933 q 592 835 592 849 q 583 815 592 825 q 560 806 574 806 q 511 835 532 806 q 394 997 492 863 m 678 693 l 678 129 q 560 -175 678 -49 q 326 -301 442 -301 q 194 -277 256 -301 q 133 -224 133 -253 q 152 -179 133 -199 q 199 -160 171 -160 q 296 -199 222 -160 q 419 -239 369 -239 q 472 -231 450 -239 q 520 -196 494 -222 q 560 -107 546 -169 q 574 50 574 -44 l 574 138 q 317 -14 460 -14 q 93 268 93 -14 l 93 524 q 77 623 93 608 q 4 628 61 638 q -4 632 -3 626 q 4 640 -6 639 q 174 703 85 654 q 188 702 176 706 q 199 693 199 699 l 199 254 q 245 81 199 135 q 363 28 292 28 q 474 57 426 28 q 574 154 522 86 l 574 524 q 558 623 574 608 q 485 628 542 638 q 476 632 478 626 q 482 640 475 638 q 485 640 483 640 q 653 703 563 654 q 667 702 656 706 q 678 693 678 699 z "},"":{"ha":768,"x_min":-6,"x_max":678,"o":"m 480 828 q 470 839 480 828 q 460 876 460 849 q 480 925 460 904 q 528 946 500 946 q 576 925 556 946 q 597 876 597 904 q 576 828 597 849 q 528 808 556 808 q 480 828 500 808 m 205 828 q 195 839 205 828 q 185 876 185 849 q 205 925 185 904 q 253 946 225 946 q 301 925 281 946 q 322 876 322 904 q 301 828 322 849 q 253 808 281 808 q 205 828 225 808 m 678 693 l 678 129 q 560 -175 678 -49 q 326 -301 442 -301 q 194 -277 256 -301 q 133 -224 133 -253 q 152 -179 133 -199 q 199 -160 171 -160 q 296 -199 222 -160 q 419 -239 369 -239 q 472 -231 450 -239 q 520 -196 494 -222 q 560 -107 546 -169 q 574 50 574 -44 l 574 138 q 317 -14 460 -14 q 93 268 93 -14 l 93 524 q 77 623 93 608 q 4 628 61 638 q -4 632 -3 626 q 4 640 -6 639 q 174 703 85 654 q 188 702 176 706 q 199 693 199 699 l 199 254 q 245 81 199 135 q 363 28 292 28 q 474 57 426 28 q 574 154 522 86 l 574 524 q 558 623 574 608 q 485 628 542 638 q 476 632 478 626 q 482 640 475 638 q 485 640 483 640 q 653 703 563 654 q 667 702 656 706 q 678 693 678 699 z "},"":{"ha":522,"x_min":61,"x_max":468,"o":"m 253 551 q 114 605 167 551 q 61 744 61 658 q 127 901 61 833 q 290 968 193 968 q 390 946 347 968 q 432 896 432 924 q 389 857 432 857 q 358 871 372 857 q 333 902 343 885 q 303 933 324 919 q 257 947 283 947 q 160 903 196 947 q 125 779 125 858 q 173 651 125 700 q 300 603 221 603 q 385 628 350 603 q 451 710 421 654 q 462 714 456 717 q 464 703 468 711 q 372 593 428 635 q 253 551 317 551 z "},"":{"ha":1257,"x_min":13,"x_max":1203,"o":"m 864 17 q 1039 98 978 17 q 1100 332 1100 179 q 1072 490 1100 417 q 984 613 1044 564 q 842 663 924 663 q 726 630 783 663 q 632 543 668 597 l 632 147 q 864 17 746 17 m 528 11 l 528 954 q 503 974 528 963 q 436 995 478 986 q 356 1004 394 1004 q 208 690 208 1004 l 346 690 q 394 689 394 690 q 385 674 394 685 q 358 645 376 664 q 329 615 339 626 q 271 616 310 615 q 208 617 232 617 l 208 336 q 210 153 208 217 q 217 53 210 81 q 240 19 224 26 q 303 13 256 13 q 311 6 311 13 q 303 0 311 0 q 224 1 279 0 q 160 3 168 3 q 98 1 151 3 q 21 0 44 0 q 13 6 13 0 q 21 13 13 13 q 93 35 81 13 q 106 153 106 57 q 104 382 104 238 l 104 608 l 104 618 l 47 618 q 28 625 28 618 l 76 690 l 111 690 q 211 916 133 817 q 389 1056 289 1015 q 478 1074 431 1074 q 522 1065 494 1074 q 551 1057 549 1057 q 618 1124 590 1074 q 626 1126 621 1126 q 632 1119 632 1125 l 632 558 q 755 669 681 629 q 910 708 829 708 q 1117 616 1031 708 q 1203 382 1203 524 q 1082 101 1203 215 q 806 -14 961 -14 q 594 69 686 -14 q 535 -1 543 -1 q 528 11 528 -1 z "}}}
